<mxfile host="65bd71144e">
    <diagram id="Iw18g2gbnHKTLAAiutWf" name="第 1 页">
        <mxGraphModel dx="1380" dy="1659" grid="1" gridSize="10" guides="1" tooltips="1" connect="1" arrows="1" fold="1" page="1" pageScale="1" pageWidth="827" pageHeight="1169" math="0" shadow="0">
            <root>
                <mxCell id="0"/>
                <mxCell id="1" parent="0"/>
                <mxCell id="4" value="" style="shape=image;verticalLabelPosition=bottom;labelBackgroundColor=default;verticalAlign=top;aspect=fixed;imageAspect=0;image=data:image/png,iVBORw0KGgoAAAANSUhEUgAAAtoAAANjCAYAAACUXL06AAAAAXNSR0IArs4c6QAAAARnQU1BAACxjwv8YQUAAAAJcEhZcwAADsMAAA7DAcdvqGQAALRcSURBVHhe7f3fq2XVnf/7+y941Rf2RX+lv41wQjxKsA9GTNke5KQqRsMmqbLBQ6K2RUzFHxcioU61GnIw1Z4ugh8DGhSF+qiEwsRP0XR1qAs/GDiCNHwQQqQbaQLhcx3sf2CcOcacY633fM/3+DHXmnOttdd6XjzYa47xHmPOtfb68dqjxt51wy1f+orDfM4+dcFsH2uqeaawT9eSG187d03dOte57n1cR+rcc15TaW7Zv83HZmrbeKwBAPM61kHbfwDVssZvwlTnXmUeef9LrPE5q4zx9Hkt1riUsfVabvyYuUu1NXNNdS2er5dK7SmpmpqxnjxXijVGt0myv1RrieetYY2PrHqLNTaS/TW3AQDHy7EP2qu2bUI877rnX3We2vpUnW9flTWfl+vzSmNXZc3nWf1ynOyPX1dRO3adc0hynprbllx/aew6xlzXKtdhjaltG6N2fKzTX3U/AOD4mTFon3JHzQfE0T1W39JdDzVB5qFTZl+J9QFU2za3qT4s15mntnadOceM9Xx9iTXOMqbWIsdbc9X0a7k+Sc4jxT5db9FjJdlfc1vzfZZcvxwvWbVRqt5q93SfnMsia+WYVdtqrTI2d72aVQcA2D2zBe3b73/GnX3stLvd6Fu447R7+Kln3H13GH0VrA+c2rY5pc439jrWncfX1bLGS7FG16baU0p1tfN4Y2otcrw1V2yrPU9uvtq+lJoaKXW+1G3N6ottuT5Lqk+2p25rVl2u3mLV17ZFqXP7Y9mWqottOdY4fQwA2G0zBe0T7r7HLriH7z9h9C1VhfEM+aFUYo2fQ+lctdcyxTxT3W85j54z1yfbV2XN58k+PUaSY6RUvxxr0fWR7ksdp+bIze2V+jVZX3Nbs/piW67PkuqT7anbkm+36lL1KXGeGtZ4T/aNva3FPv1V37aOAQC7bZ6gfc/jzQfC4+4uq2+hbmtJjvWhU9s2h6muJ/b7rymyLqXUX0PPMfZ4LqXz1PSvO4cUa/VX3Z+ybr8m62tua1afb0uNKc2VImus25IcU1OfYtXXtkW6Lx7rr7pfk+3W7dp5AAC7aZagXbXvuiqM51kfOrVtsX1V1jyyTfal2ueaR/fVsuaYmnVezRonlepKc8T+OE9k1dSw5pBtmhyrpfpL4zx5jrGsuXJtut+qHyM3t2xL9Wm6RrL6a9uiVN+Ydt2WOpbt1jwAgN01fdAO+65LK9Xt1pJVfwkysj50ats2ZapzrzLPmDG5Wt9Xwxqr6brSsRb7U3Wl8ZKs1bctsV+K7aWvkT7WZL+/nSPHabK/5rbm+yy6xrotybEpsU6OibdLfam2nNo5cvPqvnisv+r+lFx/ak4AwO6bPGhv4pcgI//BU8savwlTnXuVeeSY+DhoVm1KqqZmbBTPm2ON82RfvC3H5cRxkmyPt/VX3Z9qS9XXzBOt2meR9TW3NatPt9XMlRsjj2vm8qy+XL3F19eyxnuyb+xt2Zai6+RXAMDxMXHQbvddl34JMmwtWeOXICPrg6e2bVNWPbcfV2KNk2SNVV/qt+i62nFRafyq11Fqt8haf1sfx9vWsZarj7dTc/j2yOr3cn0WWV9zW7P6xtZb7alj2Z6ay7P6cvWW2jlqrkPXpI5r5kodp9oAALtv2qC9oV+CjGo/kLb5ITXVuVeZR44pPS5j5o+1Y8ZEfkyJNU5L1dWO92StHuePNdmv6X55HG+PnUMqjdWs8+dua1bf2PrYXhLr5Jh4W7P64jyarousvtq2SPfF49SYMe21bQCA3Tdp0N7UL0FGx+FDaqpzj51H1/tjS6q+ZGx9yqrzpMaNmU/Wxtv6q+5PKdWXxnu5mprxkqyvua1ZfWPrrfbScaotGltvqZ1jyutI9fl22ZebNzUHAGB3TRe0q/Zd1/197RqpD53cB9U2THXusfPMVe/rYq28XSuOybHGaam62vGerNXn1vOU5q0ZO2YOrTRWk/Wp85fOZ7FqvVSfbi8dp9qisfVaqnaK68gp1fv+VE1sH3tOAMD2TRa0N/lLkF7pQ0ne3uYH1Nhz+/qxrDl0myXW1dSnzlXqK5lqXDweM5+stebTZL8m+1O3rWMp9vmvtfQccby8HY9TXy1Wn26rnadE1sqvFqsvV6+lamV7vJ2b1/eNZc3jyX5dVzoGAOy2iYL29n8JMmXbH0y7/sGYuz7fF1n9Wq5e9tXSc0hWf2mMlqvXfbXXI+tSY0pzraP2nFNdQ2mesf2rzFcaE9XWeWNqa6SuO9Uuv2qpdgDA7pkmaG/4lyABAACAXTfpL0MCAAAAaBG0AQAAgBkQtAEAAIAZELQBAACAGRC0AQAAgBkQtAEAAIAZELQBAACAGRC0AQAAgBkQtAEAAIAZTBS0H3df/eVH7jv/HP3GffVbVt0BOPe2u3L1Q3flnUvupNW/LfG6IvP6nnOXZM3Vq+7Cg7oGAAAANaZf0f7he+sH7W+97r7RBPZ7f2j0bUsIqhXBc0NB++SLV0UgFl59blj/4CX3VtN36Zxq7znjLryTGD+1qusBAAA43gjatWqD9oa0Qfttd9bo00JtKfiH8Luh+0fQBgAAB4CgXesYB+2zr35YDtqbvH8EbQAAcAA2H7RDv9jP/dqPF31f/slv+n0977mvyHmqdNsh/JaKzlsvnqmoWwbYEFLF+B4ZXuOWkWiwBSO9NaM9Rz806/PqULqNoF26plb6sUxudwms+/Ks+8X16+769TfdU4M+AACA3bbRoN0GaRmYu1+iFGE7mGhF++yrKjh2YbgfELtfAOwF0aZNB+LqFd90oG6Dpp6jPf/yBwBjvLECXAzaOvgr7Vz6lx+VxTXUXVP1Y1m9ok3QBgAAx9cGg/aP3b1WeA71arV6tq0jOtTaq8mmCYK2df7BvOF4eD3hOsWcqdVha8V+7RXtymuqfizZOgIAAA7A5oJ2F57tbSGqfqqg3QW6dBjNhWJlkqA9DL21AToQ44or2sK6QbvumkY8lgRtAABwADYetKvC8xRBO4bsXvDTK8qbD9rtdcV52uuRgbM2QG8+aJfORdAGAACQNr515Bs/eVy1G6YI2mZwTGwdKYVQb6qg3fWHa/Bz6nNXnmeTQbv2mqofS4I2AAA4AFv4ZciaAN2G8sEvSY4xCHNtyPbbHXr7mFMr3zood3W9sabyym4IyU0gvdAE0+F83fhCiN5o0K68purHMn4vMo9RK/4y5K/cS0dWPwAAwO6aKGh3wdiiwrL5J/ysQD3Y0z3+z/u1YdQHxNalc2I1uVe7DOGtRKAMYVTUifCqz7Vkhdd4vlRwjcG2b7jFZFhjhdf1g7ZXvqZW5WMZQ3m27rR76X0ftK+79186rfoAAAB22/Qr2sCUnn6ToA0AAI4lgjZ2WFzR5u9oAwCA44egjZ301BvtlpHr77/svmn0AwAA7DqCNgAAADADgjYAAAAwA4I2AAAAMAOCNgAAADADgjYAAAAwA4I2AAAAMAOCNgAAADADgjYAAAAwA4I2AAAAMAOCNgAAADADgjYAAAAwA4I2AAAAMAOCNgAAADADgjYAAAAwA4I2AAAAMAOCNgAAADADgjYAAAAwA4I2AAAAMAOCNgAAADADgjYAAAAwA4I2AAAAMAOCNgAAADADgjYAAAAwA4I2AAAAMAOCNgAAADADgjYAAAAwA4I2AAAAMAOCNgAAADADgjYAGM4+dcFsn0PpXLJ/k9c1t9R9GXMf55wDANZF0AYAw6rhy48rscboNkn2l2ot8bw1rPGRVW+xxkayv+Z2Sap21Tn87Rw5DgBKCNoADp4VqGpZ841Vmkf2r3JOa0xt2xi142Od/qr7S3J1tXN4NbVj5gOAiKBd9FN37+U/ue+98q7RN4d33QO//pM78/xPjT7sg6P3fuReu/Ztd7fRtzNevsm5z25yV1T7lWs3uC8u39pr26S7HmrC7UOnzL7o9vufcWcfO+1uN/pqrRuq/PiUVL3V7uk+OZdF1soxq7bVWmVs7nq1mhov1y/HS1afHJMbCwA5ex60H3df/eVH7juv/djoq3XMg/YDH7ozzXwPPGH0IR96X3jUvfbbR92R1beGctA+6c7/dlhz98+fbK7nR+7iz78mamfwxM3ui89ucJ+/nO7bSti+47R7+Kln3H13GH0Lp9xRE4qO7rH66q0brFLjZXvqtmbV5eotVn1tW5Q6tz+Wbam62JZjjdPHufbUHLk2zarRbQBQi6BdRNDeZyG85oL2DCvP1UH7t0+67z8a277mvn/Nt80dtG9xn5eCdFjtvtF9vOHnVNVK9T2PN8HocXeX1VdJBisZwDQ5Rkv1y/bUbcm3W3Wp+pQ4Tw1rvCf7xt7WYp/+qm9bx7l2az7dZ5F9/naJHAsAOQTtIoL2PmtXie1V62wIX0MxaD/6bXexuabvN+dfhGrf9t7JMHbOoO23hrhPbnYXjT6ptm46NSvVJ9x9j11wD99/wuirVwpSNUFLhjJN1li3JTmmpj7Fqq9ti3RfPNZfdb8m263bq8wj28bUR7JP15WOASBn2qD9rdfdN/65CbaREXC//JPfLPuNmq+81rX98D1R9xv31W/157nlSz9298p5vDiXvg7l3h/quXLaoO2D723P/9F9rwmtrU/dnaLuzleatssfuttEW1vfrwue+FTMo0P1MGgvz6vmUvPIHwb616oZ17Qhr59+1v3h9NfdLSe+6/5wrrkd/MB9MNgOcLf74JHYr2u+7j5q2j46IeujdtzvTt1t9Bky20OGQXu5qtySK86pmmEwHgTtEKzb2vMvxOPmmvzXrs6P8X1hbBO4l/PF1e+lMEdvbn+d6rp6c0Ttara5ZUTLbS8JnnW/uH7dXb/+pnvK7B+pZqW6amtJng9RuSA1ZciSc1nzxrZUn6ZrJKu/ti1K9Y1p122pY9luzZNqz43LzRPFY92fOwaAnOmCdheMv/GTx3ttMtSGEP3P77mvxP4Yln/5uvtyr0a2davSoqZ+pXrCFW0fUBdBdrjKXRu0YwCWK8y3Pf+pu/eBeNwP2lb9sl3OnVh537EV7RC0fXB+5MidD21doF4ce22Q7oXlEMxj2Db6F3Ih3NAL2m1ojUE1BO1FIG37eqE5jO2H7aP3VPgONf3w2wvaMWTL4BuDdgjtfj5/7vYa+0Hb9/d/SGhX6MU1xPnltXdtg5XxUVtCbnUff5LbYjJl0G5Xqku/BBl+UXKNX4JMBa2oNmD5upJYJ8fE26W+VFtO7Ry5eXVfPNZfdX9Krj81p+T7LLrGui3JcfF2iZ4DAFImCtpdYM4F2m6VebCaHAL6csU6BO1eqI6r4MOA3gv1phm3joTV5GXQrQraXejNbwtZBu0w56//KEJ4v2YQntU1BVME7d7qs9ILyGUhaKsx50/9oJnru+51eTyYV65U91ete/V3HLnfmSvkCTIsq9ArQ629jaRdJc5v5RgG9EXQ7kL4YLwI//68F997NGwbWYyVoVzr7sMi2CdCdS/sdy5evnHUdpCNbR/ZwC9ByvAUb8tglRPH6fGlY9luzRNZfbl6i6+vZY33ZN/Y27ItRdfJrxarLzWP1SfbcnWlYwDImSZop0K0FAK1DMtRG5rj2LqgrbagJIP0jEE7BNhlCK4K2iEIW8FZakN03OZhBuQuPMeaPjX/Lq5oF4L2YtXb4redxJpwO24x6cJ1CNrLuYpCEG2Dtg+153/uj5erxzGghmDqQ7hFBt8Y1pVB0I59VmgWQVuvsg8CchfWNR205Yq6165891fDxwbnTQXtmpXq8IuSa/4SZJQKUrUBqzaoyfbc3FZfrt5SO0fNdeia1HHNXKnjVJs0dkyuXvbputIxAOQc26C90G1Z6W83ieZe0Z4vaGdXtMeE5+MatAcr2n3LVeyvu4+ar683x2GFO6y+rxK04zaNdpXaB9NB0B6saCsxZPfC83or2r32Rm9l3Rqvg3UuaE+xon3tFrNvOpv7JcgoFaRqA5avK4l1cky8rVl9cR5N10VWX21bpPvicWrMmPbaNmnsmNo+f7tEjgWAnEm3jmS3cky6dcSg5mnNF7R1iB6zdSQfeuUe7e7cejtIr0a2G6YI2tvYOlIKy/6a/DzN1xCw/Up2F7jHXVO3YuxXsrvgGULoe9/ubQuxVoAHQvAV+6ODTNBubrfz9oOwFYKtPvOaKoN2uAa9mj7pHu2JbOiXIKVUkKoNWLqudJxqi8bWW2rnmPI6Un2+Xfbl5k3N4eXGWWr7dF3pGAByJvtlyLiVoxekm/C7PO5Cby8wD/d2rxq0UzVhvlJIzzKCdhdeZdDVobo9HoZka5U698uQy60k/Xni/OUA3Y3XK/JbUhO04y80ZgNztxf7d4/E/djdvu3mOG4vqdMF4WvqT+k1bf0A3NalAnAwCLXdmEYqaC+OxbjaoD0I9tZ1G0G7Dej6BwKv4m9oR9V/deRX7qUjq79G3Up1zf8WOUYqSNUGrFWCWm7usfVaqnaK68gp1fv+VE1sz80Rx2tWrVfbp+tKxwCQM1nQDuQ2DhWgozb4LulV8Kqgbf75vlSYjgF/KbvFxdCG475hwI2rzx0fbK1fTmwsQ3irvzJtrFZ3wX4Y0PvzBFagXoyPhte0KXVB2+vCds/wT/zJudp5Un+NJKXdKtIP1VabtwzOS/3A2obYZf/5F4a/MKmDtjyfrysGbbGKHUN6y19Le406aC9rvPTKfNgOYvzX61p5f/Zp99L7Pmhfd++/dNror7DB/wlSSgWr2oDl60pkrfxqsfpy9VqqVrbH27l5fd9Y1jye7Nd1peNce2psao5I9pfmKM0FANK0QRvAbjFWtPMm/J8hn35zraC96V+CjKwgNSZclWp1/9j6VJults4bU1sjdd2pdvlVS7XXqBkra3L161wHgMNE0Ab22eig3QhBOhG2uy0j5e0lcUX7zRX/jvbmfwkSAICpEbSBfbZK0PZC2B5uIfFbRkoh+6k32i0j199/2X3T6AcA4FAQtAEAAIAZELQBAACAGRC0AQAAgBkQtAEAAIAZELQBAACAGRC0AQAAgBkQtAEAAIAZELQBAACAGRC0AQAAgBkQtAEAAIAZELQBAACAGRC0AQAAgBkQtAEAAIAZELQBAACAGRC0AQAAgBkQtAEAAIAZELQBAACAGRC0AQAAgBkQtAEAAIAZELQBAACAGRC0AQAAgBkQtAEAAIAZELQBAACAGRC0AQAAgBkQtAEAAIAZELQBAACAGRC0AQAAgBkQtDtnn7pgtnu5PkuqvnaesecDAADA7jnWQdsH0rGsebxV+yJZU3M7R9f54xxZCwAAgN1w7IP2mPac3Jja+WKd/qr7S8aMq50TAAAAmzVj0D7ljpoQeHSP1bd010MX3NmHTpl9JVbIXDV4psatMl9uLi1VlzuWcn0AAADYntmC9u33P+POPnba3W70Ldxx2j381DPuvjuMvgoyZPrbKXKMZNV6usa6Lcmxllijx8jj2Kal2iU9DwAAALZvpqB9wt332AX38P0njL6lqjCeIUNmKnDWBNHUPNbY3HyxT3/Vt61jqVSbGwsAAIDdME/QvufxJgw+7u6y+hbqtpbkyMCZCp81odSax3/NifV6XOq2HmPNEZVqc2MBAACwG2YJ2lX7rqvCeJ4MnP52ihxjkTWp25Jurz2W7bpG0vX+a4kcDwAAgO2bPmiHfdellep2a8mqvwQZyYCZCps1IbRmnlq58bGvdA7fL2t0fWk8AAAAtm/yoL2JX4KMcmG01B7l5vDHFlmTq/N0nfyqlcaljgEAALB7Jg7a7b7r0i9Bhq0la/wSZCQDZwyoFjnGEmt0rTU2N9+646PUPP6rRdYCAABgN0wbtDf0S5BRKmSuEj6tMbVtqfYx4yVdE49XnQ8AAACbN2nQ3tQvQUYyZNbcTok1utYam5rPt8u+3NjUHJHuz40rzQUAAIDtmC5oV+27rvv72jVkwEwF09SxlKu1xuXm8nx/qia218xRup1rAwAAwPZNFrQ3+UuQXgyYVhCtDaRWm+T7LVatJ/t1XelYtsk+fdsS+wEAALA7Jgra2/slSG3K4GnNlWrL1Vp9qXbZpvtL9QAAANgd0wTtDf8SJAAAALDrJv1lSAAAAAAtgjYAAAAwA4I2AAAAMAOCNgAAADADgjYAAAAwA4I2AAAAMAOCNgAAADADgjYAAAAwA4I2AAAAMAOC9orufOVP7nuXP3S3GX377sq1G5z7zLvJXTH6AQAAsPdB+3H31V9+5L7z2o+NvvWsHrR/6u693Ix95V2jb/ddvHwjARsAAKACQXtFhxm0b3Uff3KD++LyrUYfAAAAJIL2igjaVj8AAACiaYP2t1533/jnJthGRsD98k9+s+w3ar7yWtf2w/dE3W/cV7/Vn+eWL/3Y3Svn8eJc+jqUe3+o56rwxKfue79uArKkg/ag5lN3Z+x74EN3ptfX98ATYp4YxkX/med/Kvq3haANAABQa7qg3QXjb/zk8V6bDLUhRP/ze+4rsT+G5V++7r7cq5Ft3aq0qKlfqZ5mRfu25//YhN0/unsfWLYNVrR9kO6tUndhebDqXV7RvvOV/rligO+H8W0gaAMAANSaKGh3gTkXaLtV5sFqcgjoyxXrELR7oTqugg8Dei/Um6YI2u+6B4wV5ZqtI21AF6vawSpbR+xryLvbffDIs+4P52wfnbDGFDxxs/visxvdx1sP/AAAALtvmqCdCtFSCNQyLEdtaI5j64K22oKSDNITBO2w5UOtMDesoB3auq0eSysE7cQ2k61tHwkB+wbnPrnZXbT6AQAAMHBsg/ZCt2Wlv90k2lzQbkN2v26lFe0Ysnv9q6xoz6AL3J+/bPQBAACgZ9KtI9mtHJNuHTGoeVpTBe3ELysugrYdnlcK2mE/tg72O7J1hD3aAAAA1Sb7Zci4laMXpJvwuzzuQm8vMA/3dq8atFM1Yb5SSM9KhGq/6qxXtMVxG7J9nQ7acfV72B4Mgn0bsre6dWSBoA0AAFBrsqAdyG0cKkBHbfBd0qvgVUHb/PN9qTAdA/5SdouLaRl2PR+CQ5AWwVrXhL6wOm0FahHWO3LFfBnSY19bT9AGAAA4PqYN2thzBG0AAIBaBG2McuXaDc59dpO7YvQBAABgiaCNkdpVbef/3B+BGwAAIImgDQAAAMyAoA0AAADMgKANAAAAzICgDQAAAMxg7aD91RP/h/vS//q/mX0AAADAoSJoAwAAADMgaAMAAAAzIGgDAAAAMyBob9gb//W8+5///bz7+O+b479/LNz+n//11LLmke+4f4v9YtxK4vyRPM/CKfexrPnvj7k3BjXH14X/8rS4b+fdv/2Xr5l1Wjuu/1gUv3cAAADCbgbto5fd+9evu188bfTN4Kk3rrvr77/svmn0Ta0NcE+7f3qkOe5C9WxBe+Fr7p/+qRwKrXC5P9ofKNYJ2sXvHQAAgEDQbmw7aPfCH0F7JvME7dr5AADA4SFoN7YWtK3wR9CeycRBe+R8AADg8OxU0P7mS79y15uAbXvTPdWrP+1eel/2/8q9dDTs64X1LsC3ofpZ94vF2KH3Xzq9HNc5+eJVd+Xqh+6tF88M+iYTgrYPc104bsJccm9x1R5sb4qg3b8eb+wPA2H+f/qOu2D0tfdFnrsNssvzxYAbtdcTHpfe46DrokIw7n7AWc7j7esPHQAAYBOO6Yp2G5J7YfjpN5uAbIXtGNC7Y2PlunZFe3NBuw16iyDbBUkZbIehOBem1w3aXeiV47trGrOimwvyvRBubMtox8rHQAb/5ZzhFxbNMJ8J2lWPLwAAwDjHMmiHle9BMG6DdH8lulu1fuPZbrVcr4q3Nrl1pMjcOqJDYnvcr2kMVoWj9YJ2qj0dahN619e/D2Gu7vrsefV96I5VXTogp4K2/dgQtAEAwLqOZdAOwdgHaEsTqnv1cbtIIzvfcQra5jaHyNo6sV7QliG4JxnsE8J1d9fXrSLLcN3ev/ZarZXncH2LYF13n5ZSQdv+oYWgDQAA1nV8g3ZtMA5bStqgbe279o5r0B6saCftSNAWodaf6+O/98d+vAzXBG0AALAfju/WkcQ2kJ5unhCwB3u4l47r1hErjNrWC9rZAD5m60h3HR//vf/azufnaAP38j7b8+r7MG3Q1u3hGgjaAABgDbsZtMXe6mx/NhwPf/mx3XIyDOhtcLdDuLTJX4bMB+0YfnVdynpBO15Tb3y39aPu/Es+wP7bPzXniXP5eZrjxZaS2GbeX7ktZqqgPQzV7XG/bZzn3KXmeXLl6lV34UGrHwAAHIIdDdoNsbe6pQOy9ef5YliOfTo8x/Zh2G5D+NJ2/7xfOWh7MWz3iOBp9gcisMYQbeifr72GZb+1F7xs+ANCnFeF2sF16dBbF7SXoVmT83VzdX3hfo/eFiOdcRfe8UG78epzRj8AADgEuxu0gePs3Nvz/1AGAAB2GkEbmFxc0X7bnTX7AQDAISBoAxOK24uuvHPJnTT6AQDA4SBoAwAAADMgaAMAAAAzIGgDAAAAMyBoAwAAADNYO2gDAAAAGCJoAwAAADMgaAMAAAAzIGgDAAAAM5gsaF+5doNzn3k3uStGPwAAAHBIJl/RDoH7k5vdRaMPAAAAOBTTbx154mb3xWc3uo+fMPoAAACAA0HQBgAAAGawlaD9zZd+5a5fv+7ef+m02Q8AAAAcdwRtAAAAYAbTB+0v3eo+/uQG567dYvQBAAAAh2GGoN26ePnG8Of+vrh8q9kPAAAA7LMZgvYt7nMCNgAAAA7cVvZoAwAAAPtuq78Mef2NZ81+AAAA4Ljbzor202+2Qfv6m+4pqx8AAAA45ra0deS0e+l9gjYAAAD21+RBu/1rIze5K0bfQreizd/RBgAAwL6aLGhfuXZD+HN+LreaffSyez9sGbnufvG00Q8AAADsiem3jgAAAAAgaAMAAABzIGgDAAAAMyBoAwAAADMgaAMAAAAzIGgDAAAAMyBoAwAAADMgaAMAAAAzIGgDAAAAMyBoAwAAADMgaAMAAAAzIGgDAAAAMyBoAwAAADMgaAMAAAAzIGgDAAAAMyBoAwAAADMgaAMAAAAzIGgDAAAAMyBoAwAAADMgaAMAAAAzIGgDAAAAMyBoAwAAADMgaAMAAAAzIGgDAAAAMyBoAwAAADMgaAMAAAAzIGgDAAAAM9j7oH32qQtm+1xy5xt7Lan62nmmvO/rXoukx8jjKa8ZAABgmwjaDV8zljWPt2pfJGtqbufoOn+cI2u1VH9pnEWPKR3X8GNSrHoAAIC5EbQbqZpVQlpuTO18sU5/1f0lY8bN0ZdSuq7UnL7dEvtknXUbAABgk2YM2qfcURNyju6x+pbueqgJSw+dMvtyYsjSrDrdpq06zpIat8p8ubm0VF3uWMrNYcn1y/Ga1V8aY9Fj5HHqNgAAwCbNFrRvv/8Zd/ax0+52o2/hjtPu4aeecffdYfStIIYq/zVFj4n18naKHCNZtZ6usW5Lcqwl1ugx8ji2aal2Sc8Tx6Tacn0ppfk0XRvpPj1OknUAAACbMlPQPuHue+yCe/j+E0bfUlUYH8EKVTVBS9ak6teZxxqbmy/26a/6tnUslWpzYyOrJrbl+iy+T47VdH2OrpfHqdsAAACbNE/QvufxJuA87u6y+hbqtpbk1ASqmqA15zz+a06s1+NSt/UYa46oVJsbG1k1vi01NjdnalxuTIoeI49TtwEAADZplqBdte+6KoyXxSC1TtDS9SlyjEXWpG5Lur32WLbrGknX+68lcrwcm2rT/Va9bC/1l/g6LdUe6TkAAAA2YfqgHfZdl1aq260lq/wSpMUKU7GtJmjJmlT9VPPUyo2PfaVz+H5Zo+tL4704h6ZrrNtWm9Wfa0/J1Y+dCwAAYA6TB+1t/hKk1VYTumRNqr40T24Of2yRNbk6T9fJr1ppXOrYYtXk5inNmeovjdNy9WPnAgAAmMPEQbvdd136JciwtWSiX4KMoWqdACdr/O0UOcYSa3StNTY337rjo9Q8/qtF1kZWe6rWy/V564yVdK0/TpF1AAAAmzJt0N7QL0FKMkhZoaomaKVqVglptdcw5pxjxku6Jh6PmW9MrZfr88aMXfU8pWsAAADYhEmD9iZ/CdKrCWY1oUvW1NxOiTW61hqbms+3y77c2NQcke7PjUvNNabWy/V5Y/pL54msPt0GAACwadMF7ap913V/X7tGbZgq1cl+XVs6lnK11rjcXJ7vT9XE9po5SrdzbbHdYtV6uT6v1O/FGl3rjyPZrpX6AQAANmGyoL2NX4LMiWGrNpTJutzY2jbJ91usWk/267rSsWyTffq2JfZLVrtui8epOaSaGs/XWbWpthI9BgAAYG4TBe3N/xJkjVLAyvVPGc6suVJtuVqrL9Uu23R/qX4VtePHnGfdawIAANimaYL2Fn4JEgAAANhlk/4yJAAAAIAWQRsAAACYAUEbAAAAmAFBGwAAAJgBQRsAAACYAUEbAAAAmAFBGwAAAJgBQRsAAACYAUEbAAAAmAFBeyJ3vvIn973LH7rbjL6UMObXf3Jnnv+p2Y/j78q1G5y7dovZJ5199UN35Z1L7qTRd3z90L37d793//504+/ec2fNGgAA9teeB+3H3Vd/+ZH7zms/NvqmRdCe0AuPutd++yPlSff9R43aHXbx8o3OfXaTu2L0aasH7TPuwjvN2FefM/q26x8eImADAA4bQXsiqwRtJISg3Q/Wd//8yRC4z78g6nbZyzc1IftG9/ETRp9h/4L2P7p/efr37l/+xuoDAOAwELQnQtCekBG0b/nS19z3r/3IvfbeSdG2q25xn392g/vi8q1Gn42gDQDA/pk2aH/rdfeNf26CbWQE3C//5DfLfqPmK691bT98T9T9xn31W/15bvnSj929ch4vzqWvQ7n3h3qustue/2PY5rHwyru9/hC0fdsTn4q6P7p7HxDzPPChOyPn6DxQueo5ixPfdX849133+pe+7j4692xzu/W7U3cPal8/vez3Pjqh+k5/vVcfnT/1A/eHR47ceaPPZAbtr7ij95qgfe3b7u5w3Abviz//mtpqMhwXV8MXZFh/9NvuYmh/1B0ZY8L8Xzrpzutxnf41dcJqdmHLyLm33ZWrTUCWdNAe1Ly93Ibx4CX3Vq+v79I5MU8M46L/rRfPiP45ELQBAJguaHfB+Bs/ebzXJkNtCNH//J77SuyPYfmXr7sv92pkW7cqLWrqV6qnWdFu91J/6u5ctL3rHvAhWaxgx/3Wg7bcKncXvLcftH1w/oH74I62LQRjcXzLl+52HzyigvQdR+53ImyHoJ0I07kQbqpa0e6OVUjWwTcc90J0F5plOI5hO87dHbchu61pg3c/jMe59HaW8AuQn9zsLoo26eSLV5uwe9VdeHDZNljR9kG6t0rdheXBqnd5Rfvsq/1zxQDfD+NTI2gDADBR0O4Ccy7QdqvMg9XkENCXK9YhaPdCdVwFHwb0Xqg3TRC0U2E4rFwvV6zNUB3GqlXtQf8qQbu/+twnA3KFELTVGBWil6veoqYhA3Rv1TqMj3O2Id1aIU8ygnYbmGVbF7TVanIvEHeBebCv2wry3ar4+RcSW1Sqw/et7uNPcttGnnOXjBXlmq0jbUAXq9rBKltH7GuY1N9cc//+9DX3D1YfAAAHYpqgnQrRUgjUMixHbWiOY+uCttqCkgzSEwTtEKjlanbUrmrHkGyvXvdrBnZmRTsftNsVbh3oOzFcizAe69tw3QZtuc2kqLcVpKO3Z9Ts2Q7z6CDs2SvRyy0m1pjM1pVeXWF/dtjyoVaYG1bQDm3dVo+lFYJ2YpvJLEE7BOzfu39/6B/tfgAADsixDdoL3ZaV/naTaMtBuxSkj1XQHq5o94hV7NdPN19PNMchhLer7+OD9nCvdd/0QbtdNfcS55bXFVa4rbkLK9qVQbsN2f26lVa0Y8ju9W9qRftf3bt/bfQBAHAgJt06kt3KMenWEYOap7XlrSOqZuBYbR0pzeuvydc0X0PA9ivZXeAee01TBe0RW0fa1ey2Te/zXlquYvv64Wp2K7tHuwu+5i8rLoK2HZ5XCtphP7YO9hsI2uzRBgBgul+GjFs5ekG6Cb/L4y709gLzcG/3qkE7VRPmK4X0rJ+6ey83Idr6ZUjxl0eGQXtYM3BMVrQXvwyZXdXu9mI34Trux273bTfHpdVwbaqgHWt6K8/GXxAZ7L82ajrL7SWZ68v+De1EqParznpFWxy3IdvX6aAdV7+H7cEg2LchO7V1JG5XWT+EE7QBAJgsaAdyG4cK0FEbfJf0KnhV0Db/fF8qTMeAv5Td4pIQgrQPzh39vzkO/vyfUTNwbIK2F8N2n6xp//yfmKubZ9Sf9vMmC9qt5ZaQVm8lOpyradcr2LF9MH86hC+1+7TT//X6Mux6PgSHIC2Cta4JfWF12grUIqx35Ir5MqTHvrbeCtO5QD8OQRsAgGmDNsYJQTuztQQ7yN7fPTDyf4bcHV3A74X+VRC0AQAgaG/Qna/0Q7X9l0qwu+pX0b2wV/uYhe24or3+39j+oXv3737v/v3v3ltzZRwAgOOLoL1R3b7tiJB9PHR7uO2tJHkhbCe3kOyQxZ8AHP5FlNW1q9rhz/0RuAEAB4igDQAAAMyAoA0AAADMgKANAAAAzICgDQAAAMxg7aD91RP/h/vS//q/mX0AAADAoSJoC2efumC2ryI111TnmPJaa+jz+eMUWZci62rHAAAAHCcEbUEHPisArhIkrfbSPFP0l1jjUnR9anztvLJu7LUAAAAcBwRtwQp8ui0XCn1fiqyxblt0f5zLIusk3ReP5VhJ1kq6L1Wbm0OSdbVjAAAAjpNjEbRvv/8Zd/ax0+52o2/hjtPu4aeecffdYfRVsgLfqoEwVTvFHF7tPLpOHuf6NKs2RdZZdI0er8laAACA4+IYBO1T7qgJW0f3WH1Ldz3UhLKHTpl9OVaw86zaHGuOWtZ8JbXj9LnkOHnbOo5tmq4ZS84Rb08xLwAAwC7Z/aB9z+NNCHvc3WX1LdSF8RIdAEvkWCn2WTW5cTnxnDmpcanjXJ+mx0mpNovuj7dzYwAAAI6jHQ/aJ9x9j11wD99/wuhbqtpaUmGKsKfnyB1b5/Ntku5PSdXqdnmc69NS4+LtVL/m+8aOAQAAOI52O2hX7buuC+M1rAA4hh+XE2tkfbxtsfqt8bl5fJ8m+3StPJZiX2oOq02zamWfpmsAAACOk50O2mHfdWmlOmwtWe+XIKN1Al4cJ8dbc5X6pVR/bC+N93RN6rg0l++XtVKqTZJtpX4AAIB9sMNBe95fgtSsgBjbLLJOsmo92S+/5uia0rGldo7UXL49svq9XJ/Fqh87BwAAwK7b2aAd9l2XfgkybC1Z75cgZYicIuzJOaz5xpwrN17fTtH1kuyPX1NkXS09R2T15eoBAACOox0N2pv9JchoirAXQ6ama+RxiqyTc6XosVZ//KprdZuWG+e/1swRpeay6DoAAIDjYjeD9oZ/CTKaItjJOVLz1dR4sc+qyfVFuXGlNk3XyON4u2Yez6qrHQsAAHBc7GTQrtp3XfX3tceZIuz5OVJiv/XVIsfp9txxTmpsaQ7Zn5rD6rNYNTXjAAAAjpMdDNqb/SVIL4Y8HRhLYq2Uavd0X24ez+pL1efmkWSdHpM7n/8apWrksVUX1cwBAABw3O1c0N7UL0FqUwW91Dxj2zVfl6sdM4/8qlntpblrzx2tcg4AAIDjZseC9nZ+CRIAAACY2m7+MiQAAABwzBG0AQAAgBkQtAEAAIAZELQBAACAGRC0AQAAgBkQtAEAAIAZELQBAACAGRC0AQAAgBkQtAEAAIAZELS1v/0P92dv/Yf7S6sPZWe+4z79xf/p3v4bo29q937i/nzq71WY0zXPAef+/Mmf2TUAAAAV9j5oH733I/fatW+7u42+gS5k/cXfGn3BXe7t/+dx9//+4C6jb5dt7rof+8H/2QTt77j/2+ibw1++4EPxVGH7A/cXBGwAADARgvZCTcj6391/+8Xj7r+dsfp22eau+//+vx53n/5f/7vZN4+fuZt/1oTtFz4w+kbiXzMAAMCECNqdsDL6s0/cXxl9C5vcFjGljV33llb8i/8SUYmgDQAAJrSTQfvunz/pXvttE5C1906Kuq+571+T/U+67z8a+06683KccvHnXxPzeO1qth3U2vD46S8S/p9vuMdEfVjR1TVihTdsrQhj1Lx6FfhvvuH+XzlHMAzL+nzLkDvuuifRXbNfOe9dl7HC3W4xSdSIeYZj7G0pVT8olRC0AQDAhHYuaLch2wjNvZDdtvUC8wuPqnGtqhXtELD+0918r9EnhPCYDKjt9ox+f9smV3jbrRXf6W/lUCvOMYTKoDkMmd35KgJq/ronFO5Hc67G4j4Prqn7ASD7OA0fNy97P6YIyQRtAAAwoZ0L2lYw1m0hjA/Cc7vCrVera4L2Xz35nxWrofltEWYITIXMXltDBu3KsNwG9v5KcRvG9ap3/rqntFilzoT/UKMfpy6gDx6n3v2zw/fCBNtHwqr4FHu9AQAAGsdmRVsG6BCeu20gA72V77qgXbftoA16OgDLvkEIHOyNbut0QJaGK9eenr+bZ8DaVpG77mmF8C+vIa5wL+7v8geNvuGWGB3I7cdFWCNot3+5ZII93gAAAMLu7dEOW0DWD8/RZCvag9AshFVbeyW5t3qbWK2WrJXqwYpv7lq0MbVriavQ7baYNkCrYFxx/xfCdXfja8aFoF3e/pMzyT5vAACAzo4FbXv7h9auej/qjow+rSqUV+zRzq6oWkG7C8e90FwReodBO65ei3EjwnNxJXgycuXc+CHDGxO0xWPqH5Pi1hf2aAMAgB2zk0Fbr2APdb8gWbGqPdyKYqn4G9q5cNsFyEUY7FZj/5sKzTWht7/9Qm61kOO68K1Xvi21ofzBS+6tqx+6K1ffdmet/hJ9Hv2YBIkAbhLbYyrq+asjAABg1+ze1pFHv+0u6q0jgV7Btv6Enx2o9Z5ua8W83aebD1ltCF6SK7NtiI59PhS3oXIZNOPWilI4FgGzO4e5naQLsstzenagzl330nPuUgjaH7q3Xjxj9OdZP0TEx6Qftvv3L3dN7XVX/JDA39EGAAA7aMeCtvFn+0R7eaV7Hbv632+3wbS4dWICJ1+8GoL2pXN2/2a197u8zYT/GRIAAOym3Qra3Wr2IGin2qcWgtYWw7bYlxzb+ltJ5tStaL9zyZ00+zep/oeLmn+JqNatjO/eD1sAAOA42r2tI9ZfHWmcf8GoncPWVzX11or5Q/bZV9stI1defc7s35Tl9puK7SJeCMYTf6+6H7a2+gMXAADYC7sXtAEAAIA9QNAGAAAAZkDQBgAAAGZA0AYAAABmsFNBm9AOAACAfUHQPibOPnXBbAfmsupzzhrH8xcAcIgI2hNLhQxN15SsMgZYx6rPudQ4nsMAgEND0J6BDhSlY8n3rcqaDyixnksl1jyR7NfjNDkOAIB9c2BB+5Q7aj7cj+6x+qKamjwdIErHJXsXSO55PNyns4+ddrdb/dsSrysyr699fizrnnH33aFr9oO/f1Z7yarjAADYNwcVtG+//5liuKupseTChe4bG0SOTXAJQbUieG4oaIfvpT+P9tCpYf0dp93DTV/+B6wT7r7HEuOnVnU90zIfK8Ua51m1Xuyz6nXbLGqfkwAAzOCAgnYbkh6+/4TRF9XUpNUGijEhw9fmWGO2ZsdCTRu0H3d3GX1a1Q9YIfxu6P5tKWhb7VHt882qk20bfd4StAEAW3Q4QTt84BZCV01NRgwQ+qvF90VWf1Saw2rfmmMctO96qPlelIL2Ju/fHgRt/7WGHj8pgjYAYIsOJmiHIFX4J/+amhpTBYjSPNOEFL3nOBHuuuC3qBOPU3jcZJ8kw2sIPaJv8Fint2a05+iHZn1efd3bCNqla2p193NRt7zG5HaXYPUfAmvY5+yzxmmpurrxy9+R6D8Ww/uee6x1X8/i+2w/3wbPhfB99+dX3zc5blHTfz2t+q9jAID9cBhBu2Z1cMIVRP8BK2+nyDFa7NdjND1uHB8c+gGmDTcqTHYBuRcamrbBY1URRFvpQG2evwsvy/Mb443vXzFod/crpZ1r+INIz+Ia6q5pMV8v1Ddt+rGY8PlYy98fqz0q9UfxsbHadduQeLyTgbj2sW5kn5P289AO2k1bY/Ec1Odb1CzPZT+XAQCH5CCCdvjA6wWboZqaGjpM6ONSuyf7ausmMwgsXfDRQdAyQdCO59OhvjdvOE6scIo526DTBiTJWmUchCtL7v5VXlM4zoX/aEtBu8QaJ8k6OS6nP4f9fOt9fyof6yD3PRsZtPvfC/U8tc6zhe8hAGC3HEDQNoLbQE1NXjo42IHYarPaU3Verq9aFyK0RTgYExayoUbKBe1h0NEBKhWgAzGurasItY1BuLJk7l/dNeXvd8+WgrbVHuX6432Nt63+3PFS+bVY+/0Pss/JMUG78Ly2agjaAHDw9j9ohw/AQtiqqankP+xLbVZNyiJAJFhjqoX7rUKNDgdbCNrtOeM8bfCS568N0JsP2qVzTR+0J3kedOJcOdY4TddZ49Jz1Qbtytdr9jlJ0AYAzGvvg7ZeDbXU1NRKBYjYng4Ytlz92Lk0M7AMwsGI1f6pgnbXH87p5xy1Srm0yaBde01V5/G2FLSt9qj2PFadbMvPU/F8q36eNbK1BG0AwLz2O2iHD7rCB2RNzQi5EFEbVKSp5+vR4aALBn5eGQ7awKoCQzN2ECC68eVQXl7ZDedsws59TegZzteNL4TojQbtymtaPMa9+96Ey8Fj0QbOmh8A134edErz1J4nVefby3PU/GBX+Vh7heek/r6HY3+dBG0AwAT2OmjHsJYLTzU1Y1hBQgYMebtGar5U31iLYBH4oNAGnUE4CEFC1KYCoK4Tj20M7ENWiOmCZjJMxbDVZ/2AMGBc+/pB2ytfUyvetyhxH8UPPqk63y6Px1rOPZ41l/wq22WbPu6rCdpe7WPdyDwn9ffCn3fwnlD8vjesGoI2ABy8PQ7aNR/YtR/q48kP9lX6o9x4qx3YJvm8LD2/eQ4DAPbd/gbtsMJU+KflmhoAAABgBXv/y5AAAADANhC0AQAAgBkQtAEAAIAZELQBAACAGRC0AQAAgBkQtAEAAIAZELQBAACAGRC0AQAAgBkcQNC+233wyLPuD+eedR+dsPqjZV2Ury944mb3xWc3uo+fMPriuR45cucHfdvynLt09UN35epVd+FBq39b4nVF1vWdcRfekTUfukvndM2GhO/7Te6K1QcAAA4KQbvz+ukpg+8t7vPPbnBfXL7V6PM2GLQfvOTeqgqeGwra597uBeKFdy65k4P6LkC/+pxq7zv7amr81Oqu58q1G5zbsbA97fMbAADUYOtI8HX30bor2Au3uo8/aYLWtVuMvmgXg/aGhKBdGebDtZdq2x8QNnP/6oJ23XNgswjaAABsHkHbu+PI/W6ioH3x8o0Vq5kE7aqgXVO70ftXG7QbYQvJDe7zl42+LSBoAwCweXsctJdbRlo/cB/cYdU1Jgva7UpmesvIUj74DPccv/XimYq6t93Zru/ki1dFu7asG+6Bln2t1NaM9hwqCOutITqUbiNol66pE+7nok6ctztHbw4hde6wheSTm91Fo6/oxHeb5+x33ev6eXz666o29zxv/6Vm2df3u1N39+dQcw+eozXXtKjpn3t5Lum0e+n96+769V+5l450HwAAx99hrGiHD38dtHVAUVZZ/RuxipkL2mdftcNrP9B1AbkXgJs2HSJHrPi2wXkYtO3zD1d3h+ONFeBieNbBXwlzDX8Q6RGPSdU1LeZTda/qHy6ssRkv37T6Xu3wnG2fi4uQOviBsA2zvRBrPtdLP9iNCdqFa1rULK/h/KkfmNdE0AYA7LsDDtrCVCvaI4JVCDGD1cmUNnzKVe129dUIxdoUQdsKmIN522scnCcEazGnXl2OrPBaDOWN7P2ruyZzZd40Mmivs32kC6z952Q/WIcAOwjPbWjWK8hTBu3cNZmvtQm3ZgEAcJwQtL2JgkDd/uxWNmgntiosg/aIwDdJ0B72hWO5mp645pYIsTXhOVo3aFdeU/1fLdl00M48ZxvhOdQ8b02l0NwzJmjnr4mgDQDAEkHb26UV7RgOe2FOr2hvPmj3V4fb8/f2jdeeZwtBu3RN8wbt1N9SL6gN2snw3EfQBgBg8wja3lRBYIq/NGGGy8TWkZpwOFnQ7s7pQ2aYU9cNr9G0yaBdeU2l+700MmivvUc7H2rbvc/+Fw/tfomgDQDA5hG0vcmCQO3fT45/kcEISYPg2IZFv93BWkEerHwPQmA3viIcFgNnCL5vuwu+zpivHV8I9RsN2pXXFB+j3g8uTage/DLkiL3xjfX/6kgh1MbnUcWqdvoXEls6VIdjPffkQTv+MuR194undR8AAMffHgftGGYNesvGhCtu7T7t0naBTNBuxHAYXTpnbNUIliG8lQiAMZRbdYO+peH5uhXdTPjV1x7IUB7Cs+r3rNX5CYK2V7ymIN63KHVeXZc497r/ulEVtD3reW6PW4TnTv8XJvvz+L7BL1tOHrS/4p56ow3a1994dtAHAMBxdxgr2hu1e/8rIDaN50C1o5fd+wRtAMCeImjPoVvNJGgdprBlZNW92QemXdHm72gDAPYTQXsu6/zFCRxf4ftOyC755ku/areMXH/TPWX0AwCwDwjaAAAAwAwI2gAAAMAMCNoAAADADAjaAAAAwAwI2gAAAMAMCNoAAADADAjaAAAAwAwI2gAAAMAMCNoAAADADAjaAAAAwAwI2gAAAMAMCNoAAADADAjaAAAAwAwI2gAAAMAMCNoAAADADAjaAAAAwAwI2gAAAMAMCNoAAADADAjaAAAAwAwI2gAAAMAMCNoAAADADAjaAAAAwAwI2gAAAMAMCNoAAADADAjaAAAAwAwI2gAAAMAMCNoAAADADAjaAAAAwAwI2jM4+9QFs32MKeY4JKnHa8rHcdvfk114TvC83F3rfG/82BJr3KZs+/yrmPuaj+NjAhwigvYM5Bugv50ix2i6X4/VZO0hSj0GUz42cq74uKfIcVMZM6++Hos1riSO03NJegw2Z9XHvzRu29/X4/C80tdYOtZ8f45Vr9sA7B6C9gzkG2DqzbD0Jqn7c/WluQ7Bqo/zGDVzzfm9WGVuPSYe+68WWavJ/lRtaQ5MI36/xrLm8nJ9Xql/TvHc27yGWvIaU7dLcuNWnRPA9hxY0D7ljpo3p6N7rL6opiav5s2w9Cap+3P1pbkOwaqP8+33PxNqHr7/hLvljtPu4eb22cdOu9uNWmsu3xbbS+fqz3/C3feYH/uMu+8Oo9ZQnN+gx8jjXJ9m1abIupz2sX/c3WX0IW/M4xzlxsjvX4o1bm76vNu6jlWseq1yXO7+b/SxuOfxcD5PfjbyGp5Lm0PiY25/TsTPkKV1csvqxHUkPjsP3UEF7fCmUHgi1NRY5JM9SrVHeo5Ufapd0vMEXbDbzotvHd0L96FTRp8t9RgkH5uo+wBpH6PuzU19/+NjLPXm6Gp021A3f3e/7nrIz2UHbX2+HD1WytXL29ax1R5v19SWbPdD2v5et9fU/eAl2nfJmMc4Ko1Zt38OqXNmryX+MKveO9rX2jzvhX7esax5Itmva3N9s8l8jhC051D3+Ree0xsJtrWfx+M/tw/FAQXt9kmQ/wCtqSmreTMsvUnq/tKxiaBdfpysoJ04r5zL3y6RY1tW0LY/pKzxtW2S7pfHub6UWOO/pugxKTsRtHs/6HTPu6Z9l4O2NuYxTynNMcU5xlj5emLQ7j2v4vd6M++F8dr01xxfUxLr5Jh4e065xSeC9gzCc7j0L53tc3ozn+0jPo/D5ynPB+1wgnbNE2CCJ4l8U4zHsr/UHun+0rGJoF1+nHpBO39eOZeet3Tc6gft3IeUNb62TcpdV67PUuofa6sf0uG18bi7r7mGRaj2bc33xv8AtE9Bu+b75mtKrHFzsM5V2xZez00ovK/5Hi7e95q2h+8/FV7bc78XymtK3S7JjVt1znUcctDe3KqxED6TCkF7o5/tBO11HUzQDi+YwhOlpqbEv/lF+ljTY6XYL7+WxLHtm59dM3wRLFd7ov6Lt32RheDRhdLW8I2gXaEd6oWW7g1i0S/fxHSfkntT8f1j2seS1xGPdX/ueCxrfG2b5Ps12adr5bFkjc2RYxfM769+PnZv6ot+9TwLc/g2VWe8boevAzFXmKc5t//aPQf989c/x4bvA4XXyIhrmoM/V6o91Telxf1dgTWPbJN9qfZeXxe0b/dfw+PvvyfL7418Lxo8P1SgWjwPCu97ke8fc2wZMyY/X3zOrh96xgXt5Wul/8Nq7nXd9RnnGM6/adM9joP3v8RjOlnQ7j1vG4n3o/7ntjivvl7FPHc45za/X7vpMIJ2zZOypqbAP/n013hbtqeOpXXGLhTvk3+D678o2jc2400wXM+yNrw4xRtF+2IVc3Xn7r3ZGm8gep5Wd84RQcV6PGJb1WNV0N7/5Xw19BxjWONr2yTdnzrOzVNT42X7uzd9+VxMfUhnnzPizX9RV/lc6wlj/Ln9c83X+XO317IIWKG24jVSe00zkY+7vx3JGousHcuab07V5/Tf9/B+0n0//fchHLfvKYvvR1PX/950gUq85ywDyPL7P3ifa4x5TEp1ut+qj235uaYLiOH5ngiF/ddwd85BbduefX2ar1f1Pdua7vOouQ8r5wPj/vU/++L3KyE8L5fXYRKP+/C9tRvb+0yN86m6h/T3zxqbEO7n+s+5fXMQQTv3RhHV1JT4J7v8Wntb8u2Rbs8dm7oP+1FvDoMx3YtMPTb9F3LmRbxoa48Hb5rhfPYbbNULuxEfi9RjVPVYZVjzpM6VOh7LGl/bJpWuKx6n5pHtsrZGHJf6fuoPA/s1qJ43iQCrf2DTcw+IDwRf+/BDTfDqrq8ftA36NVJ5TXOxH/P1TDnXFGqvRz6H/ON/5L+v4fuSeP8R9PcrHOvn0OD9MW3sY5iqt9o39/3JP26L11n3uFivm6rXtfGDjh2+t6e9r/nnkC3xGIbHzLh/Nfc7+zxsH8tBnwrB7f2peXzb66/7PDZ+qMIhBO2ab/z6Tw75xpe6HY91m8UaF79aZO1CzYdCePEN51uOqXuRDT6UBufu3kgT+tc45oXdf6ys27JtFdY8es7S8Vh+fC1rfCT7rXH6a06pJt1vv/EvPqS74/Y5lBCfC4nntJ6r/3xLfZjF+v716cBVfI1UX9M8/LVY7WPoOaaYc0q11xMe8/i9C9+X+L3X7yndcTNvjw7ag4DY/6wYjB9hOWf+/uX65hMfn3wQa5/j3X0aPFatqtd1w3w/qPwM6LO+t8P70bv2TjEDxPeCxH21jfnsa4RzFAJw7rO967POJee1n9+WcZ/HXvyem9d3gPY/aPc+UBNqakbwTzDrtnWckhpnjU/OmXsxet2bRu/NZTCm7kVWftPqf0DljXth+3Pp27LNOl6FPk+JHDuWNb62LbZrsd2q1W0WWTdunn6QjcwP1tIbf+I5HeYyx/Y/dBfjMq/53lw1r5GR1xSvRbato2auUo3uj9eoyZpNqj13+nkgg1t8TvS///r5Zz8f7eeyFq937GMWH+ca1vjp5d+LF6/h7jVg1VW9rr3e68g/zoWwuWHtfa39DJPGfPY1wnvO+kG79Byt/r6M+TyuPPeh2fugvXxztfu9mpox5Jug9YZY8yapa+LxqPkKT/rFm6RsH4ypeZHVfPiMeLGOqE3d99Tjtw45R2n+Kc6njZ3Tqq9ts+i60vGS/UETXnfi+Wc+H7XEc7r8Gu4/p3KBTPZVvUZGXpN/nGof8xo1c5VqdP+U1zeF2uvJPQ+WfZnno3hO6OMgfK/zIWjqx3Lb34viayW+PqwfSnVNweJ75OdKfB+3IVxXc9/yn3EpYz77GusG7cpgX/99GXH94drrvteHZL+DdsWbYlXNSPKNMd7Wb5b6WLPm0Ldzba32BZd8gegXdPfi9fMtX8A1L7K6F3bqjdjSvrGVX7BjHo/041RHjtdzlY6nMMWcqeusmbtUk+vX38/4wdX/HnfP18SHemB8wLQfGKXXcP85WgwPsa/mNbLCNdU83rVq5srVxD5ZM+X1TaH2ehZBLds3fE9bPB/FcyK09Z4jhffTRuo613k8VxvbXesEoaf4WhHnaI/1e3zF6zrqPiM8O0Ru2kSP44jPvsF7jsV4z5Hi9yH/GFrfl+a1MfhlyPj6qHgMwrWv/5zbN3sdtHNvEFFNzVj+CS5vy2PJ6ovHsl3ftsT+AREMWv0XweIDJvAv7vbFt3yBVv40K94ge/Rja9WZj393XlGn3zR8mzxOtUW5vhpyvJ4rHuuvU5piTjmHnq80f6o/tufH97+f4QPHfFOOH2ySHXSXhm/s/ed1S37I5V737YfUcs7ia6TymiLfb7Wvo39uW2qcdZyq35ba6wnfq1zQjt9z/T1rxujnROk5JMV+qy/K1cS+VVjzbStoe4vHrfd9KLyuF7r3icT5Nq33nFlX7WdfqFsvaHvt90adb/Da0J+zqfOWP48D8z0dexy02xd2/ifImprx/JPQul0rN96ab5VzTCr1ou/ap358vVUfh3UeKzk2N88658iZYt44R2quVe/XFNdWpeIDZuN28Zoq5J4DJda4OW3jnDUha5XHY1uP4apyQXt6baCb4zMDG0DQNu1v0K75hvOkmEZ4HI2gkWoHVkXQxoZMupp5nG3wfZzH/Hjj+2fb+1+GxGaY/0xV+ucvYCyCNjaE0LAk39+nf56LbSU83seQ3FbCwqWFoA0AAADMgKANAAAAzICgDQAAAMyAoA0AAADMgKANAAAAzICgDQAAAMyAoA0AAADMgKANAAAAzGCPg/bj7qu//Mh955+j37ivfsuq27IHL7m3rn7oLp0z+rCmn7p7L//Jfe+Vd42+ObzrHvj1n9yZ539q9B2qW93Hn9zgvrh8q9G3r9r7/PnLVh8A4JAcxor2D99bP2hPMYdly0H77KsfuitXr7oLD4r27pquvHPJnRS1x88xD9oPfOjONPM98ITRty2Pfttd/O2P3PkXjD7DlWs3OPfJze6i0Reee8fwOVZ13S/f5NxnhG0AOHQE7Vp7HbQ/dG+9eGbRdvLFq6GNoD0WQVu6ePnGJmze5K4Yfd5eB+1G6f4DAPYfQbvWXgbtM+7CO825X2yuYREcfNvb7uy5twnaoxG0F5642X1RWNHd96Adt5C4a7cYfQCAQ0DQbnzlNbmX+yN37w/TfT2/fN19WcxTpw23YcVY0EE7rjTb/e0cfhV6sfocNAFZzBH4wCzm8ZZzdUH7nP/abR/x9a8+142T8w2vW66Cj7qmjWmDtg++tz3/R/e9JrS2PnV3iro7X2naLn/obhNtbX2/LnjiUzGPDtXDoL08r5pLzSN/GOhfq2ZcU9FJd74Jx68NPOm+/6ioe+HRfv97Jxd9d//8yX5fz6PuKM7RCau55paR59wl8RzS+s8p8a8rkQ64i+epen7657CoG8xj1unnuNxSNe66F8IWkhvdx6kflp5+012/ft1df+NZux8AcKwdeNDufmHytR8v2771uvtGE6Jl2A4mWdHuPqzlh/tgRbv7sK+p8XP1VqLlsTVOa8f4fh9EfFjwAT/Uq6B99lW1j7sL8KOvaaO6FW0fUBdBdrjKXRu0YwCWK8y3Pf+pu/eBeNwP2lb9sl3OnVh5n2RFuwvZg9DcD9ltmwzMX3Pfv9YfF1StaNet5BZXhpvnWD/AGq+f7nnYC7vqed+GbCM090J229Y7X5hbPe8b41bib3Gf51b2CdoAsNcOO2iH9vfcV2RbI6xiy/DtTRC02w98tcKrw3D4cB+uAocP90UwSARYHQwSQWGpDRfh3P463nnbXfLbRnxf4jr02GUwqbymCudP/cD94dyzttNfN8fYEgE2rCYvg25V0O5Cb35byDJohzl//UcRwvs1g/CsrimYImhbwXjQ1obxXo0XVrjVanVV0C6Ey864wNoajAnPL/kDn9d/blrn0W3htTm4lvY53Q/7Y6+b7SMAcMgOOmh/+Se/adrFVhBJbwuZIGiHD+jeKlrDXH1r6iyLD/cu1BbmWtR14/thxBNBuznuXV8IMCIgd3P3rqcxCNrFa9qk3ErxMgRXBe0QhK3gLLUhOm7zMANyF55jTZ+af9YVbRGgu/BsbwtR20tqgnbF/myvHFj7z98FOUY/Tw2pFW0ZoMO16PNE6jlN0AYA1CJoGyvapo0G7dxKspcLtXbokEFiGTD6QbtHzhVDdu98iRXtEdc0v9yK9nxBO7uiPSY8TxK0uy0g64bnaGMr2jFk918LgzEVQTuuevesEZ7H1MagfVh/RxwAELF1pDY8TxW09Qd0FwIWYbcmOKRCbRibD+m9a8iFYNlnXlNl0K64Jm3urSM6RI/ZOpIPvXKPdnduvR2kVyPbDVMEbWv7x0C76n3x518z+pSqoD3FHu3hqrM3GFN8vbTPSz2PVvcDbmtc0K77oQMAsJ/4Zcjwv0dWrGp3vyT5jZ88bvfXCKFAh+rmQ1u2JVby+oxQ26065wOFGlcbtLu5l9fYhiB/3dmgXXVNczKCdhdeZdDVobo9HoZka5U698uQy60k/Xni/OUA3Y3XK/Ja9zibgTMEbbWCbYh/VSQfoL3hVhRLzd+QHm7pkIbPpxBw/f1cIWgPfgAc6J7TFQE6f91K7V8def9l902rHwBwrO1x0P6xu1fvu456v+io/6v21uCvjnghsIu6Ff68X/shLQND+wHf377RhYNY1xmG8VR/q3euaBCEE4FBhWs9V/snAY2gLWraOjHnFrThuG8YcOPqc8cHW+uXExvLEN7qr0wbq9VdsB8G9P48gRWoF+Oj4TUtf2Czv5dH7+mtIy29gm3+CT8rUA/2dBsr5t0+7dKWiUV47vR+KFv8ANFpnrvheTgqaDf0PAv6h9nlD5BL9tzZ616oWNk/etm974P29V+5l46MfgDAsXYYK9p7p3aVbpN28Zow/LN9sr280r2O3fifEe0tKItQPePztfb+P/UGQRsA9hVB+1giaKNOu5o9DNqp9ml1K7rbDNvdavYgaKfapxK2jFTszY4r2vwdbQDYSwTtY4mgjVrWXx1pXPu2u9usn9oO/NUN8bsQ0nzbmtr7nA/Zz7pfhC0j1937L502+gEA+4CgDQAAAMyAoA0AAADMgKANAAAAzICgDQAAAMyAoA0AAADMgKA9g7NPXTDb98WU92/fH6tDt+r3d+7nxa48747L8790nbX347jc322a6rG26LF8P4D5EbRnMNWbl5+nxBoXWfUl1jxabV2NKefCePJ7L+X65fiSsfVSzdhV51/nuqa0K9dRI3ettffjON3fbVr1sfZ9Fl1j3QYwD4L2DKZ688q9QVrHY9SO9XWrsuaTamqwGfJ7kbptHees8v31Y1Ksfj3eqol1Vnuk59iEeN5tnX+s1HWOuf7jcl+3bZ3HWtZY9bGtZi4A6zuwoH3KHTVvLkf3WH1RTU1e6g3Mt2tWXaT7S8djrDp2nXGrsuaTbr//mabucXeX0Yc68nGuuV1jbH2NVea0xqxzv6agz7mNa9gGfz9rWeNRJh87Hkdg+w4qaIdA9thpd7vRF9XUWOQHhCZr9Bh5rMk5UqxxJauO89YZK001j7fdoN3+YKafM+01XXAP339C1O4u+f2ouV2ia6caO2YeL9b7rzX0+DmkzpM9/x2n3cP+Gh861Wu/66H2utdZGMiJj8sY1jxRqb8k3N8V3p+37p7Hm/v+jLvvDqNP0I9ljjXeS9XpdkmOBzCtAwraJ9x9j5WCT01Nnn7Tkse5PkupvjQ+ZYpx/naKHJNi1dWO1XYiaPc+RNvnkb8/ux604/dMk/3yaw2rdsx4L3XeVefJtY+dcx2lcyX7Y9DuPc/jc2++oC2lrq328auty9n3oG0Z+7jJ+nW/ZwDWdzhBO7zRFcJYTU2BfgPLvemV3uxK9aXxFj8mjhs7vlRfO1+qbuz1RFsN2iEAPe7ua65hEap920OnQig4tBVtq6ZmnOfrcnI1eq5Yq49TZN1crPPUtoX3piZg3tc8pxahuml7+P5T4Yc6gvaOI2gDB+tggnZ4g1b/7KrV1JToN7Dcm17pzc73l1jjUmK9HFc7R+l8U8xTO8dydU/SQXu5qtxSH3JhDt+m6ozvf9wGYs7VBe27/NcuAPjnkQ8+w+fTcgUy6gWkEdc0NX+eMbctqf7SuBRrXO31+D7J6tdtmp5jDGse2Sb7Uu29vi5o3+6/hueDf44snyu9H+hCqJPXo14bod+39Z+PpR8Kfc2Ydi2ep0Z/7PB1I+nrHrxedTBf3P/C68x8n/H6j2d4nYt++ZrWfT2VPzD4Wqs9RZ8nVWO1A5jeYQTt7g0zu+pTU1NgvXnJNt1ferMr1ZfGS7J27DyxP1VXGh/pefzXEjk+6EKE/D4NV7TbD+Zh+NABuT3Hoq5ry47Twpj4oe3r/Lnba+kHbd/f/4Bur3uFa5pQfJw12a/r5fGq7TWssbKtdu5Y57+m6DGbUn1u/zwMwax7fvnnRThWQdu39wJjFyZlqOteQ97idWS8rrTUtVbfh0q5+cJrKhdQm/vRf610IV0+JuL+69fZ4v4br7s2NMvXcPfYyrn1PFE4Z/p9JF7PKqy59G1ZnxLHAJjWQQTtEGgKqwc1NTXkG5Z+8yodl6z6Zlhz3tTcsj3e9l9rxHFyrL4tpdqXjA+2hg7a9vfSCCTN+fofysMPcj33QPgAbft97cMPNR/03fX1g7ah4sPdK4aLCaS+P/p7Uv4eLY2pjfyYlNgva+PtHKuuduzcaq9DPqf98+HIP8/C80Q9rw2D57AZqoevLV+zquW84+XGr/JaGIwx77/64dwKxrpNvPYXNQ3zdW/NV2ns4ynrU2PHzglgdQcQtI3VzYGamnrxTUy/mZWOY9uq9Fxxvpq2XHu06jht9Xna75NeLdJBInzQNXWm+AGYWHkaButuRSwwPih7H7b960t9wGuLa6i+pun56yjdto5TrLrasVFpjtx8pbrc2E2qvQ4ZtNvnSXwuDgOy/fwXz59E6Bs8X5XUtabaV5Wbr3SNi8djcb87g9dhIfQaP/Tqc7evS3WeSF/jikHbzyW/1pC18Xqs/jFzAljd/gftXhBKqKkZyXoTS73hleg3xrHj1m2PVh2nrT7PiKCd/TBu5EKtObb/Ab4Yl3nu9OYKdeqHOX0NI68pXotsW4WeQx7Lc9SeK1dXM4c+nxyTum3x/XKOEj1+E2rPm35eds/3LmiH2yrQ6ddHKvTJeSypay3dh/j4lsh6OV7Kv7bja7T/ehyMSdz/PvkDdtSfd/C45lSdcyg+FrnHROtf83BcbLP6AExv74N26cPDq6kZI/VGVjq2yJrUbUuuv+a8ltS4sfOtPk/74af/5SF8/8QHXtUHYCLUlp8L/RXEXACSfeY1VQbt1DX5x2vsY2/Rc8jjeLv2PDV1uRrr3PJ2qj8lVVMzdhNqryP3vFz2DVe3vcFzzwx97djUv+rlrnPqxzI3X7ivyaCdeX8YGbRzr+uFMeF5haCtH4eax9nXyLrSHDVzAljPfgftEFwKb241NSPk3sj8bU3WSla/dZybI2WVMV5q3Nj51pknfGiK0NAe99sWq1G5D0oj1LaBpPRc6H+Y5z6Qe336g7Y7v7/2XNAuXdPYx16T4+Ntq62Grx3DGr/OsRb7/dexYzel9jqWYTrfp0Nl+/zx9z8ftPXrSstd59SPZW6+/Oth+IPG4v1BvkZrg3bm8WjZK+im7rWd+kFGSz0GYx9rXV86BjC9vQ7avaCTUFNTy3rTkm01b3K+zWqPfan2VJ9lTK2kx8XjsfP5+jH64+OHWyt8cIUPTv1hZ/3Trx10l4YfmIsPakF+WOaeP/rDuj+Xv5b2GnXQlufKfYj7fqu9ljVet409R219ri72la6lZg7dVqLHzK32nOG5kwvai+eget77dv36CMeiJtbFfsX3W+1Rqb9GnKNmLv2a7IVX/RpqHrPBa7QiaOv3Gan/L052Xb+mox934zGPfbJNq6mJZF1qTO1cAFazx0G7v/Joq6mps4k3q6nOseo81rhV5trEY1VkrB5v3Q5e07a+V/q8Y557O/H8qrSVa60Kmq2a65vqPuzS963/w4tqz/zwuyp/38fe/5oxsb+2DsD09jdo61UcS00N9hNBG4dqRNA+TN0q9SBop9oBIG3vfxkSMBG0cagI2hWsrWeNxPYdAEghaAMAAAAzIGgDAAAAMyBoAwAAADMgaAMAAAAzIGgDAAAAMyBoAwAAADMgaAMAAAAzOICgfbf74JFn3R/OPes+OmH1R8u6KF9f8MTN7ovPbnQfP2H0xXM9cuTOD/osz7lLVz90b714xujbUy/f5NwnN7uLVt+q/Jyf3RB8/rLRDwAAMCGCduf102OCb8kt7vMmzH1x+VajzzteQfvki1fdleb8l87J9vaarlx9250VtdO51X38SROKpwrb4QcfAjYAANgcto4EX3cfrbuCvdAFxGu3GH3R8QzaV159btl+7u22bbag7ZV+YKl38fKN06+QAwAAZBC0vTuO3O8mCtoh0H12k7ti9C0dr6B99lV/7kvNNSxD9dlXr7oL5y65t2YN2o2w3SO1BaceQRsAAGzaHgft5ZaR1g/cB3dYdY3Jgna7ml2zAlvaquLDbbtivDQI2otV5Y5ccW6EOXxbr64JyA+KOYK4DUQQc7VB+0z4GraPPNgE7HcuuZP+q5pvsfod+bquL85Vd01Rzb8QlBG0AQDAph3GivaJ7xpBWwdxZZX92iP2AaeD9hl34R0dUIcr2m2glavJ3TgVkNsgK1ei+8fWOC0G7RCOmzp/7nCsg3bT3/9hoAvwo6+pb4qQTNAGAACbdsBBW5hqRTtscyhtG2mFoH3668O+sNKrV3h10G6P+7+c2AhjCwE2hGM5dhji+9og3vb72rfdJb9txF+fsaKthWsQPzTUXZOy9vaR+n9pAAAAmApB25soaNftz26lgnZYqVbbLQZhuAumy60X0jL46pBrztXobfcYrGzLoK2ubxCQu9XxOFekg3bFNfWsHLS7bScT7PEGAAAYi6Dt7dCK9pignVwB7uRCrTlW7ptejOsH7T45VwzZ/dVqc0V7zDV5Ix5X2zT7vAEAAMYgaHtTBe0J/lZzu7psb61Yht3CCnDHDLVhrvx2j/72lVwIln32NVUF7cI1sUcbAAAcRwRtb+K/OlJeOW3/bvcfzn3Xva77dKjujv0qswyxcbtHchW4MQy1bRjO/eKj1w/7tUG7W9G2fvExG7RL18RfHQEAAMfTHgftGGYNesvGZEE77tMu7QnOBG1PbuEIgdfevhHDdo/5Fz6WBqvgIsgvyRX1ctC2figImmvRW2Gqrkla+xchWwRtAACwaYexor1Ru7MfeLh6vH3jron/GRIAABxfBO05dHu1tx22j3fQ7n5gmSoch5Xx9fbPAwAAjEHQnksI29v9s3LHOmj7YDzxCnS7racJ7wRuAACwAQRtAAAAYAYEbQAAAGAGBG0AAABgBgRtAAAAYAZ7GbQJ7AAAANg2gjYAAAAwA4I2AAAAMAOCNgAAADADgnbRT929l//kvvfKu0bfHN51D/z6T+7M8z81+g7VD927f/d79z/u/6HRh7H+8gXn/uyFD8w+aRf/wyPssfC/t97krqj2K9ducF9cvrXXNvC3/+H+7GefuL+y+qK/fs/9j6evuX+w+gBgJgTtomMetB/40J1p5ntgi/9D5cCj33YXf/sjd/4Fo8/wDw/93v37373nzhp9xzYMnnvbXbl61V140Oib0V89+Z/uz976D/eXRp+2zcf25ItXm8fnQ3fpnGx/zl1q2q5cfdt8LmAdJ9355jX52rVvu7tF+90/f9K91rRf/PnXRO0Mwv+km/gfW7u+fNj+mbv5Z80PkIWwHd5LCNsANoigXUTQntyIoH32/n/NfjAStEfwq35v/ae7+V6jz7ALQfvKq88t28NjRtCeRxe0f/uk+/6jse1r7vvXfNvcQfsW93kpSIfV7hvdx9n3sQ/cX7zl3J8/+TOjL2r/dezfH/pHow8ApkfQLiJoT642aId/6v29+5e/Mfo6BO1aNSGkb5uPrT/3Wy9ecpdEqD77avN4nbvk3iJoTy+8Jh913//5k8tQ7dveO+mO3ps3aPutIe6Tm91Fo0+qqqv5YbLifQUApkLQLmqDtg++tz3/R/e9JrS2PnV3iro7X2naLn/obhNtbX2/LnjiUzGPDtXDoL08r5pLzSN/GOhfq2ZcU9FydWtB/TNz8MKj/Zrmgzr2xX+Gtj3qjuQ8jbCabW4ZiVsIbG+9eKZXv1gdjXR4DKHXh7cz7sI7ok6upnoP+pAn+hf6wS8EVNEvtz/ovp45Q20IIIUtI4sV48w16ccg+Vj2v0f6e2J+D8Xj3QbtM+FrePz8ef25wvn7P6CUvr/hMfdz9+7f5rftSK+fftb94fTX3S0nvuv+cK65HfzAfXCHrr3bffBI7Nc1X3cfNW0fnZD1UTvud6fuNvoMXdA+8l+717UP2OebH4b9V/k6Xq5+L/m6/lx+ZVy9Z/TmiNrVbHPLiJbbXrLQbSEp/A5Cbjua982XfuWuX7/u3n/ptNkPALUI2kXdirYPqIsgO1zlrg3aMQDLFebbnv/U3ftAPO4Hbat+2S7nTqy8T7SiHT5srWAttEFaBubug1Z/wIYP4tKKdt0/8YYQlQuoTbjqh7wu4JlbEkQg7ALlIiR3x3KuNjTLkN0FdTm3nicK59xc2Au/AJnZv9qG1f71DB5b45rtmvaxXNznrm35GBiPk+LnDY+1H9vU+esLxzpoN/2l72/7ffKW36vh926zQtD2wfmRI3c+tHWBenHstUG6F5ZDMI9h2+hfyIVwQwza4TXrQ7IP0+1ruR+0fX//h+L2dS+2nHSvbx+ue6vj8jiq2hIS3eo+/qT8i5Hh9xBKvxj5N9eyW9II2gCmQtAuSgTYsJq8DLpVQbsLvfltIcugHeb89R9FCO/XDMKzuqZgkqCdCMw97SrXeR2ewwp3/4O5Lmj/o/uXin/eHQS9Cqlw2A/DbWBbhLhQo4KxbgvHw/AWzqdDpTXfbNpVvvS2EXVfO/3HqQ3HusYKvsPHUgdr+3xL8ly+9m13yW8b8efQ5zPo72841t+X1A9AOb3VZ6UXkMtC0FZjzp/6QTPXd93r8ngwr1yp7q9a9+rvOHK/M1fIE8Tr1Afni+89GraN+L7hiraiX8+JUG39sH7x8o1V20Yito8AOG4I2kW5leJlCK4K2iEIW8FZakN03OZhBuQuPMeaPjX/RCvavS0h1sq2WMUakr9gtaxdfDBbKj8IB6F5oAt5TajqGQTtQujtgpkMh/rcgy0Mkr7GjQbtwv7sRHjt379upTihv3pdmks9VoOV7X6oD7Vx7CAgl7+/9nOkFPbnVRO0F6veFr/tJNaE23GLSReuQ9BezlXU+4G4/0PzICDr7WGdxes58foe/otX/f7siKAN4LghaBflVrTnC9rZFe0x4XmqoB31ArX40KwJz1FV7RQr2jGE9VczB2PO1YReK2j2523DY+V2hKpzTqWwoj0iaBeDaeJ+hbkGgboR6rvHc3GuftDua6+jDdp131/7OSLn2bzqoD1Y0e5brmJ/3X3UfH29OQ4r3GH1fdWg3RcCcgzaXcjurVbr13MuaE+xon3tFrNvoeb3EULQ/lf37l8bfQAwIYJ2kR20dYges3UkH3rlHu3u3Ho7SK9GthumDtrR4MO0XQWr+usEVUF7ij3adjgcjAlhLx96e6uqKRXzLIypnUB2j7a5jaILsYv73B1bYVky71cuOHd643IhWPbVfX/N50jih4usbWwdKYVlf01+nuZrCNh+JbsL3GOuyQrBVp+1Kl0btM0tKDu6RxsApkLQLjKCdhdeZdDVobo9HoZka5U698uQy60k/Xni/OUA3Y3XK/JaF7aqw19Y2epvCWk/hEsB2uv+akF2z3cTkAp/Q9trV5FT1zwMhyF0+fu5StAurlbbK6ym7vEurRC35+3fh5Vk/zk9EarNx2lMYG61j3n+Mek/vrVBu+77Owza7RxrP6ZrqAna8Rcas4G524v9u0fifuxu33ZzHLeX1KgN2oPXfReqS1tH2vcGtYUsqPgb2tEW/urI9TeeNfsBoBZBu0IbjvuGATeuPnd8sLV+ObGxDOGt/sq0sVrdBfthQO/PE1iBejE+Gl5TDFF24OyCcY/1obkM2z1WoBYf0C3jn627fZSl/3p9Ea46vSC4+AGi04Srweq0EQ6HRPhUzJXgbE1n8Zh3emFQ15Sur6Tdp50OIF347PjrHTxOnr5mb/BYZvo9/T0JZBAvB+3F97ji+6ufH17pB5y51QVtrwvbPcM/8SfnaudJ/TUSWzFoi9dnWJlevG79+4D6RejBa9uzt6V4YTuI8V+vaxvdn/30m23Qvv6me8rqB4BKBG3stJpV7U0YroqK9poV7JXF4D7BOWpCyLpC0F73h4Jppb53mEli60jaLv7PkKfdS+8TtAGsj6CNHdd9MG41bHdhdxDWUu0T6laIp1qBDXu15wzbBG2MDtqNEKQTYbvbMpLfXtJtGSnszQ5bRmreS7oVbf6ONoB1EbRxDLRhu7SFZF79rRULs+3zXZ7P3kKxuhC2C3tYV0bQxipB2wthe7iFxG8ZKe7h9v9aU/oFyLBlpBCyj15274ctI9fdL542+gFgJII2AAAAMAOCNgAAADADgjYAAAAwA4I2AAAAMAOCNgAAADADgjYAAAAwA4I2AAAAMAOCNgAAADADgvY+e+JT971f/2nplXftuonc/fMn3Wu//dHCxZ9/zaybS/hf33r/tXL3PzfO9p/KaO1/MjPV/+K4UY98x/3bfz/v/uc/fcdd+NLX3D/9U3P7vz/t/umRZc0b/zX2i3GzOeU+bq7n3/7L5p5D4f415/z475vjv38s3P6f//VUv67mPz0BAKBD0D4IP3X3Xp4/aC+ddOc3HLTP3v+vxn+tfMyD9oOX3Fsz/M+QtjbYxmDZhs49CtrdDxIhRFv9jQv/5enlfY4/eOig3aj+b7wBAAePoH0Q9jxo/821Jvj8q3v3r3UfQbueFbQfc2+ImkMM2vb5f+je/Tv9rycAAAwRtA/CPgftf3T/8vTv3f+4/4dGH0G7Xj9ot6HzgIN26fxhC8nv3b/8jdEHAECHoF2tC6uLPc+fujt1jd4TfflDd9ug34971z0g6s48/9P+PINzNfRcjdue/2O/JhmkS0Fbn++P7t4HrLpahaD9wqO9vdyvXfu2u1vXPPptd1HWLDzqjmRdWM1O/TN+G7R98D354lV3pQmtrbfdWVF39tWm7Z1L7qRoa+v7dcG5t8U8OlQPg/byvGouNY/8YaB/rZpxTRsSgrYP4nH/ctDfXtL2qbZUyO3No0PtMOi2QdjX9n8A0PPI7R7LMRY1z0hhC8nfvZf8fnzzpV+569evu/dfOm32AwD2H0G7SheMe2G3aRPBtQ29MqDG8CoC+SKIL+uG477i7nxFn2so1PTCvnWNUS5ot+N6YT9c5zphOx2021+YfNJ9/9HY9jX3/WsqQHchW44/es8I2Y182OlWtH1AXQTZ4Sp3bdCOAViuMJ988W134cF43A/aVv2yXc6dWHnf6Ip2WbudpCFWtQer3JVBOwbgfttjYlw/aFv1y3YZmLtf5NR7qytWtEfL/pBH0AYAELSrDEOtZoRV74EP3Zmm/YEnumMrwOqa4upzYzCmkwzI6TlD0B+E87Z+uNJeKxW0E+1dsD7/QnccVrxlGE+0dXtl7W0jXiLAhtXkZdCtCtpd6M1vC1kG7TDn1asihPdrBuFZXVOwi0Fbbx0JAVYE65qg3R3nt4Usg3Yb8NWcomYQnsM1qNXqOYI220cAAAUE7aLa4JsOuIvAWhW0G4uV74a1Qh36reDfBv5BAM/ch/aHiITcfc7KBWodlr12VXtRn1rRHmwxye3P9nIrxcsQXBW0QxC2grPUhui4zcMMyF14jjV9av7jELR12K0J2lbNQDtv3OZhBuRu3ljTV7iGKRC0AQAFBO2iLQRt1dcGX70FZcKgXdimMt6aQbsbn92bHayzoj1f0M6uaI8Jz8dmRXu+oJ1d0R4TnmcL2tZfuwEAoEXQrlAOo1NuHTHomtQYa/4gHbTbPeK5bTGrWG/rSNjHbf2CpOEfavZoq6CtQ/SYrSP50Cv3aHfn1ttBejWy3XAcgrYOzTVBuyr0LoP2Yt/14JcXZY1sN8wRtAt7tAEAIGjXiCvLvaDahGtx3G7BkCG3C7cyoK8atAfjurl7AbkN+/bKezpoL8ZVrWovt0bkw18qaMdfajR+GVIE6/YXJq0VbEPyb2h7RtDuwqsMujpUt8fDkGytUud+GXL5ePXnifOXA3Q3Xq/Ia919Gob6aQ2Ddre9Q/7iYSJU++0cMuRaq9S5X4ZcnEuF7dQvSQ4Z17qm/A95y1+GvP7Gs2Y/AGD/EbSrdYF0YbgKXPxze1VBW5/Hs1aph/ur9Yr64HoW9HyV51wEOjsktiHa0g/N+r9qf+29k715FuFb1nTiqvdSu0879Z+HtOG4b3jtcfW544Nt2CoyDK7LEN7qr0wbq9WLx0wH9P48gRWoxWPessL08gegqpXyFVl/Ks9aTe7X+WDchlwdhvV8/bl00G4sQrsO6MPrMgO1CP0tvUI+Qs3+7KffbIP29TfdU1Y/AGDvEbSxc+xffEz/ib/8qvZhqF8lx/pq/2fI0+6l9wnaAHDICNrYMcOtJPn2Vvhn/IMN292Kttpnjnm0z7WKvdndijZ/RxsADhdBGzvI+qsjjcEWk74QgIqrjPtlsTWmtI8b0whbRgoh++hl937YMnLd/eJpox8AcDAI2gAAAMAMCNoAAADADAjaAAAAwAwI2gAAAMAM9jJoAwAAANtG0AYAAABmQNAGAAAAZkDQBgAAAGaw10H7yrUbnPvMu8ldMfoBAACAuRzEinYI3J/c7C4afQAAAMAcDmPryBM3uy8+u9F9/ITRBwAAAMyAoA0AAADMgKANAAAAzICgDQAAAMzgMIL2l251H39yg3PXbjH6AAAAgOkdSNBuXbx8Y/hzf19cvtXsBwAAAKZyIEH7Fvc5ARsAAAAbxB5tAAAAYAYEbQAAAGAGBG0AAABgBgRtAAAAYAYHEbTbvzZyk7ti9AEAAABz2OugfeXaDeHP+TlWswEAALBhh7F1BAAAANgwgjYAAAAwA4I2AAAAMAOCNgAAADADgjYAAAAwA4I2AAAAMAOCNgAAADADgjYAAAAwA4I2AAAAMAOCNgAAADADgjYAAAAwA4I2AAAAMAOCNgAAADADgjYAAAAwA4I2AAAAMAOCNgAAADADgjYAAAAwA4I2AAAAMAOCNgAAADADgjYAAAAwA4I2AAAAMAOCNgAAADADgjYAAAAwA4I2AAAAMAOCNgAAADADgjYAAAAwA4I2AAAAMAOC9g47+9QFs32MKebYptT1H/f7tW278PjxPay3zmPlx5ZY4zZl2+dfxdzXfBwfEwA2gvZE4gfWKqz5PNmnx0hyjKb79VhN1u6C1DXt4rUeJ2Mev/jcyLHGlcRxei5Jjzlkqz4epXHbfpyPw/dZX2PpWPP9OVa9bgNwPBG0N2DVN005LjVHaW7dn6svzbUNq95v5K3y+Okx8dh/tchaTfanaktz7Kv4+I1lzeXl+rxS/5ziubd5DbXkNaZul+TGrTongN12YEH7lDtq3sCO7rH6opqacVZ906x54y3Nrftz9Vbf7fc/07Q/7u5S7Zuy6v223PVQE0geO+1uN/oOzSqPnx4jj3N9mlWbIuvS2tfsw/efMPqOn/r7vZQbIx/PFGvc3PR5t3Udq1j1WuW43P0/To8FgLyDCtohNBaCVk1Njn+DrFU7PtUe6TlS9al2Sc9D0J7IHafdw/4xfuhUrz1cU9M+5Q92Wvze1rDGR7l6eds6ttrj7ZravP0J2vX3eak0Zt3+OaTOWb6WE+6+x/rPwZVfO/c83ox/xt13h9HXkeepZc0TyX5dm+sDcHwdUNBu36DzH8Y1NXnWG2Rtm1bzxluaR/eXjjWC9kRi0O49lm1A9Pdl7qC9apuk++Vxri8l1vivKXqMbb9WtKX6xyCtNMcU5xhj9evpXi+DH1bzYTmpImhr8dr01xxfUxLr5Jh4G8DxdjhBO7ypFgJjTU2B9QZZ2yb5flmTqq+ZZ8yxRtCeiH9uNee+r7mGRahu2h6+/1T44e7Qgnapf5zDDdo1j6OvKbHGzcE6V23bKsE4a+R88ppSt0ty41adE8BuO5igHUKWWgnRampK/BtkLWt8pOvksabHSrFffi2R44dBe7kK2w82+p905QdY12eE3FKQ19dTau8JH6TymoxrWKw0J/rDHP76lvfbG4a64T9p9+by8/hj/zU8x3y9f4yMf0UZXLd6fKqvqeX7Vm2T4nkk2adr5bFkjc2RY6O45UYa3H/9OFrbdnxbr84KXv3H2ZprLv5cqfZU35QW93cF1jyyTfal2nt93fep6ofSzPfeeu4sGO9Rnu8bc2wZM6ZmPgDHw2EE7S5MZd+ga2oqWG+QtW1R7JNfZb0eq4+ldcZ6/SDcBY7Bh1HbPgyLIrTo48AImYp1fbEtd+3tdffPFz5gdfitqmkfQ7kS3Tu2xml+TOj3j1XzePrnWzhWj4Fv74W4LsCvcE2Rb1+1TdL9qePcPDU1XrrfeDyM59/wB7hunBm4lnVtW37cJsnHob3WlqyxyNqxrPnmVH/O7nvhrzPzWqv53gfhNWP9YLU05jEp1el+qz621Z4TwO47iKAd3ngzb8xeTU2N3JtnqS2y3mxrbku+PdLtuWNt8aEVV36NwGE/du2H2zL8dCFdji980MVrS11z+tqN4N/oh2F9fZ1wP8U1mQFWf3AnPsgF+Rj56zh6yG8b8edOXIew+B7EtqprWrIep9o2SfenjlPzyHZZWyOOs58z+vvdHg9+6Ahjc6G6MfiB234ubYr5GKxpyrmmMPZ62tdDfFzs50Lpe79sywftlLHXnKq32sfODWC3HUDQrvmgXP/DtH3TX42ep3Q7Hus2izUufrXIWq/3oZb4QWS5MmgQwU8HxjAuE079+Nxt2dajw3KnH7Tb73m4RsPigzrxYdyfK9Z1443HSQbt/vUNA7L9eOqgXXFNneFcaXKcJvutcfprTqkm1d97HBfU6zf+UGhaPm724zV8L+i9BjLP1zn4c1rtY+g5pphzSqtfz/I1vHi9Vn7vg0LQtueoo+eRx1KuD8B+2P+gHd5M1UqGVlNTqfaNs6ZO1uj6Vc8Tj63xVtsiHMcPMCNopALeQDdH+6HoPyTTH3KevJ7UdVvXPCZoF3+4yoVaK3T1PuiXzyk7ILbkXOG2Ot/ie9Adj70m6zGqbYvtWmy3anWbRdaNmWdM0B6sair950PUzmWODY979xgkvpexX7evqmauUo3uj9eoyZpNWu/c3Q+q8ftR+b0PEq+jkni9Y687Ps41rPFRTQ2A3bH3QTsZiISamlq1b4A1dbLGqh87hzyuna8X8rqgocPpIAhmLB5rP1fmMbeuxWo368wPW/WBnNlq0WN+GLdjsyFdXUPuObbss6+pLmhXXJOQenxTrPraNouuKx1H5nOte6yX973uh6jwuOvAHOYqhK9MQPPXXfsY1KiZq1Sj+6e8vimsdz36dV35A7SX+T6mTP1YrjLej1n3vAA2Z7+Dds2HZk3NCLVvgDV1sibe1uNK81hz6Nu5Nh1s2mP9QdZ+uKVW+XrCh1v7QZFbdaq9Prtdf/h2x/688hq7a8l+KBsfxiGglX6wUOPqgvYw/MXHuxS0q65JSD2WY+g54nHN3KWaZL8O1d2xr5ffx/i45Z5j+rFePI8T36fIDPtCzf2vVTNXrib2yZopr28KtdfjH/fB97N7Dcv2mu99oJ9LBanrXOfxXHXsOucEsFl7HbTDG24h/NXUjFF6A4z9NW+UssbfTo2x+uKxbNe3LbE/skJFG+oavUDShZQe6wcYHYKHrOuw2iK7r389/kPX/F53H9Q9sqbUH5TvuwzTWj/wqbl8e7gGHbRFTayL/RX8GKt9DDmHnq80f6o/tmfH9+6/f1zs1fwYuHrE92DxPBYGoUsE+aXNhOyof25bapx1nKrfljHXM/yeWe8x5e/9gn4tGa+j2CfbtFxN7FtFaj6rHcBu2uOg3QaW/GpFTc04NW+CtW+Usm6VN9fceGu+Vc4xnh2KolWva7ZrDx/E9of51kxwTVM8XnGO1Fy5c6zaN6X+Dzj7Jfc9KbHGzWkb56yxyuOxrccQwO7a36Adwkh65SmoqcGkjl242dOgjf0O2gCA3bD3vwyJXSC2Qxy3YEPQ3lsEbQDA3AjaAAAAwAwI2gAAAMAMCNoAAADADAjaAAAAwAwI2gAAAMAMCNoHZN2/75obP3buVP2q1zjVfKue31tnbM7Uj0k01/VOYYprm/P+67E1c6Vq1rmOktLcsn/O69i0bTzWAGAhaE/Mv5HXWne8Zs0n1dTk5MavMrces+r1+XFRTXvOmFptnbGRNUdtmyVXN8X1zkVfmz+2yBpLrqbUZ0mN132WVE3NWM/XlVhjdJsk+0u1lnjeGtb4yKq3WGMj2V9zGwA2gaA9MeuNvLYtZ5X6VVnzeVa/HCf749dSbYmeI0rVpNo1WTeWNZ+X6xtDz2PNW3uuVN1U1zqXqR6Dde6/rMmdf+xcWs34VZXmlv2rXIc1prZtjNrxsU5/1f0AsCkHFrTb/zjl6B6rL6qpSbPeyGvbctb9gJhyfOn+jD3XKteWGrPKXNE6Yz0/vpY1XpI1uj43Ps6/CjnP7fc/07Rt739N1dejj1NtU5Lzr3MuP9aS65fjJas2StVb7Z7uk3NZZK0cs2pbrVXG5q5Xs+o2LvwnVOK6zP9ISfzHXwH/aRVwHBxU0A7hofA/wdXU5PTeLAus8ZYxtSnrziHHW3PFttJ5fH8ta3yU6i+Ny1lnrLfueEnOlbo9p00HbX+/UmK/NUa3RXJ8iTXeS9XpdkmOl/WptlyfpeYcqduaVZert1j1tW1R6tz+WLal6mJbjjVOH2/NHafdw8215Bd3Trj7Hmvuy0OnjL6JVV0PgFoHFLTbN6qH7z9h9EU1NXnWm3dtm+T7a1njJVmjx0pyjJTql2Mtut5SW6fpc8V54tex9FyaNUaqqVnVKnPLa49SdVb7Lq5oW2RNyTr1qbE1c1o1sS3XZ0n1yfbUbcm3W3Wp+pQ4Tw1rvCf7xt7WYp/+qm9bx9tStbgTwu+GVrAJ2sCkDidoh3+aKwSHmpoC6827tk2S/bo212cZcy6L759qjlWk5rOO5ThN1mu5/tJYr6amJF5nLWuOSPfL49RtaZtB219T7vpzbTnr1KfG1sxp1fi2VeaM4yyyxrotyTE19SlWfW1bpPvisf6q+zXZbt2unWfT7nqo+V6Ugnb4bCJoA8fRwQTt8GZW+Ge3mpoS/+ZdyxofyX5dm+vTfH+upmZ8/CpZNWOtOs5LXcMq1+ZrcnVj5qhhjR+rNI/ul8ep29IwaC/3h/b/xaf7J+2urx8Guj4jROSC/HKu/HVabTmr1EupGqtdsmpkm+6vmTMnN7dsS/Vpukay+mvbolTfmHbdljqW7dY8k9L7rhOfLVMF7TCPOJ8dlPXrdfkabF+Tsk/Sr1W9X7yxiW0twDF0GEG75if0GX+K929CVnuOHNN7M+tYdVrsS9Xkxmqpc/rbltifYo2RrDGSronHqfYUOS5Hj1vVVHOV5pHXHsk+67bUD8Ldh+ogDLTtveCtA4EZENJbtOL1pL5KqbZVWXPp27I+JY6RYy26xrotybEpsU6OibdLfam2nNo5cvPqvnisv+r+lFx/as6pDX+Q7AJuDKM6hCvt55ARZqVFsFVze+bnmfU6btp0QC5+FhrnA5B0EEE7vOkVVgxqalbl3xSt9hw5Ro/P9Vnt8bb/WiOOk2R7vK2/6v4U35+rKY334hxSbNd18liSfbV165pqrtI8ul8ep25Li6DQfehaH6r2a0aH6O7DXY7PrM7F67G+WuK4GuvUp8bWzGnV6LZVzpU6rpnLs/py9RZfX8sa78m+sbdlW4quk19TrLH12uf8IKiG571eGZ5gRTs3r3jdtSvew7qBYtBu7986v8sEHJIDCNo1bwrTvXHEN+ga1vhI9uvaXJ8lVVMzNtLn1MfxtnUsxb44R4oep6VqdPu6dV6ub6zSXL6/ljU+0v3yOHVbaoN2d65ECND/VN0jPuAXoV2OM4K7H2fdto5TbSmxdpUx8bYeWzun1Z8bk+rT7alj2Z6ay7P6cvWW2jlqrkPXpI5r5kodp9o0X1NTZ4o/nJqGYXndoN17rWqLeUesQheDtjpnzZzAAdv/oJ34ab+npmYN/s3Ias+RYxZvaIJVl5KqqRkb5c7pjzXZL2vkseyXcn1Rqka318zl+boca4xn1VpkvRy/qtI88tyR7LNuS4twnFnRrgoIXu+D2/9QOwwM+jpKx6m2lFg7doxk9cuvKbmxllSfby+JdXJMvK1ZfXEeTddFVl9tW6T74nFqzJj22rZJVQRVaZqgXfr8mjZoL4Tr6p4nNe8FwAHa+6CdWj2TamrWscobuxyjx+f6LKmamrGRdU79Vffn+Joca0yU6rfaS3NFubraOWpMNVdpHt2fqk+19z68uw9T/S8+dR/wrcVrzM9V8Vqruf7UtWs1c2m+RtaV5sjNafWNrbfaS8eptmhsvaV2jimvI9Xn22Vfbt7UHJGea5xx/0K6btDO9glV5/FG/qAQVF4DcIj2O2iHN4zCi7+mZk2rvGHLMXp8rs+SqqkZG+lz6uN42zq25GpK41P9VnvNtXjrXM8YU81Vmkf3p+pT7TpEt8c6PLSBourDuwvrXs0HuL4u6zqtNi1VUzNWKl1Pbj7fZ7FqvVSfbi8dp9qisfVaqnaK68gp1fv+VE1sX2eOGvH1UvNcXztox9Xq0g+9XYDu/6DbvIYHP/h2r+sRi09jfugGDs1eB+3w4i+8gdXU1IhvzKtYdz5rvKRr4nHN2EjWWvNpst9ijZGsMV6qb2y7ZtXFtto5Umrn8f1jWHNEsV9/TfVr1gdnCARN/eCD2rf1WIGgCwOVrzV9Xf35l2SNVOr3amoiWZcaM6Zdt8Xj1Bye7yuRtfKrxerL1WupWtkeb+fm9X1jWfN4sl/XlY6nFsN2jxFe1w/aXgzbfcOgr1+viXAcQ7lVN+hT/QB69jhot28om/olyKn5Ny+rXaups2pq549y9bpv1WuK5ry2lFTd2GtJmWqeqDSf7J/7vtVpg0Dta01fm3Wtqbax96tmTOyvrVvFunPr/lXmK42Jauu8MbU1UtedapdftVQ7AExlf4N2WAEo/JRdUwNgbdX7QwEA2CN7/8uQALZF/DM1IRsAcIAI2gAAAMAMCNoAAADADAjaAAAAwAwI2gAAAMAMCNoAAADADAjaAAAAwAwI2gAAAMAMCNoAAADADPY4aD/uvvrLj9x3/jn6jfvqt6y6LXvwknvr6ofu0jmj70Dc9vwf3fd+/am70+jDlrx8k3Of3eSuiLaTL151V66+7c6Ktnnd6j7+5Ab3+ctWHwAAu+8wVrR/+N76QXuKOSwE7S0H7XfdA7/+k/ve5Q/dbaK9vaY/uTPP/1TUHl9H7/3IvXbt2+5uo2/giZvdF58NA+7mg3YjBH7CNgDgeCJo1yJoz2Yngvav/+jufSC2/dTde9m3HWLQvsV93gTbLy7fOujbStBuXLx842B1HQCA44CgXYugPZutBu0HPnRnmnPf21zDIlT7tlfedXe+cnhB+8q1G5z75GZ30ejbVtCOW0jctVuMPgAAdhdBu/GV1+Re7o/cvT9M9/X88nX3ZTFPnTPuwjsfNoGlTwfts6/m+ts53nrxTBd+Yp0Rgs69LfqtubYghNt2xXhJB+3lqnJLrjg3why+TdU1AXk5RytuAzHn6oL2nf5rt33EB+wHnmi/9ueLq99Lvm7RP+Kaatz98yfda79tArL23klR9zX3/Wuy/0n3/Udj30l3Xo5TLv78a2Ier13NTm3TGAbt59yl7jnln4vLWv0cv+ouPKj63rnkTi7qW9kgH7aQ3Og+lo+39PSb7vr16+76G8/a/QAAbMGBB+3uFyZf+/Gy7Vuvu280IVqG7WCSFe0umLz63LJtsKLdBZGaGj/XIrAYAWYXV8uf+HQQUIcr2m2g7a0mh3E6ILdBtrcSXRqnxaAdgr2v8+dur6UftH1//4eB9rpXuKYKbcg2QnMvZLdtvcD8wqNqXKtqRbsQZvtBuHsuDwJz294L3uGHPRG29XHQPn/7gV3K/xBA0AYA7KLDDtqh/T33FdnWCKvYMnx7EwRtc8VOh+EQQoaremGFexG+E6uCVYFmBSe+6/5w7lnbI0fuvDXG1K30qhVeHbTDsfrlxDi2FGBDOBZjhyFeCUG87fe1Z175NGwb8X3DFW2lu4bFDw2V11TDCsa6LYTxQXhuV7j1anVN0A57oRPbRrzF87d7zvZ+GJQ1g/CtQ7TxA2fxucr2EQDA8XPQQfvLP/lN0y62gkh6W8gEQbsfljsqaLdhpqmz6NXrwlyLum789le225Xq3naLhg7DIZg2daYYfHXI7QyDtdzuYaxsi6Ctr28QkLvVeE0H7fI1laVWtGWADuG52wYy0Fv5rgvauf3ZXu+5OQjTLb3lqUc8X/UPneZro4egDQA4fgjaxoq2aaNBe7ii3ZcL2vaqoAxA6X+en9uIoF1aAc6FWnNsf9/0YlwvaPf15upCdm+1OrGiXX9NGWELyPrhOdrUinZ4niVCeE/vee9XuEv/8tIGbeuvoQAAsKvYOlIbnqcK2uZ2D7HaXLXdIxG0w9h8SK8OQtJkW0faoG1urRBht2oFOBFqw1y57R5q+0ouBMs+85oqg3b5mjR7+4fWrno/6o6MPq0qlI/Zo909b/UPbXU/KLYWP3j6uYzQ3lfYow0AwA7ilyHD/x5Zsard/ZLkN37yuN1fwwzVTdiQbYvtHrmwYgTtboUwv1qdCOgbpEN1e9xvW2z3yK0CG6G2DcOZX3wM+mG/Nmi3K9r2Lz7mgnbumhb/yjD4fnR/SUStYA91vyBZsao93IpiSf8NbU+H6PZYP+dSvyRpMJ//CbV/deT9l903rX4AALZgj4P2j929et911PtFR/1ftbcGf3XEC4Fd1K3w5/1iOAlCGGmDST9oxLDdNwzjqf5W71zRFkN2q7+FIwRec/tGF7Z77KC7NFwFXwb5JbmiXgza5g8Fnr8WtRWm8ppa4ntofU8e/ba7qLeOBHoF2/oTfnag1nu6rRXzsE878Z/DWKvV9g8LXdjusf6VpnsMiqG8Yn/20cvufR+0r//KvXRk9AMAsAWHsaK9d7a/Mr11xurx1k12Tcaf7RPt5ZXudeRXtafVPo9LvzNQ+z9DPvUGQRsAsFsI2scSQXuvg3a3mj0I2qn2qYVtGvOH7arfF+iupbg3O65o83e0AQA7hKB9LBG093tFu2H91ZHG+ReM2jmEgFteRR5PbCup3DKSD9nPul+ELSPX3fsvnTb6AQDYHoI2AAAAMAOCNgAAADADgjYAAAAwA4I2AAAAMAOCNgAAADADgvYMzj51wWzHdk35fTnE77G+z6nHoPTYzP3Y7cr3ZleuI2eq79VxuK+Wqe6/RY89ro8RgPUQtGcw1Ruqn6fEGnfcWfezxJpHq62rMeVcc5KPUQ1rjsjqr23TpqqxrDpuartyHSW566y9D8flvlpWvf++z6JrrNsADgdBewZTvaHm3rSt40NQe5993aqs+aSaml0x5lpLtVa/bsvN4ftSrH493qqJdVZ7pOfYhHjebZ1/jNQ1jrn243A/U9a5/7LGqo9tNXMB2E8HFrRPuaPmDe/oHqsvqqnJS72p+nbNqot0f+m45Pb7n2nGPO7uMvqOi7H3OVpn3Kqs+TZtzHWUaue+T6vMb42RbXNfs0WfcxvXsGn+PtYajL/jtHu4aV/nPXdb5P0x7xuAg3dQQTsEzcdOu9uNvqimxiI/SDRZo8fIY03OkWKNSznuQXvs/ZXWGStNNc+mxOv1X3NkraTrYo3Vrum54rjUcWpMSqz3X2vo8XNInad8/hPuvsf617ty8KwIrvI8tax5olJ/1paCtr5/OdZ4L1Wn2yU5HsD+O6Cg3X6QPXz/CaMvqqnJ02+k8jjXZynVl8Zrhxq05Th/O0WOSbHqasduw5hrK9Xm+lc5jx4zZg4vVS/bx865jtK50v3tv6KdfehUr/2uh55x990h6yqNDK41j2PO2o/xDq1oj70vsn7dxxHAfjqcoH3P480bXiFk1tQU6DfV3Btx6Q24VF8arx3noO3va7y/Y+93qb52vlTd2OvZpDHXlqv1faV+qz2K41NyNXquWKuPU2TdXKzz1La17zsrhmoLQXtlY++LrF/3cQSwnw4maN/1UPOhq1aMtJqaEv2mmnsjLr0B+/4Sa9xC9wHWH6ODtv4na/WBH+bwbarOeJzaIC9qJgoPfi75Vd/Oiddi9XlTzFM7xzbIa4v3QbNqtVR9ihxrsWpkW26OeI7I6tdtmp5jDGse2Sb7Uu29vhC0K4NmV7sgXofD15+U/gHb949p1/rnybPGW0E7vBf7MWob36K9I8e09994zxkR5JPXmCCvJTV27JwA9sthBO2aN9oRb8Yp1huqbNP9pTfgUn12vPHhPVzRbv/JurdVRq+udY+Ln2tR17Vlx01E3sdR978R+1N1pfGRnsd/LZHjt0lei3VdpX7Zrr9KqbEppTlq54t1/muKHrMp9ecWP8Rmfj9k+Prtxukfeke+l6Wuc+rHLjmfut42TOv3EuO+Du6n8X7WCI+beFzD47wiOW+cS9+W9SlxDID9dxBBW7/RWmpqasg3Uf2GWjouqa+3P4D1B7V9n9ux2VDdCB+GYqyeewo1j1fqMZHt8bb/WiOOk2P1bSnVvgtK1z/m/qX6vVxf5GtSYr+sjbdzrLrasXMbex3tayg+JjpoJv4aUvgBV73uCkF7eY7xrPlqJccvrjf+wGG8j1j3s6H/FbIN6bLODt8pY++jrE+NXfdxA3C8HUDQrnmjHfdmXBLfWPUbbOk4tq1qOY/9oazDsP5n2J744ZX40B4G6/ac7fj1V7b9PDVtufZo1XHaVPNskrw26zpX7fe3S2KtxeqXbbnxpbrc2E1a/TqWr6XF6657Hfq2IfV6KwRtzc8xpn1Vyfl6981+7+j/EKLIxQJ93xMB3eLnkl9ryNp4PVb/mDkB7Jf9D9o1b7Qj3oxrWW+sqTfhEv1mXR43ImiXVvFzQdscG1elWrUf9lLq/o1tj1Ydp00xj68de951yHPFc2tWrSXXXxobxTr9NXfb4vvlHCV6/Casd97udRRfY2PC84aCdnxsS2S9HL+wuN70ivbwB/uUbo5uocC/x41dzU5epyHex8jql18BHJ69D9r6nxYtNTVjpN5cS8cWWZO6PWSv0Lcr2MsPq6oPr8SHdvkx63/g1crdr5rHy5IaN3a+KebxtWPPuw55Luu8pX4p118a66XOFW+n+lNSNTVjN2G961BBO/GaNo0I2rlrnPpxTM7Xu95uNV//EB8WQyr/pWyxcOLnqgnnw2urue++RtaV5qiZE8D+2e+gHd7AC2/ONTUj5N5c/W1N1kpWv3WcmkOH6va435b8UJOMD+02oJcesxHBoFLqvpakxo2db+555jDmXKXaXP/YsWOPtdjvv44duym11+FfT4NQHMKi9bqrCdDd67rih9zcNU79OCbn0+8x3XH/fSm92j3U3X9vjcdg7P3X9aVjAIdhr4N2+GDKhchGTU0t641UttW88fo2qz32pdqHffGDqRUCr7lFRnwoLYgQHT/0eoYfdssgvzRlyPb8nFZ7iR4Xj8fO5+vHSM1htc+l5nyxplSb66+9X6lzlY4lq8+3legxcxtzzuHrx/5BNobtHitMDl63w9esb5fHWqm/RpwjO5fxw3z8QaN/3f33tMj6waN9nPKLAXG81RfV1ESyLjWmdi4A+2OPg3bNiup0q66beAPdypu09SG4Javef2vcKnNt5fFfU+0119TlasY8NrrWGpuab8x5tm2Xr7Xm2qa6/m08DrkFFH89Y6+pZkzsr60DcBj2N2ibq7dKTc2h26GgDQBF4X19uu2AALCOvf9lSKyJoA3gGFhuvyFkA9gdBG0AAABgBgRtAAAAYAYEbQAAAGAGBG0AAABgBgRtAAAAYAYEbQAAAGAGBG0AAABgBgRtAAAAYAYHELTvdh888qz7w7ln3UcnrP5oWRfl6wueuNl98dmN7uMnjL54rkeO3PlBn+U5d+nqh+6tF88YfRsS7s9N7orVt6ow5w3ONb64fKtdAwAAcEwRtDuvnx4TfEtucZ9nw+MxDNqNK9d8KJ4qbJceIwAAgOONrSPB191H665gL9zqPv6kCaTXbjH6ouMZtOvuW6WXb5owtAMAAOwegrZ3x5H73URB++LlGysC5HEN2o1uu8fnLxt9YxC0AQDAntvjoL3cMtL6gfvgDquuMVnQbld8a7ZDlLaqnH31Q3elCdfSIGife7tf8+pzvf4wh2/r1V11Fx4UcwRtkM/NJYUtJJ/c7C4afdUI2gAAYM8dxor2ie8aQVsHcWWV/dojVnvTQfuMu/BOE3TfueROLtqGK9onX7zaBOK33dlFTTdOBORlWF/WtW35cUVThGSCNgAA2HMHHLSFqVa0R4THELRPf33YF1af9aqzDtrt8aVzsqYRxuZCdePBS+6t3tgVtqVMsH0krIpPsdcbAABgRxG0vYmCdt3+7FYqaIeV6t5qtqfCcBeWe1s9FpYhPQTt0lyNdnW8G1+zsr1G0G7/cskEe7wBAAB2HEHb26EV7TFBe7CireSCtjlW7uUejBNC0E79jfA6k+zzBgAA2GEEbW+qoD3Blorh3utGF6z11pHSdg8zaIe5rF+IFMztKwJ7tAEAAIoI2t7Ef3WkvPe4/bvdfzj3Xfe67tOhWmwTsbZ75Fa1h0G7Deil7SFm2Bf4qyMAAABlexy0Y5g16C0bkwXtuE+7tK0iE7S93p/j84G3/csgegW7t7c6Mv/qyNJgFVwE+aV0yJ5i1T4gaAMAgD13GCvaGzXh/564JnuP9jr4nyEBAABqEbTn0K36bjtsTx20278YMlE47h6jmv/cBwAA4DgiaM9lgr/Msa5Jg3a4PxOvQIdVbR/eCdwAAGD/ELQBAACAGRC0AQAAgBkQtAEAAIAZ7GXQJrADAABg2wjaAAAAwAwI2gAAAMAMCNoAAADADAjaK7rzlT+5713+0N1m9GE7/uGh37t/f+gfe23T/++YW3LvJ+7P3/pPd/O9Rp/U/Zf6l84ZfTgI4T+WGvxnWe3/6vr5y7Jt6C9fcO7Pn/yZ2bfwN9fcv//de+6s1QcA6CFor2irQfuBD92ZXzfnf+XdXnu4pqb9gS3+JznT+Zr7/rUfudfeO2n0DZ29/1/dvz99zf2Dbt+LoP2B+4u3KgKQR9DeCXf//En32m+b529U+TweGvc6uHj5xvT/3tr9B1HZsB1+oCs9137o3v275odawjYAFBG0V7QTQfvXn7o7F+3vugdC2wEGbb/C9vS/unf/eth3/IP2z9zNP3Puz174wOgzELS37ug9H64fdUey/YVH3cWff61XV2fE6yAE6fz/RpsN4tHf/of7s+K/nvyj+5enf+/+x/0/NPoAABFBe0VbDdpPfBrOfW9zDYtQ3bSdef5dd+/lQwva+Q/84x60/+rJ/2xCz3+4vzT6TATtLTvpzv/2RyuGakvt6+AW9/lnN7gvLt9q9EntFpLh1pI+v4Xkz372ifsro28h8wMuAKBF0K7lw223Yrygg/ZipTnRH+bwq9DL1WfvzPM/XdYEPw2BeTGPJ+fqgvZt/mvYPuLr/+jufaAd15tvcN1yFTz211xTncE/mf/2Sff9R1Xdo992F2XNtW+7u1N9yvkXxDxe+LAfbhmJBkG7C6JXdBgV7UEvnD/nLvm2V59b1nfmDfLtanb+n/HPuAvviOvu6KAdrjPZ387x1otn3MkXr4q6t4dbA869LfqtuTbr9dPPuj+c/rq75cR33R/ONbeDH7gP7tC1d7sPHon9quaOI/c7c4z3dfdRU//RCavP0gbtqhXoKV8HYTW7sFIdVax8xy0kf/G3Rt9Ct4VE/V7E0mn30vvX3fXrv3IvHVn9ALD/CNoVbnv+j0349EF22TZY0Q6BtaamDbJyJbp3bI3T/JjQ78NxE5J9wA/HKmj79t4+7i7Ar3BNVV54tAkBRrCWjJrwT+0yZAR1K3n/4H8BMrNXtBeEY5jWgTmEx6vuwoPLNh2g2wCqg2cbwGcLmsWwY/wAMFjR7oJ4TY2fa3Gfuzb5Q8Rg3PaFoO2D8yNH7nxo6wL14thrw/LvTt29GNcG8y5ch6CdCNPZEG5b/rCZeS1M/DoIvwD5yc3uotE31K5+538xsuaHvOZ14n83Ivn6I2gDAEG7qF3p1Su8/TBsrCR7YYVbhG8zwHbhdxGI9fFQCP7duf11PPCK3zbiz524DqH9oUGsalddU502YKi9qT1taBj8s3pYvdOhpCZgtCtquX2ii8DcrcT6Vdt+zXI1t9ceQqUI313IlHV2+J5Q2Cub3jZinl+H4XC/h9cYHpdF+DZCtad/ADF+IFlJb/VZ6QXkshC01Zjzp37QzPVd97o8HszbBvI2fPdXrRer5L4uXOtyrmpqRbr/nJ/6ddBuBylvG4nYPgIAm0LQLtFhudMP2v1tF1p/pbg0V6zrxsv2jgza/esbBuQwt7iWlg7aFddUpftn8+RqnuwfOt/75/CagFH+hazelglj68diVThBrt72V7kTAX1Cpf3Z/bDcUUG7vxVE0avXhbkWdd34XVjZrgnai1VvSwjUw9C9GO+D9sjwr7W/HCmfy1O/Dmr3Z0cEbQDYFIJ2yYignVtJDnKh1lo9DucehuNe0FbkXG3I7p/PXtEecU1VunAwCA5jflGsJmBMsaLdBu2qwCxXdEMInXE12yusaNcH7dJ15oK2vYItf4CZ84eNkuqgXQjLi1Vsv1Wk+eqP/Qq3vRo+XvuvPfGHz6lfB6utaJfqQ9Au/bWbwu9IAMChI2iXdGHX3FqxCLuVWy3MUFve7qGvIReCl332NdUF7YprqqJDQk1oiOpq/2HEHu24uttfiU2ETNNyFdvPNXvALOzRlvdt0d79QLG4j/KHA1nXk3gMwth8SDevoWQbW0cK2z9CTROw/dewhcRfYxe4F9tI1tAP2tO/DnZzjzYAgKBdlAjVfpVZriqHwFoIp0aobVedRfC1qHF1Qbu7La6xDdnqfKOuabnNom7bgLFyF34JrG41z/x7xFrhn651EIwrsb3rT652Dy23YuTCa3yc1t3PXPgb2mao1vcvbvfIBWYjaHcr4/nHZMwPKfOoCdqL7SC5EB+2iPzA/W4xzo9pjhdbSlR9it9nPQjF3VYR2T7166DmL4lEG/+rI9fdL562+gFg/xG0q/T3YPuVZXP7Rhe2e4wwnuwPrP3eRhDOBe3FnGou3x6uQQdtURPrYr/Uha9+kFta7EUVzCDRhYyewV9b8LrVPFF3Xv9Zs26fdurDfrjiGoOnCpEipC6YK7XGX/oYWJ5j3RDa7tNO/+chvT3Y4Xrb6+t/f8T1CMMwnupv9c4VbTFke3VB24t7ryX9J/6aNrF6HeZu2ur/tF/HeH7P/zpoV6lL+643vT/7qTfaoH39jWfNfgDYdwTtTTJWj7duF69prI3+QpYVZA1dcF9/e8nI/xlyJdtfmcYEdvF/hjx62b1P0AZwwAjam0TQns0/+L3as4ft2kAaV4gn+mXJ7p/x5wvbBO19EfZqp8J2COKFvdndcy2/N7vbMlKxN7td0ebvaAM4XATtTSJozyqE7eR+0TWILTOlMLrYXjH2FwRLQgAqrTKuiqC9T0LYHmwNabeM5H8Bst0yUvoFyPAvSIWQ/c2XftVuGbn+pnvK6AeAQ0HQBgAAAGZA0AYAAABmQNAGAAAAZkDQBgAAAGawl0EbAAAA2DaCNgAAADADgjYAAAAwA4I2AAAAMIO9Dtrt/5LmFf7LYQAAAGBiB7GiHQL3Jze7i0YfAAAAMIfD2DryxM3ui89udB8/YfQBAAAAMyBoAwAAADMgaAMAAAAzIGgDAAAAMziMoP2lW93Hn9zg3LVbjD4AAABgegcStFsXL98Y/tzfF5dvNfsBAACAqRxI0L7FfU7ABgAAwAaxRxsAAACYAUEbAAAAmAFBGwAAAJgBQRsAAACYwUEE7favjdzkrhh9AAAAwBz2OmhfuXZD+HN+jtVsAAAAbNhhbB0BAAAANoygDQAAAMyAoA0AAADMgKANAAAAzICgDQAAAMyAoA0AAADMgKANAAAAzICgDQAAAMyAoA0AAADMgKANAAAAzICgDQAAAMyAoA0AAADMgKANAAAAzICgDQAAAMyAoA0AAADMgKANAAAAzICgDQAAAMyAoA0AAADMgKANAAAAzICgDQAAAMyAoA0AAADMgKANAAAAzICgDQAAAMyAoA0AAADMgKANAAAAzICgDQAAAMyAoA0AAADMgKANAAAAzICgPYOzT10ossaNNWYeXTvFNaw6R2ncKvNaY6a4j17tPKm6qa7DUppb9s95HZu2jcc6ZdPnXPd8+/Q8AIBdR9CeQemDbJ0POj9Ws+o0Xafn0P2a1V/bZsnVjb2WVH3NtZSuQ7JqpFRNzVhPnivFGqPbJNlfqrXE89awxkdWvcUaG8n+mts5us4f58hardSfo89jscbotjHkeHkeixy3KmveFGs8ABxnBO0ZWB8gmjVOW3WcRY615qmZW9esOo+Xqhs73n/VdE2JHiPJupxc7Zh5xirNLftXuQ5rTG3bGLXjY53+qvtrpGrHzOGNrc+pmWvd823iHJI1V20bABx3Bxa0T7mj5s386B6rL6qpySt9YNR+oKz7wSPHx9vWnGPOY82ZOpZ836pS88mvut3qSymdo8TXWXL9crxk1Uapeqvd031yLouslWNWbau1ytjc9WpWnZfqy42x5ObRrLoo1y/77Lr2fevsU4+7u5rjux5qz2e9j1njfVtst+fv681/z+Pt+IdOmbXWfLVtAHDcHVTQvv3+Z9zZx067242+qKamJHzoFFjjtNq6nDiHnivVXiLrU7c3yZ9Xy7XLcfLYUlPjWXWxLddnSfXJ9tRtzarL1Vus+tq2KHVufyzbUnWxLccap49zbTVqx8gaPUYeS6Xa3LytE+6+x5rzd+9d4X2sqZNB2x9r/TlScw+18z/j7rujOb7jtHvYz5cJ2rWs8QBwnB1Q0G4/iB6+/4TRF9XUbI71QZSTmkN+tfpWtcp4P0ZL1dW0p45l+5i5asgxcVyqrbY+SvXJ9tRtybdbdan6lDhPDWu8J/vG3tZin/6qb1vHpXbPmrdE1qZuW8dj2nPztqyg3QVhVavnKpFjIytop943rTlq2wDguDucoB3+ebP9Z1Wz36upSYgfSquw5vNyfWPpueRx6Ty+fwxrjkj3y+PUbU3XWWRd/Kql2qNSf2TV+bZVzhvHWWSNdVuSY2rqU6z62rZI98Vj/VX3a7Ldur3KPLn2VJ0m61K3rePYVqLHyttL/aDdvpfVBe1Un3Uc9YN8u22FoA0AQwcTtMOewsQ/bUY1NSW1H1Q1pvzgiXP5r1Neo1aaK3fu1G0t9umvWqk/Ko0vsepkm+6vnTclN7dsS/Vpukay+mvbolTfmHbdljqW7dY8Uk1taQ4vNY8eO3YueZybdww/NorHuj93vIp4vhrWeAA4zg4jaHf/tJn9BceamgqpD49Ue05NTY3S+aY6j1eaK16LJPus2yml+thWmivVXxoX+TqLrrFuS3JsSqyTY+LtUl+qLad2jty8ui8e66+6PyXXn5rTkqq1jnPzyb7UbevYkqrJzTuGHxvHx9sleo4pzDUvAOyagwja4Z85N/BLkJ7+AInHqfYcOTZHj5Niv/xaIsePVRqv++Vx6rYl9vuvFl0Tx2m6L463yDrJ6tNt8jg1V26MPK6Zy7P6cvUWX1/LGu/JvrG3ZVuKrpNfU3L9pbGarE/dto4tqZrcvLXiuNxcpeOpzDUvAOyaAwja+f2DrZqaOv4DRIvtsibezrHGaqk+3y77VplDivPVsMZHul8ep25Lvj2SbbJGt1v9cQ7dZ9Xm2j2rb2y91Z46lu2puTyrL1dvqZ2j5jp0Teq4Zq7Ucaot8n2R1e/JvlxdlKrXY1Nz+fYUWWPdHiOOy81VOl6Fn6OWNR4AjrP9D9oz/xKkpj8s5HG8XfOBYo2z1Mzl5earnaNGaS7fr8k+67ZF10qpOkttfW4eq29sfWwviXVyTLytWX1xHk3XRVZfbVuk++JxasyY9to2TdfIY39bH8fbllStHleax0vV5OYdS89VIsdOZa55AWDX7H3Q3tQvQUbxA0R+UMkPFXk7p3bMKvPp49o5apTmyl1HTXsk+1O3rWOttj43j9U3tt5qLx2n2qKx9ZbaOaa8jlSfb5d9uXlTc0S635rXatNq5kkdW6aqyRlzjeueK2WueQFg1+x30A6/4Gj/iauFmpoK/oNDku36tmyz6P5cfWmuaIo5apTm0v2p+tp5cvOlaqTc+Jp2z/dZrFov1afbS8eptmhsvZaqneI6ckr1vj9VE9tr5rBuy+NcTapdj9FkraVmjNU2hhyv5yodT2WueQFg1+x10N7kL0F61odHbKv9AEvNkaPrLVZdbCvNEc9Ty5ojiv36a6o/JTWPHGe1abrPH6fIOsnq023xuDRPiayVXy1WX65eS9XK9ng7N6/vG8uax5P9uq50LFl9qXlTZJ01Vs9jzevbNF0Txb5cTQ05Xs+lz7HOufzYVVnzAcBxtMdBe7O/BJmS++Co/VDJ1dSM93LXYLWvqjSf7F/3mnRdbu5V5yy1j1GaY2z/KvOVxkS1dd6Y2hqp6061y69aqj2ltj53LWONGbfqOSQ5R26+Kc4FAIduf4P2hn8JEgAAAJD2/pchAQAAgG0gaAMAAAAzIGgDAAAAMyBoAwAAADMgaAMAAAAzIGgDAAAAMyBoAwAAADMgaAMAAAAzIGgDAAAAMziwoP2ue+DXf3Jnnv+p0Xf8Hb33I/fatW+7u42+6O6fP+le++2j7sjoa93qPv7kBvfF5VuNvk17zl26+qG7cvWqu/Cg1b8t8boi6/rOuAvvyJoP3aVzumZDnrjZffHZTe6K1QcAAGZD0N4jUwTtK9ducO6Tm91Fo28yD15yb1UFzw0F7XNv9wLxwjuX3MlBfRegX31OtfedfTU1fmp11xO+r4RtAAA2iqC9R9YN2hcv37iZMFYdtDckBO3KMB+uvVTb/oCwmftXF7Tjv1S4a7cYfQAAYA4E7T2yVtAO2wtucJ+/rNrncJyDdk3tRu9fbdBubPJ7DAAA9j9o3/nKn9z3mnAt6aCtax54Qs7xU3fv5XbMbc//UdR96u4UcwRPfCr6rblqfc19/1oTmn+7dPHnXxvWvfBorybQQfvRb7uLusYI2mE1O7tlZLjn+K0Xz1TUve3Odn0nX7wq2rVl3XAPtOxrpbZmtOdQQVhvDdGhdBtBu3RNnXA/F3XivN05enMIqXOXtgZ986VfuevXr7v3Xzpt9gMAgHp7HLTbgPy9yx+62xZtekW7q3nl3e648cCH7kwvIHc1Pjgv5jLmHoxb3dF7T7rvPyraukB9/oVlW7sy3a8brGgnx+mgXd5WcPZVO7z2A10XkHsBuGnTIXLEim8bnIdB2z7/cHV3ON5YAQ5z5cKzDv5KmGv4g0iPeEyqrmkxn6p7Vf9wYY3NePmm7PYggjYAANPZ36AdVpf/6O59QLaroB1qhivTYYV7Eb6twN7Q85vnm8pJd74JzMtVbX3c6gftblX8vZO9Gjto3+I+H72loA2fclW7XX01QrE2RdC2AuZg3vYaB+cJwVrM2YX2ASu8FkN5I3v/6q7JXJk3jQzabB8BAGBj9jZoh20eOhyroN3fCqLo1Wu56u3lVr577Sswt3uIYB361ap3ox+02zB+Xqxme2bQrglfia0Ky6A9IvBNErSHfeFYrqYnrrklQmxNeI7WDdqV11T/V0sI2gAA7CqCtrXXuicXtO0VbLnne7lNpVIM2b2VaLWCPXXQLq1ox3DYC3N6RXvzQbu/Otyev7dvvPY8WwjapWuaN2jf6D6eYIsTAADI2++grUN0twrd3zpS2u6RCNqJbSdSCNyDsF8Q9lXrEG0FbR2iu60iKmib20vG7tE2w2Vi60hNOJwsaHfn9CEzzKnrhtdo2mTQrrym0v1eGhm0C3u0AQDAdPZ3j7YO1d1xf5U5bvfIBWYjaOu5TYmA7nVBzAxsgxDdBube1pFBqBZ/pWTRNgzV7XG/Lcr+De1BcGzDot/uYK0gD1a+ByGwG18RDouBMwTft90FX2fM144vhPqNBu3Ka4qPUe8HlyZUD34ZcsTe+EbtXx25/sazZj8AAKi3v0HbC6vObbhuw3QbfvsBOYbtvtTe62F/y9zvbYVsL4Q1H47swNZu74ih2IfuNkj3V6eXAbyt6caJoK3/TGAYH1bMh0E77t1N/dfrMRxGl84ZWzWCZQhvJQLg4ocNo27QtzQ8X7eimwm/+toDGcoX3w/FWp2fIGh7xWsK4n2LUufVdYlz1+zPfvrNNmhff9M9ZfUDAIBq+x20J5FZmd4zG/ufIbEFtf8z5Gn30vsEbQAApkDQLjqcoL0IY4TtvRO2jNR8X7sVbf6ONgAA6yNoFx1S0PbasJ3aQoJjKGwZKYTso5fd+2HLyHX3i6eNfgAAMBpBGwAAAJgBQRsAAACYAUEbAAAAmAFBGwAAAJgBQXtLzj51wWzfZblrHnt/rPrj+Jgcujm/Z/vyfFj1fuz6a2SVa/FjSqxxUk1NrdRcU55jXatcix9TYo3TrHGaNU6rrStJzTPV/MAcCNoTK73gfb9k1Xi6LscaH1n1OdYcUa6/NFaz6sfOge1b5XtWGuP7JavG03U5647XrLl0W5Tryxl7njlMfb9KY2rm1DX+OEfWaqn+0rip5c63yrWser+1qebxampXPd+Y6wA2jaA9A/mi97clWZdTW1uqm/Kcul8ejzmP5+trWGOxG+L3Z5XvkxwTv9eRrMuprV1nzimuZ8wckh9Xwxo7pdQ5Vjl3aUzNnLomN2aOvrmkzrnKtZTG1M7p60qscZFVH1n9eryU6y+NBbbpwIL2KXfUvCCP7rH6opqaPPmiX/UNoHZcqc73j2HNEel+eVwaK6Vqx8yRdc/jzVzPuPvuMPoSbr//mXD+sw+dMvvRp79XY793sn7V73vtuDHz69p1xsp2i1UbpfpL4+aQuxaLVRtZ9Zo1TtI1uTGpvnguLdcvx88hdQ59HZFVG1n1mjVOK9XVzpMy5josuX45HtimgwraIUw9dtrdbvRFNTVjrPqCl+Pkm0dk1VlK/WNY506R47RUf2lctW0E7TtOu4eb8ev8gDbKCvdxKlN//6YYF753ilVXomvHjLWkxpfmXXXcpkx9v6Ka+6drcmNSfVZ7bMv1bdqY65fW7Y98XYk1TtI18rhmvGfVxbZcH7ALDihon3D3PXbBPXz/CaMvqqkZx7/gc6wxnuzTdbk+Lfb7ryV6bBT7Ul/17Rxfp8elyHGjbCOEHkDQrvm+rPK9i2NSrDGe7NN1uT7J941lzSPJGqu+NIc+Tzy2yHFzk+ezzl1zPaWaVebIjUn1We2xLde3CfJcq15LqWaT98eL59Pnrb0Oqy41Z6oN2JbDCdohmDzu7rL6opqaBP/ClmS7rJNq+3Rd7fxeqr80Toq1ufPWzufrcvOU2qsQtCdlfc9SUmOscbJd1km1fbpu1fnHHltijaytGRf52pqxY+acQjxfzbWl+PoSa5yka3JjUn1Wu28bUz+XeC55zrHn9/Ul1jjPqq01Zp5cjZwn1lltVnvss9qBbTiYoH3XQ82LsrAtoKamhnyRx9v6hV96I7DmqOnTYr//WqLHRrGvpibHmsffTok1AyFkilq91WfxA1O73z7W9f+lot9n15QttpyY9A9t7b+YLPv7QTk8/5p2+zrbuWKNacItT3Pz16tvyzbrWLPmqOmTcuNqjrXYP3ZcZI33t1NijWTV1bLm82KfrsmNmYt1DTmyVo7Jten+VP2q9FxR7NM1uTFzmfoarPGyLTf/2LG5uYBNO4ygXbPaOOGKZOoNIN6ueRNIzVHq02J/bg7r2GpP1Xi5Pi81T2pcqr0NtjKgxvAqQu0iiIu64gpwG2hX3jZUfP4Y8xvX1AbpZVt7bPwrS/H+7LbS8yH1/ZdSc5T6pNy4mmMt1V8a58ma1G2pZs6prHMNvmZVqflyx1JuDouusW7PKXWemvP7mlXVzpdrL7HqZFtunngeTddYt4FtO4igvelfgsy94GvfAGrnKM0X+/3XEj1W0zV6vCTrNNmvx0lyTCsRhnXINUNoaf/9vEHbfn5Z19T94OBrc2F6w0Hb+v6UWPNEsl/XlsZGtXPk5rPqUl/1bdkW6b7YL7/WkLVxboscM7XSeWL7Otexylg9JjdHqs9qz82bO8e6/NxRql9+XcUqY/WY1HXk5vZ9KbFf1sbbmtWn22rnAjbtAIJ2TYBaM2QpqRd8vF3zJqDHaVadJdVfGmfJjRkzn6wddX0hzFrhUgXWRAjNbw2aN2hnt3wMrqm9Ft+XvJ4dWNH212e115Bjrds1c+txmlWnWXX6a6pNS/XVjNVkbWneuZXOP+Y6dO0q92HMHKk+q32VeaZUutYx16BrV7l+P0aL7bIm3i6xamvnKo3Vcn3Apu1/0A6BxPind6mmZoT4Ipcvdv3CL70R1L5R1MwzhjVHlOsvjZVkbTyvRY4J1gra3UrxNoN27b+YdHOFxyF1vVsO2ub3Z4Q4Xs6j5yydo/YacnWxr3TuVJ1k9ZXmTZF1/naKHDMX6zy6rfZarHEWWaPp/lx9qs9qX2WeKdVcU+11WOMsskbT/fI43i7N4elaax59W7P6xtYD27L3QTu/itmqqRkjvsj1V22KN4qaOawa2Zark3L9pbGSdW7Nbk+EYR1yzRBaCtLzBu12b3nND3PdarZ/Pubm3GLQHvc9s8Va/VXLzVl7vrFzrHrOmrly4yVZlxpTO9e6rPPottprWXWcNGaOVJ/Vvso8U6q5ptrrWHWcFMf4r5Luz0nVx9u181l9Y+uBbdnvoB2CSiGM1NSMEF/g677Q/fha1ngv9smvKbIuJddfGivJ2tS4VHu7BUN+v8Se5lhnhNB2XC7o5oN2O75RWBEv9hdWtfV1Dn/5s9OF8NIPBu343HWNk/q+RKV+L9bU1OaE+1XJGu/l+ixj5krV1pxT1qwzzxT0eVa9ntgv60pjLHqMP86RtaUxVq2X65uKPkfqnKVrif2yrjRG8rWSbNe3ZZum+8YeS77PYtV6uT5g0/Y6aNf8gmNNTS394pZvCDlyjBxrtWs140tzxf7auni7RI6VrNocPX4RHiMdIrsQ2qspfo9zQbsL836eXGAdnFcH+y5s98QQvTxHfwU7ththO/xAIeay7uOixhg/Uu9cBdZ4T/fpcSlyjBxrtWu5urFz1M5VmremfwxrjqnI+UvnSvXr9nhcms+SmsuS6rPaU/Pm5p+SPE/pnKl+3R6PS/NpVn1qrtLcteNy81h9qfG5eYBt2OOgnV+hbNXUHH81bzxT1dTYzTfC9rmQ2vpxfMWgPs3vIGzyebIJY661tnaKul18DFe9X6lxvr0kNc5qn8MmzxXVnlPX5R6vEmuclqstzaP7rNrc+FpTzAFMbX+DdljJK4SLmhrsJb8qLkN1u0q+h8+FbkV733+YBABgF+39L0MCNrEdJNi3kL3cprJ/q/QAABwPBG0AAABgBgRtAAAAYAYEbQAAAGAGBG0AAABgBgRtAAAAYAYEbQAAAGAGBG0AAABgBgRtAAAAYAYEbRxrFy/f6NxnNyx8cfnWXv/ZVz90V9655E6Ktnnd4j4X1+M+u8ldMesAAMC+I2jXOvFd94dzP3Af3GH07bIHL7m3rn7oLp0z+nbaGXfhnSYkv/qc0bcUgvYnN7uLRp+3+aAtvHwTQRsAgANG0K5F0N4wgjYAADjeCNq1CNobRtAGAADH2x4H7bvdB48863536u4uJD/bGYbl10/HvtZHJ9J9PY8cufOyThx750/9oKn7rnt90fZ191Ezzs/f9sW5RM0dR+534Rrb61/UnP76Yt4aJ1+86q40Adv2tjvbq3/OXVI1/WDeht63Xjzjbjn3tqi76i48KOu6YCvmicLYWNeF/0W/DMK6T9E/MIwO2mL+3ly5a4qPjxH6s0G+ELS/+dKv3PXr1937L502+wEAwPG290FbB9l+IO5qZIgNQbcftoPCivaYoB2uKXUN3fl9zeIauh8UBtdUo7ii7UN0P3i3IV2G6G51OYTQZa0OmW3IFnN15+6F7BDU+wHdDqszrGjHMK3nrLim9jGxf0BJPrYEbQAADtr+B+1c+A0BVgbhVgjNegV5yqCt5u6NNYN+Oy6szi/aKhWDtmEwpgu9Kgz3w6cVjHVbe9wL3l44n14dnzhodyvxg3PXXlP3mMg6O3wLbB0BAOCg7X/Qzmy56G/fUFRonjJoZwPzNoJ2bzvI0iBoF0JvakV7Oc9wi4rUv8YJg3Y8hzlX/TX1V7kTAV0iaAMAcNAI2saKtmlfg7a10jsYUxd6rX3h/SDahtpsOF2YMGhnV7RHXJPcYhIeo8xqtkfQBgDgoB100C6F5549Ddrm9oeVgnZhv3JQF55bEwft5nb8QaB/jeOvyYdyP1cxnBO0AQA4aIcdtGNNzap2F4BTYVeH6vZYz72FoB23RqSCpFyl9cddyO4H0vqgXQyfyZXlocFWFMOoX4aMx7371hhxTctVe72n3FD5y5DX33jW7AcAAMfbgQdtL4btvn7Q7YRVbVHXW8FW8/jzhvptB+2GCM+tfniN4XMZIPXqdOWqbxdYB0TQTdbpmqA7r6jTK+Zjg7acsxesq6+p8IOLVFrRfvrNNmhff9M9ZfUDAIBjbY+DNjYqtUWla69ZLV5FKWhPr2aLTKe4deS0e+l9gjYAAPuKoI1pdCvCgwCaap/IZoN25cp+VLmizd/RBgBgPxG0MRnrr45U7WVeQwjan92w8MXlW826tcitN8WQfYv7XFyPGbSPXnbvhy0j190vnlZ9AABgbxC0AQAAgBkQtAEAAIAZELQBAACAGRC0AQAAgBnsVNAGAAAA9gVBGwAAAJgBQRsAAACYAUEbAAAAmMHuBe17P3F//pZzf9b48yd/ZtcAAAAAO253V7S7wP0Xf2v0AQAAADtup7eO/OULzv3ZCx+YfQAAAMAuI2gDAAAAMyBoAwAAADMgaAMAAAAz2Omgfcvf/of7s7f+0918r9EHAAAA7LDdDtrBB+4vwp/7+w/3l2Y/AAAAsHt2Omj/1ZP/ScAGAADAscQebQAAAGAGxztoP3jJvXX1Q3fl6tvurNUPAAAAbMkxX9F+zl0KQftD99aLZ4x+AAAAYDuO/daRky9eDUH70jm7HwAAANiGHQ7a7V8b+fMnf2b0Rd2K9juX3EmzHwAAANiO3Qva937i/jz8Ob/8avbZV9stI1defc7sBwAAALZpp7eOAAAAAMcVQRsAAACYAUEbAAAAmAFBGwAAAJjBDf+/////4gAAAABM6X9x/x8j1rpNyv4dXgAAAABJRU5ErkJggg==;" parent="1" vertex="1">
                    <mxGeometry x="-730" y="-800" width="730" height="867" as="geometry"/>
                </mxCell>
                <mxCell id="5" value="" style="shape=image;verticalLabelPosition=bottom;labelBackgroundColor=default;verticalAlign=top;aspect=fixed;imageAspect=0;image=data:image/png,iVBORw0KGgoAAAANSUhEUgAAAokAAAKFCAYAAACgFXNaAAAAAXNSR0IArs4c6QAAAARnQU1BAACxjwv8YQUAAAAJcEhZcwAADsMAAA7DAcdvqGQAAHY0SURBVHhe7d3dq2XVne9//wWv+sK+aKQ5eBHiLxLMIREfYpBfSisqhVZVg32SlKlCLZ8uxBNMHTUkmLI6RZ8cBRVFoY7WCXXMQ9F0JewGfxiIIIHgoVGOeJpAONfB/gfGb44551jrO7/jOx7mXHOvvdde74sXa83xHWPMudZee81PjbnWrquu+8KXneVrt/6/7gv/z380a2PNNdecx9S6/UP3128691fec7+y+zROvfSeu3S58dLTZh0AAOCg2e6QCAAAABMhEQAAABFCIgAAACKERAAAAEQIiQAAAIgQEvfIqcfPmO1TpOaacx8lfl9jWfN4uqbHSbJfiuxXOwYAgG1HSNwjOqxY4WVKCLLaS/Ok9q3pPpKuj92Wavvm5pBkv9oxAABsO0LiHrHCim7LBRpfS5F9rPsWXS9ta74+ljWPp2upvrk5JNmvdgwAANuOkKjccPhJd+rBo+4Go7Zw41H3wONPujtuNGqVrLAyNcyk+q4yR2m71pRx1r5TZD+L7qPHa7IvAADbjJA4cKc70gSFI7dZtaWbjjeB4vidZi3HCiWe1TfHmqOWNZ9F9y2NlfuoVTOH7jOWnCPcn2NeAAAOOkKidNvJJkCcdDdZtYW6IFmiw0uJHCuFmtUnNy4nNc63B1bdMuUY5Bi5z9ButVl0PdzPjQEAAB1C4sKt7o4Hz7gHDt9q1JaqLkdXmCOo6Dly29b+fJuU6jeGntNijZNkH+t+qq752tgxAACgQ0gMqj5nWBcka1jhZQw/Lif0kf3DfYvumyLHWEp9xsyh9ynbdZtm9ZU1TfcBAGDbERJ77ecMSyuE7eXo1b6wEqwSTsI4Od6aq1SXdL00X4rvU2KNk2Q/OS7XJsm2Uh0AANgIia3d/cKKZoWb0GaR/SSrryfr8jZH9yltp5T65eq+Flh1rzS/ZvUfOwcAANuIkNhoP2dY+sJKezl6tS+syAA0R1CRc1jzjdlXbry+n+P7lVjjpNBHj8vRcwRWLdcfAAB0CIlr/sJKMEdQCQFJ033kdkroJ/tbbSWlvjVzWX3ksdTMEaTmsuh+AABsM0Limr+wEswRSuQcqflq+ni+ZtVzYyxhnhxrnKT7yO1wv2Yez+pXOxYAgG229SGx6nOGVX8/cZw5goqfIyXUrVuLVasZp5X61swl++j+uZrF6lMzDgCAbbflIXG9X1jxQkDRYack9JVS7Z6u5ebRrL658aE2hZ5Hzyfrso/ctvoFNXMAAIDYVofEdX1hRZsrpKTmGdse+PocfVZRs3+rPcXqv5vHDwDAQbHFIXFvvrACAACwCfjiCgAAACKERAAAAEQIiQAAAIgQEgEAABAhJAIAACBCSAQAAECEkAgAAIAIIREAAAARQiIAAAAihMS99Hf/5v7qzX9zf2vVUHbsfvfRa3/v3vq6UcMuucm99Q8n3Uc/+IZRa9z+ofvruV/T7Zyu+V1x7q8f+0e7DwBgdoTEGR25+H33ypX73M1GLdKf+P7m74xaqzsZ//6Rm4zafra+437wkb9vQuL97sdGDZ0f/6AJdP9wl3vQqHUh+6T79TGjlvQN9+tmTO7n+7fP+UA3V1D8lfsbwiEA7AlC4ozqQ2LNia87GY87ge8H6zvuNgClVrTQap8jM0gXVgRTvn6X+33x5/uP7tp/bILic78yaiOx2g4Ae4aQOKPakNiutPzjh+4/GLWFTb2Uurbj3tSV1vXqVlvjn0eqvaR69ba4Ul6JkAgAe4aQ+NwJ98rvmnAnPPOc7neLe+iK7POYe+hEqB1yz4ix2tmXbxHzeN0qon3y7Fd3XktQlw27VSJFrAy1J/R2jJpXrx71q0ODeYwAofe3DGjjjnsWYkVrcFzGylgXbBJ9Eitj1WForHZ/3XM7OG7rOYp+LuJ42jCeOD5ZM0N7t9qrn6vS62nRp/LnWfWPoRJCIgDsme0OiSfuc2ebIBeHQqkLgYOw1wZLGRQ7VSuJ7Unv3921txs1IX8y7k/yg3r8WbF2jh/cP7z8q0JDCFAyJMUByQgViXA1JkSspH0czb4ai8ccHVMfXrPPU/y8ebv2OPoA9+v2Z9M/n8Zz2f0MhuFOHlNbTxzf4OdXNXfd62n0Jeo5Ah4hEQD2zHaHxETYk25++TEj+HUri3qVsCYk/ofH/r1idaU7GevgEpgBJhWQVEAYhMTKoNduq2BghZjScc+p2786LvV4zCDVh8voeRo8Pjs4zsE87n5/i2NqH4d+bvsg148bPDbVf/jz048lfmx1rydv5PMywyXndjVyjs82AgBG2/LLzcPLyNaKYhv8+nrk4qG4byEk1l2CU6HBqEUnarVCGPrpcCd1gUVfstTz9/NErEudueOeVxts5DGElcXF412G5CEdvuIwaT8v8+jmVsegfnZdn/jY5c+87dM/1h/71eLm+eiedx3Uh6+D+LHpn3cvej01Ev+oSFohJHbfkJ7hM40AgMn4TGJPhkG5Qlh1Cbk320qidYIOzFWmPhDJ1aCKE7q1QhjC1mJc7li0MX1XElb/ukvpXYhSoW5MoGmPux8/NgiNYq1a6uBm99H8z64Nds3x/rq5ldvD14eczwiEUX8xRq0uxgGzoA2J5Y9W5MzyuUYAwCSEREUHvfZy8+9OuCOiT0pVoKz4TGL2ZGyd1PtgNwgWFYEtDolh1VCMGxH8RoeIyeSKpR1oRoU98ZwuwpbVb2X2ql37c1gc/5iQ+I2mb/d8t899M2Y417Kvb/ux9fOpfT012n3o5zmHzyQCwEYjJA70l58Hl5H7by9XrCZ2gTL/Gceqv5GYC2Z9+FkEjbav+iJEoyawteFh0acPJz4cDMb1wbEQWlq1gfKe8+7Ny++5S5ffcqeseonej35OWonwaArhuNT/aXe+Pe7L7sw9Vr3ADK7dccpj7352uedR/KzCzyUEO2NcN1/XPwrAla8nL3pN+bGZ54tvNwPAZtvqkNiFuiYASupzhh3rz9zYYVBetvbiP4ETPm+VP/F1AW5JBgt50u9O2jpo9CGiGOxEOOr30e5Xj+uDxHKfnh1icse9FMLWe+7N548Z9TwrAIfnZBiCho8vd0zdcZcC7jF35u3uuC+99LRRL+gD2CC4m8Exfh5bi59LCImloNwLATIR6Mqvp0A/n+qxSPydRADYeKwk7on9+l+NdSHADBozO/T85TZsnT9t19ere9x2oFVOvzU53G4P/scVADgICIl7pT357WFQbFeehitn3epVZnVoNv1K4tvn3SGzvk5jgnFYSZx4mXxL1KyUV+tXJPm/mwFg/QiJe2nPV0lGXD6cyamXVrhcO6PlJdbSJeZOWPncH8F2H2tD3cyv6f4fVHv6jyoA2EKERAAAAEQIiQAAAIgQEgEAABDZ2pBI4AQAAEgjJBq1TXPq8TPZ7ZKx/XNSc03ZhzVmzmOt4fc3ljVPSRhXO37qfrTUPFPmt8bMdZwAgPUjJBq1TaNPxH5bk3VN1/VYTfbVUvXSOIs1Zsw8qfGa7iPp+tjtWnJc7Rw1/Up9UvXaY5CsMVPmAQDsD4REo7Zp5Il4yola13P9d6OW4sfUsMYGul7a1sI+xrDmKakdp/clWXU9XsrVS2Mtcr851lgAwP5DSDRq87jTHWlOiEdus2pBTR+bPNmG+9YJuOakrPvkxqRqvt2Sq8vxWqpeGqfp/qXtWlPG+TFjWfPk1I7R+wlydTleS9VL4wAA+xch0ajN4YbDT7pTDx51Nxi1oKZPTjgB6xNxqj0lNd6SqlntoS1XSxmznzH0+JrjGMuax5ta03RfuV07j9UvtOVqKal6aRwAYP8iJBq11d3q7njwjHvg8K1GLajpk7fKSV3SfXNjU7XcMeRqFl+T9bBtkeNKUv2nzDd2315uzNj5Qn89rnYeq19qzlRb4GuyHrYtchwAYH8jJBq1ld12sjkhnnQ3WbWgpk8lffKV2zUn5tx4LVWz2n3bmP6BHjd2jjA+CG263xh6Tos1Tsr10TWrb9hPSq6PNZfVZrWHmtXu6XFT5gAA7D+ERKO2qpuONyfN43eataCmT61w8tUna1nLscbkyL5yTK5N10vz6LEpoU+K7KPHSnKMpdSndg5N1nRfuW2x+uTmlMaOTc0V2vXYlNAHALD/ERKN2kpuPOoeaE6G2S+j1PSpVDr51pyYdZ8p8/l2i+5j3bfaSn1z7ZLuY42pnafEGifpPnI7V0ux+uTmlHzNovtY9622Ut9cOwBgfyIkGrVVrOMLK0E46crbEjk+0O2pfl7tHFab3M7tw9N9U+QYi+5T2k4p9ZvzWHJz+VpKqMu+4b5m1XRb7Vye7psixwAA9jdColGbrvuTNvkvo9T0ydMn3NzJt+bErPtMmc9qnzJPIOtj9qlZfWrm1ny/EmucpPuktmvm8qx+si03T2mslqt5NfstzQEA2F8IiUZtsjV/YSXInaBrTsxjxqRqVvuUeQJZ9/dT5BhL6CP7Wm0lpb41c+k+1hjZlpoztOvb3H3Nqo3tL+n9psgxAID9jZBo1KZa9xdWAn3ylds1J+bceC1Vs9qnzBPI+ph9ar6P1a9mrBTmybHGSaGPvpV12abrus26XxofWLWx/aWa/ZbmAADsL4REozZJ+2WUJ90dNxq1oKbPBKuc3D3dx2/nyL6lMVZfL1fzZD3VtzSHZ/UJbTXjg1LfsfXcdrg/ZkzNtuRrFquvl6t5sp7qW5oDALC/EBKN2hTr/MKKZp18Q1vNiVn3yY1J1az21Ly5+QPfZwxrDs3qmxsfalNYc+m2INU/NSa063ppW7JqqfG5eQLfZwxrDgDA/kJINGrjrecLKympk27tyXidJ+29OCY/V2m+mj5T5eadq2b1zY2vVTvHHPsCAOwvhESjNtoefWEFAABgtxASjRoAAMC2IyQaNQAAgG1HSDRqAAAA246QaNQAAAC2HSHRqAEAAGw7QqJRAwAA2HaERKMGAACw7QiJRg0AAGDbERKNGgAAwLYjJBo1GB6+1n3+yVXOBR9e686K+qHnL7tLl99yp0Tbbrt0RRxP47Nzdj8UnH6r+dm9t/TS03Y/AMBWISQatalOvdScYN8+7w4Ztf2s6rjbkHi1++Bho9bYi5C4dJ37bJtCYh/qzp82al845s68PTXorTIWAHDQEBKN2lSERELiejztzqdW/O45795MBsgSQiIAYImQaNSmIiQSEtel/ZkZz/dqPwdCIgBgiZBo1MbpV3US3nz+mOjbn4ST9f4k3wa24bxmP1FfGJzg9f4uuzP3hNqY426MDonL+fPPgTymvmYE1nz42Q8hsTt2/1iHPxvjmPvVvkUf+XjbmnxOpO45bVcJzUvO/fOnQl70Wkn+g8AeP/SUe21nx+3svOEeN+sAgIOCkGjUpiqtyJ16SZ38jRO9PKEv2tt+y7FdHyPwDU7uXdsgoKl5gvlXEvvjieasOCbzGJcBbNkm7Z+Q2P7sFj8H4+diPL7B85+7XDwIkMbc1thmf8PnzRi3QEgEACwREo3aVFVhayAOTXEAbKiTv7Uf3dbOEx2LHbZmDYn9sVpBo+6Y6oLV0PSQ+Mydj7g/nX7KdvSb5hibHbCGz639/Fvhb/CzDnO2z8NyZbKtie1hUE9L/7xrQiIAYFsQEo3aVMWwFQKUEofE/Im+6yNDUxw2uwCRkA0yCVUhsZ8/MVftMennoB2XDS77aCUx+9z2ATihC4YySIb+/XPhQ6J8btvQOBwXP099u9hPy/wZERIBAEuERKM2VTZsmStscbirWg3qw8FANpzkVfWdYSWx+pj6Obrw45+j3Cqit1khMVpJVNoxfh7/PDS3fts/F+1zPHj+xHyD5ywIAXH4ekr/HAiJAIAlQqJRmyobgsxLplNCYnciLwWNqrDZyx53MOYziX2I1cc4+ph8WPFzFUPLZl1uLj2e9nlq+vjbNvT1z8HiORF9w/ynzOfWDqXpnzchEQCwREg0alN1ISix6hWt9HQncB2mykGq9kTez18Kf43scQejvrgStnVAqT8muVo6XB2zbMpKYiMRoAd8n7cvN6+X8Hz6563ZbuaPxonnKX5NxMfUHo/vOzkkhi+u/MK9cMSqAwAOCkKiUVvF4iTciwPgsnb+dHdSHhcSG+GSbsReSRr2scNg7rhbI0Oit5hzEDpqj6kPLDWBcpNCoieDXSD7hJ+vEe7iwLx8Ps0wrV8rzZztz0rsT78ul6yfy1H3wrs+JO64d184qmoAgIOEkGjU9rcuFMQrUX1YyK4CraAQEucXB+i0/RASt8gTbxASAWALEBKN2r7WrwxF4SnVPpc1h0RzBS6JkLg+YSWRv5MIAAcdIdGo7XvW5cpG+bN7K2hD4lXOBR9e685a/VYiLkVXBMRLV8TxNAiJu+vx17vLzDvvnnPfMuoAgIOFkGjUAAAAth0h0agBAABsO0KiUQMAANh2hESjBgAAsO0IiUYNAABg2xESjdomOfX4GbN9jDnmwHip573257GbP7f98JrgdXnwrfIz9mNLrHEA6hESjdomkW+E+g1SkmM0XddjNdkX06Wey9rnWPYLP5sUOa7GmDF6XxZrXEkYp+eS9Bhsnqk/x9I4Xh/A6giJRm2TyDfC1Jvi2DfTXP/SXKg39ecV1PSb+vOaMk6PCdv+1iL7arKe6luaA/tL+LmPZc3l5WpeqQ6gjJBo1OZxpzvSvEkduc2qBTV98uQbYepNceybaa5/aS7Um/rzCqx+vi20185jmTJWj5HbuZpm9U2R/VZ241H3QDPnKr+PSJvy88qNka+DFGucd8PhJ5v6SXeTUcMqunPa8mfwpLvjRt3nVnfHg7IPv3P7GSHRqM2hfRN68Ki7wagFNX0s8pcrSLUHeo5U/1S7pOep1785HL/TqO1vNx1vjnvCzyon9VyWnmP5swisProtRc+VY40Pcv3lfWvbag/3a/rOYo9DYvsa0yfV/pjmfu2t25SfVWnMKnVC4m6oe3/fjfdS2+aeb/YTQqJRW1334nzg8K1GLajpUybfCFNvimPfTEvb0xESpak/r0D28/dL5FjJqtW2Sbout3O1lNDH36boMSvZFyFx+J7QhZmmfcNDojbHz640R65OSNwF7e+PtXIorX71rB4hcQ6ERKO2sttOlt+AavoUtCcP8UaYelMc+2Za2p6OkChN/XkFsl/pZ5ab06rVtkm5feZqllJ9V+xpSOx+N44cbo5h8Trzbc17hH+v2LKQWPPz931KrHHeQQ+J61utE9pzWiEkrvV3jJA4B0KiUVtV+wtaeGHW9CnRb4ZyW9NjpVCXtyVyfFG4ZJYwfMPof7FFXa+2Li/TDz//YvYT9YXB8673J9/k9OdrhuZcBa5pl+RxhG1dz21LVq22TfJ1TdZ0X7ktWWNz5Nhx4teap09gYYXPrndz+NfC8PVmBJD2JJqaq5vnyG3+tn8N+v7+tRr9gzI+7uFrccQx7RF/PKn2VG1OcUhc/q5bz2U4ruH7Q18zwlg8/7qFxzPDMej371T4nCsk6t+TxHly+Hsp9rvi+eag/YNsVYREo7aSml+Cmj4F/sWsb8N92Z7allYZO07/C5kJxzcdV28y/RuGfK7kiW/Rrt6guj5yrv5Nc7Dvrm1wUki80e3Gv8yt5zW0WTUpPH55v0TPEVi12jZJ11PbuXlq+nilepnxeoh+L43Xa6qPn2vx+jDCQ/F3vhvj6/6161+T/jXX9m9fk8uTffl3pPKY9pD8+bXH2ZN9LLLvWHKeYYjrXwvRc1Px/mC+X3TP9TBs7oXl6yD9uiswHt/wvbB/7lLa3x3xerSI5z0O1/3Ywft2mE/1O65/ftbYod14Xz9oCIlGbRXti7zwoqvpU+J/ueRt7X3Jtwe6Pbc9XfmXNha/UXdvJOqNWZ2ErV9+3Wb/HLpj1G/wc7+ZhOc09VznnnOrT2qe1LZk1WrbpNI+w3ZqHtku+9YI42rFJ6OGDnIqnAXta2HxGu5f0/q1URUmpO513u7bH8eDJ90Rf6nZ1xLHoccuX7OVx7SHVvnZpYyZa/Hz73/m1ntS3ftDH5Lk+H30PHvdY50SWu33wu73xHh8NY9b/44NiN8B2a5e/93jqXl++9+D5PmmVIdHSDRq08WBJlbTJ0++Gabuh23dZrHGhVuL7DtOxS9leNNW5PNlnuCV+I0kft7bk73az4I6xt0Kian7sk2z+uj+pW3J12pZ4wNZt8bp25xSn5o5coZBr6dOYOHkalq8FhKv6ehk2Pfrx8cnyeEJcnB8+uRb/B2pPaa944/Xah9DzzFmzsHPNvF7Xfv+oN+PzNdWleFrpBOHIet1WTyftK+hpu+o97DuNan3FUSvo1VDYuJ13VnOW/9eXHG+Cc+LN+P7+0FCSDRqk6l/8Zhq+ozgX9zWfWs7JTXOGl87p63wSxveJAb1ONzpN2WT/OUP1H7r32zG9a0hn8dwX7ZZ25qeo0SOlaxabVto10K71Ve3WWS/VeZJMU/k6gRW9TrLBjL7hNnuu9mPt3xdD0PigJyr6ndk3DGFY5Ftu61mf6U+uh4ehyb7BIufrfl8dqp/5/s5up+d/1kUgtKahVBZDJKR+L03a6aQaNaE+vfiipAYhNdBa77z80FASDRqU5knHqWmzxjyTdB6Q0y9SUq6T9ieOl9a4ZfWfJOZEhK7/ZTe3OpCQKf+jaks9Rymfg4psl4aW5pLm6N/bZtF9yttj2X+PPt/WCxOUjUnvdRruh2bf20NjqE9SSX2JWtVvyPjjsk/5lWfz7Fq9lfqo+tjHsPgd7//uev3i9HvD/759nPN+P6+qva4msdWCl62ESHLM1+bSjYI1oXS+p/LyOP3KoPqNiEkGrVJcm/yQU2fkeQbY7iv3yz1tmbNoe/n2sbo3rQSv+DRL2j3puH3OSUklt8c+vkrwl+3z3l+dmOe19zzLWu6X2m7ZGx/S+oYauYu9Vn5+PpgMAyE3Wtt+frrX0djX2v96zh/slPjcu8Nslb1OzL+mFZ+Pkeq2V+uT6jJPmMeg34P6bb181P//mC/fvZSeF3UhKmM/nHlX8u9lUPi8ueQfw6tn0vzmo++uFI431hqHsOWISQatSnaF3fhzaSmz1j+F0rel9uSVQvbsl3ft4T6NOHEuyTfEMKbxLLW9ZdvUl2fwi9+/2Yk5+roccuT7JL9JhH+VR5UvXEqflxNW1Bb0/3Ctr6tNba/Rc6h5yvNn6qH9tL4GoPXWvt72b0Whieo+PXqLfuU6h39um5FIS4XEpdzln9H6o4p8DWrfbfp47Okxlnbqf4W6z1k8fs9+Mdl7ftD/5zP/P4+VftY5joWEYAXrLlnCIle8XelpV/jqf3GvwvLfde/928zQqJRG697seVDQ02f8fwL27pfKzfemm/KPtYv9Vz3bwrRG856TH0+U31ke26emn1oU8ZoYY7UXFOPeY5jm09/Etqj15RtPx7TPHKvpRJr3Hy653zu93dgrxESjdpo7b+gCitbNX0wj/5fq9EbdqodmIyQiJlX7oB9hJBo1HAAWJdIGrnLHMB4hMTtJS5XEhBxQBESjRoAAMC2IyQaNQAAgG1HSDRqAAAA246QaNQAAAC2HSHRqAEAAGw7QqJRAwAA2HaERKMGAACw7QiJRg0AAGDbERKNGsq++rO/uO9ceM99yahhRQ9/5L7zyz+72+82arvgS8/+udnfR+6rRm1rnbvGuU+ucZes2kHlH/OH17qzVg3AViIkGrWD46T72s/fd/e/8kOjtpo9DYl3v+eO/bLZ/8/eGbS3x9S03/2w6LuJNjwk7sd/QBy5+H33ypX73M1GLfLwte7zT65yn50zavecd29efs+dP23U9rOq477effDhVQRFAAuERKN2cBzwkDgINu+4u9s2QuJYhETpOvdZExA/v3C9UWsc6JDoFR4/gK1CSDRqB8cBDYk+RDX7vr05hkUgbNqOPfuOu/0CIXEsQuLSpSuFlbQDHxIb7aX2q90Hm/57BGBlhESjNtm9r7q7/rkJZUEUzvrQJvrc/mhcv+tHJ90Xf/Rb0e+i+/JgnsajF0VdzaWPQxnus1IbXLqVugUdBBYrfIl6O4cPI8tVP+/Ysz9Z9mn9pA17i3k8OVcfEr/kb9tLzr6/D1XduMF80XGrMFR9TGtUc0z9cz0MxF3/8vM5fA7ikLjc73AuPY8MssNj1aY8nze//Jh75XdNuNMuHhL9bnEPXZH1x9xDJ0LtkHtGjlPOvnyLmMfrVtGsy8yHnr/sLjUhy/aWOyX7n34rX//C0+580+4D23Beu99wLu+yO3OP6Kf399LTi9qo417oLztfuc6oeUfdC+/uuJ2dX7gXjlh1AAcFIdGoTdKHNh/wZNsykP3Q3e5DmgyO0RgRIhf9jHF9CCyHvXlWErsQMVzZilaL2mBT06cLDXIFcLBtjdP8mLbug0kTbnxgardVSPTtg88t9iFnwjGt1eKYxPPZtont6pDYh7fB89m0iedlGBKt/sv2wdz6mHpzrCR2AdEIfIOA2LUNwt5zJ9S4TtVKYs0KWmlFztdFSLvuC8fcmbebQPb2eXdo0SbC36K977cY2/eJAt8wIHZtMuzpeXojV0DPXrg6s6JKSAS2BSHRqI1nBDmlWxmMVwS//Eoz7uevui+223aoG/ZptOHyt+5r9y772OYIiVbw0EHAWMHz2iCjg44ONn1wW4QWvR1rQ02/b38cd//MX2r2+04chxCtmlUdU41vuvdPP+X+ZHrE/epGa0yCGb7UY6sMie3PSa0caovnpJ/TetzyOV+228/3HCHRCnW6rQ2SUfDrVhb1KmFNSMwHo96Ey81xkIsDoHfqJREarf1EbcsVyUUfr11ZVKuEY4+bS84AGoREozZaxcpeG/SssNYGvhAeK0OiXHHM7neGkKiDXm8YBPrVp4RFkKldeeqDW8sIG4PAMji+ONx1IUnTIbHimNYpd0zhsVWFxLqw24XE/rlJPGb7eeyp+ed47lIriTL8tcGvv3QcGaw41oXE4ucRvYqw1Ya9pk/60m4X7t58/thg3FBqJVHM0x9LvC9PXZImJAKYgJBo1EZbe0hUtT4sDi51t9YbEnMreK2a8COFla3WMtjZq1odOVcXbIb7W6ya9dujj2kdzGNSgW/2kJhfSRz+vPPG9E1qLxuvHvyCda0kdgGxdEm4JiT2l40XoW/F4DcpJG7Z34kEECEkGrXxusvNcUhbmvVys8HuM1dITFyOXQSBujCSCz/ZgKmOIRfgljX7mOpCYsUxRXb7crMKgFUhsS6wDZ6Tdt/xY4+et4zVQ6J9yVjrVhtPuCNGTasKlCt/JtH+POCkkGhdMo7UhM3eyJBYFZgBHHiERKM2Rfg28mA1UX5xJXzjWAa2/osryzFTQ2I6DHYrjca3o6slAmETJAZBIBEuBozw0waKUvhQ4+pCYhxWuqCj9jf1mHZT1THpQNhtRz8Dc3Ww6Su2dQAMz9PwZ9nPXxH+uvE65MYWl2X1lyzCN5bVymGs/zJLxWpifPnaUvM3AuPLwNLgc4WNLiD6xzklJKqVQ0OYvxz+8sc9VPvt5h332hNWHcBBQUg0apP1oW8hCm39F1wW9JdP6kLi8M/j9IyA2OnnFH1zl8VtywDi+dWrNgjowNAHxQEjSCbrreG+OkZgyoXExZxqLt/eHoMOiaJP6BfqeyEEu9IxDY7dP0epFVD9nA4DsA6JXhdKGzpcDubx7DC4GN+Lj0lcTrWCy4n73Fl9ubmlVw6tP3Njh0H9GUZrpbL9XGLpMmu/KteFPy8OgIuaD4zRqmDdCqD92cZ43DKICtZzmj1uoWJF9fHXu5C48/pTZh3AwUBINGrYJW2oKa8wrdV+PKatZ/xpG9FeXmFcxf74H0fiS9SyvbzCOF3l4z9yzr1LSAQOPEKiUcMuISSiRr+KGIXEVPvc2pW0vQ2K3SpiHBJT7fOo/7+bu5VE/k4icNAREo0adgkhEbWsbzc3nnnO6Lsb9vzbvda3mxuDP8o9M/+YCwHxWy/8orvMvPOGe9yoAzhYCIlGDQAAYNsREo0aAADAtiMkGjUAAIBtR0g0agAAANuOkGjUAAAAth0h0agBAABsO0KiUQMAANh2hESjBgAAsO0IiUZtupvdr777lPvT6afc+7da9WDZL8j3L3j4Wvd58v9a7ff13SPumahmqft/ZQ+Uij8iDADAtiEkGrXp6kLiq0fHhLaS0v+1ulkhsfu/ad9z50/L9u6Y9sN/R7Y+/c/t6DeNGgAAu4+QaNR21zfd+6uuHC704ebKdUYt2MyQeOmlp5ftp9/q/1uy3QqJXilsrxshEQCwtwiJRm1X3XjE/etMIfHshasr/n/ZzQqJp17y+z7fHMMyEJ566bI7c/q8e3NXQ2Kj/f96U5ft142QCADYW4REozZef0LvP1/4p9OPuF/daPVrzBYSu1XEmpWv0uVtH8y6lbqlKCQuVvN6cqWv0c7h2wb9mnB3j5ijFS4dC2KuLiQea2/bS873NOHw7fPukL9V8y1WHQPfr6+FueqOKahZmU175s5H+ue5Wy0Or4d/vfPmYd/+NbB4vcifja4pi9eN+Trq9iv3V3NM7evDh9Fbvy32lXoNP+Ve29lxOztvuMejGgDgICEkGrWVtCdafYLVIVKpXuUT2i+rXOU+O2fUlHRIPObOvK3DVbyS2IUxuYrXj1PhrgthcgVwuG2N00JIbINd08/vu93WIbGpD4NsHz5HH9NQuzo78bOJbSDrf6aL8KZfD8brw/75FFYSx4TEwjG1+/d9FseQW30mJALAtiAkGrWVmCFRmGslsb00WrrU3FmsFOlau8KmV9Z0SOy2h18kabRjC+GrDXZybBxAh7oQ2dV937fceX+p2R+fsZKotccgAm/dMSkrXHLuApn62Q9+3l34slcW9WtmzpCYOyY7pHbjvu1eFW0AgO1CSDRqK1lTSKz7PGInFRLbFUJ1iTYKcn2oWl6ulZahTQc0c67G4BJxtKIoQ6I6vijc9auSYa5Ah8SKYxpYOSTmgtXwkq82fE3MGRLzYY+QCACwEBKN2ko2aCVxTEhMrrz1coHMHCs/J7gYNwyJQ3KuEBCHq4TmSuKYY/JGPK9abUiMVhJNhEQAwN4iJBq1lawrJI74TGJKt6pnX45dBrXCylvPDGTtXPlLxMNL3rkAJ2v2MVWFxMIxrf6ZxFywKgS/AUIiAGBvERKN2krWFRKrv4kbLnEaJ3wdCPttv7onA1i4RJxcfWvEgawLcrkvqXjDoFobEvuVROtLKtmQWDqmGb7dXApW7eujbjWxDW/J+XQgDD/n3Q6J4Ysrv3AvHNE1AMBBQkg0auMtT9ARvRI0W0gMn0ssfX4uExI9edm3DWv2Jd8QFAfMbxIvRauPIoQuyZXMcki0Am2rORZ9+bzqmKQVPo/oVa++9UFxQIW0Tr+aKPoNXjeDefw/TLr+uxsSj7oX3vUhcce9+8JRVQMAHCSERKO2OVZb+ZpTvGq398Yd0377H1f2sSfeICQCwBYgJBq1jdJ/NnGvg+Jmh8Q+bO+r/7t5vworiW/wdxIB4IAjJBq1jdMGxb397+Q2OiT6y8wExKLHX+8uM++8e859y6gDAA4WQqJRAwAA2HaERKMGAACw7QiJRg0AAGDbERKNGgAAwLYjJBo1AACAbUdINGoAAADbjpBo1AAAALYdIdGoAQAAbDtColEDAADYdoREowYAALDtCIlGDQAAYNsREo0aAADAtiMkGjUAAIBtR0g0agAAANuOkGjUAAAAth0h0agBAABsO0KiUQMAANh2hESjBgAAsO0IiUYNAABg2xESjRoAAMC2IyQaNQAAgG1HSDRqAAAA246QaNQAAAC2HSHRqAEAAGw7QqJRAwAA2HaERKMGAACw7QiJRg0AAGDbERKN2iY59fgZs32MOebYFnM/V6n5xu5nXT/D0n5kfV3HtA6px3KQHiMAaIREo7ZJ9Ek5RY7RdF2P1WTf/co6bs0aVxLG6bkkPSYlNSbVnjOmbyD3k2KN0W2SrJf6WsJ+a1jjA6u/xRobyHrNfQA4aAiJRm2T1JywSicyXc/1L82136Qem7+1yL6arKf61swR1LRrst9Y1nxjleaR9Sn7tMbUto1ROz7007e6DgAHESHRqM3jTnekOYEcuc2qBTV98uRJKnXCKp3Ixpz4rNoNh59s2k+6m1T7fpB7bKs8br+dIvtpqXppXM6qY1NS/a12T9fkXBbZV46Z2lZrytjc8WpWv3nd6u54cLhP6z2k+70U/Y7fGfUBgBxColGbQ/sG/eBRd4NRC2r6WAZv/L1Ue6DnSPVPtUt6nv0eElPHL+9b21Z7uF/T1zJ1XM5ujJXtqfua1S/X32L1r20LUvv227It1S+05Vjj9PZuuel4cwyl943bTjbH86S740ajNrOq4wGwkQiJRm113b/0Hzh8q1ELavqUyRNT6iRVOnmVTnal8duwkhiEPv42RY+RUv3D7Vh6Ls0aI6X6yPbUfcm3W/1S/VPCPDWs8Z6sjb2vhZq+1fet7d1Rd/WhDW5rWjkkJAIHFyHRqK2s/Vd8ITTV9CnwJ6XcSavUHuh6aVvblpBYqtdI7dPfpsj+Wq5eGuvJ/Wiyj3VfkmNq+qdY/WvbAl0L2/pW1zXZbt2vnWdWNx51DzT7yYfE/nI0IRHAigiJRm1VNf+Kn+Nf+v6kFOhtTY+VQl3elsjxcUjsVjt8v+FKqf4slbwc1teMk80qIXS5ryVZ033ltmSNzZFjJV0L26n2HN8n169mjhpyHmvO0JaqabqPZNVr24JUbUy7bktty3Zrnnq53w1hrpDYz7PYXyrktf+YXfZb/j4vf8ct+gpJ9zss+6znUjiA1RASjdpKat7Eq97o8/wbrb4N92V7altaZaw3DHH9ySM66XTtg5OH/tyU+Tmq7oQ39bJ86bGE7dxjrOnjleqe7pOau3Zf/jZHj5Os/lroJ8eE+6Vaqi2ndo7cvLoWtvWtrqfk6qk5xyn9bugAqfS/a3EQk/K/Z9ZqYJhPvk/dcPik+v2sWEk0f68BbAJColFbRfvGmnvDbNT0KfFv3vK29r7k2wPdntvWFiExrE4YKxj2Y9YBsA+YcvyKJ5jax5Z6jLJd9q0RxkmpfuFW9pPbkqzV9rOU9hm2ZXtuTquW62/x/WtZ4z1ZG3tftqXofvJ2irrfjd7KK4m5ecXvWb+fmn+clULi4v3BqAHY3wiJRm06Y0UgUtMnT56QUvfDds3JyxoXbi2yr9edBPp64mTRnkjEHAPiZKZPKKtelvfzy/uSrIfbnFKfVebQ7av283I1rzRX2JbtuTmtWq6/pXaOmuPQfVLbNXOltlNtY9T+brRWDon9P8QSFvOO+MdZcSVxsE9WFIFNQkg0apO1b6yFfzHX9BnBv/Fa963tlNQ4a7zVtgh2mZXE8omkNzgJ+pPLtJOKP04ttFt9dZtF9ps6T6qPbq+Zy/P9cqwxgdVfC/3kmHBfs2phHk33C6xabVuga2E7NWZMe23bGNW/G95MIbH4j9RZQ2LQH1ezfy//GADsB4REozZV+2ZZWPWq6TOGPEFNPYHpPmG7dr7B6l97colPQmMuOS2eIz/XCs9V7fFbbRbdr7StpepWe2muINdv7PGUtlNtwdj+lto55jyOVM23y1pu3tQcNcb8bqweEnM1oWo/nVEht1V5DAD2HCHRqE3SvqkW/uVd02ck6ySmT1ilE5g1h76fa9MnuW5bB8X+klPNyaQPmt7cqw36+MO2breU+kytW+01x+Pl+o09ntJ2qi0Y219L9Z3jOHJK/X091Se0j93n0IjfjZVDYiPxDzmtDX/q/cr64kr3+z7mfa1yNRPAniMkGrUp2jfKwpt8TZ+x5MnJ30+drKxa2Jbt+r4l1AMdEr3uBNMYnKj6k+GAdXLpT3IzP1eePH5539rWUvXQnhtfGlvbrln9QltpDl8vkX3lrcWq5fprqb6yPdzPzetrY1nzeLKu+5W2x6n83ZgjJHriH2ILxu9b+AdfkAp2i993o5+u6TqA/YuQaNTGq/mX8e7869m/4Vr3a+XGW/NN2cd43UluN04k4fhTjyP3+KbWUuaYL9WvZnypj66P7Z9qs9T288b0rZE67lS7vNVS7QCwiQiJRm209l/lhc8U1fRBa/xnnAAAwNwIiUYNe0FcbiMgAgCw5wiJRg0AAGDbERKNGgAAwLYjJBo1AACAbUdINGoAAADbjpBo1AAAALYdIdGoAQAAbDtColEDAADYdoREowYAALDtCIlGDSt6+CP3nV/+ZenCe+5LUb933N2yzy//7G6/W/fBwt3vuWPN83T3w0YNe+Pha93nn1ztPpA/k3vOuzcvv+fOnxZtu+p698GHV7nPzlk1AFgNIdGoHRwn3dd+/r67/5UfGrVdUhVmfuJuv9AEw5+9Y9RmdlDC1R4/jq/+zAjy/THZ/wjYQM+dcK/87jH30AmjFrnOffbJVe7zC9cP29ceEhvnrnGuORaCIoC5ERKN2sGx/pD4pWf/XA4NbbhY08ohIXEWXUj8izv27E8Wbe3PeitDYrd6565cF9f2IiQ2zl64ugmK17hLRg0ApiIkGrWDY/0hsQ0TpdDQXo4mJI6yp4+jW/m9+9nmGBY/W9/2kfuq/1luWUjMBrI9ConZ4AoAExESjdpk977q7vrnJpQFUTjrQ5voc/ujcf2uH510X/zRb0W/i+7Lg3kaj14UdTWXPg5luM9K+nOGiUvFc4XEsHIV2OGov2y96NeElr62WOUyLft19OcjG+u4FJ6lH1tHPw/556mbw6/+DZ8P/fgb+ufbWM7Vh8SH/W3/c/P9/XPUjpPzxcctVx9HHVONE/e5s7/7fhPutBPuiOh35OKw/sxz6drAlfvczWKeEMaiy8yBERJPvfSeu9S0XXr7vDu06HvMnXm7b29ddmfuUbVB/86h5y83fd9yp1R7q73srD4jKT3xhtvZ2XE7rz9l1wFAISQatUn60OYDnmxbBrIfutt9SJPBMRojQuSinzGuD4HlsDfPSmJ3MjeCQAhSRsCQurBhBDFpEcrU3J65itbPNwikTZsOd8UVOGN/e65/bNnnoOZ56vsMnqe+TT5vlc+Rr/vXgg94Ppy2/VVI/OrPVPjvXxujj6lGHxDPvnzLoq0LfDIg3uIeutK0XTy06BPGyaDYqllJbL+skvn8nwqJXUCUAdB72p1v+rz5/LFl2+m3hv30dqsLj4NxA93nJJPHRkgEMBIh0aiNZwQ5pVsZjFcEv/xKM+7nr7ovttt2qBv2abTh8rfua/cu+9jmCIldYIkCRLSC1Fl5JTE3rwhE3QpaxepTMQB1j2+42jXFN937p59yfzI94n51ozXGFofyhn4cVc9TInzp5z/382iJ14A/jgsfubv9pWZfSxyHHrt8fiuPqYYV6nRbuz1cVfTaMCmDo1cTEtvVusxn/xYhMawUxqt+7WpgtEqoA2AXJC+99PSyjxkcJS45A5gXIdGojVaxstcGPSustYEvhMfKkChXHLP7nSEk9uFkseI3EJ/UVw2Jw0uQymLePmjUrP4VQ6LaZ82cu0wH4pZ6HCs9T9Fz0vfrx8fP1fAfCoPj0z/LxOslConFY6qQWkkUl4hvfvmxJvj51UWDvpRcERKLXxDpQ2J8CXlpcfnZIkKhvrTcjpOhMUJIBDAvQqJRG23tIVHV+rA4uNTdmi8k1p685wmJpRXCeUPiQntcfbApPYZdVB8SJz5P7Vz289/uu38OlsEusZrsybn6YxzuL7GSOOKY0g65Z6LwN1w17EJivJJoWtNKYhv2jM8bRgaXrv3KYm4V0St8XhIARiIkGrXxusvNcUhbmvVys8HuM0NIjE7yeauGxGxNqNqPp8JVlcpjGJrvcrP52PoAu3gcVceYCGTt2HzAHBxDLsDJmnlMlSGx4pi0NgBGXyxRaoJfUNN31GcS+0vGKhBmv3yiLFYP/aXm7CqiV/hMIgCMREg0alOEbyMPVhPlF1fCN45lYOu/uLIcMzUkpsNgt9JofDt6hHBpsyZorRwSQ4goBYbUqpUOH31IiUJJRt0q3S5qnx8dCP1zIn8GNc+TEcj65y0f+tW42pDYz708xv65H+xv3DF1gcpeeatbJey/uFKzmmhcvo4VLukOQuJye3j8dng0tZ9DbPrKOVNqv9387jn3LasOAAoh0ahN1oe+hSi09V9wWdBfPqkLicM/j9MzAmKnn1P0zV0WTzE/A2cEr9VDohcC0FAcUpchpJMITH0IMftFNVXfI4Pnu30+u8c6fA5Kz1Pd81j82cogKMYta8s59Vzdn80xQqLo0/UTcwqLz++ZgSoEwNgzg28u2/2GfXrtaqLoZ6xUdp9LTIQxHRK9RdCTq4d9UBywLien/xzOUMXnEY+cc+/6kLjzC/fCEaMOAAoh0agBB0MfyIwwv3fmOyb9JZVBe+3nECdZ5xdESn/2plP7P648/johEUA9QqJRAw6GgxwS+9XBKCSm2mfWfzZxt4Ni1Zdcav/v5rCSyN9JBFCJkGjUgIPhYK8k2t9ubui/f7hb2qCY+QzgZOJSdOVl5nxAfMq91l5m3nHvvnDUqAOAjZBo1AAAALYdIdGoAQAAbDtColEDAADYdoREowYAALDtCIlGDQAAYNsREo0aAADAtiMkGjUAAIBtR0g0agAAANuOkGjUAAAAth0h0agBAABsO0KiUQMAANh2hESjBgAAsO0IiUYNAABg2xESjRoAAMC2IyQaNQAAgG1HSDRqAAAA246QaNQAAAC2HSHRqAEAAGw7QqJRAwAA2HaERKMGAACw7QiJRg0AAGDbERKNGgAAwLYjJBo1AACAbUdINGoAAADbjpBo1AAAALYdIdGoAQAAbDtColEDAADYdoREowYAALDtCIlGbZOcevzMqPacKWNWUdqfrK/72HZT6rEcpMcIANh8hESjtknmDBxyjL+fIsfU9A+sMbpNkvVSX0vYbw1rfGD1t1hjA1mvuQ8AwF4jJBq1TZIKFmMDx14ElNI+ZX3K8VljatvGqB0f+ulbXQcAYD8gJBq1edzpjjQn/SO3WbWgpk9eKliMCRxzhRM/T0qqv9Xu6ZqcyyL7yjFT22pNGZs7Xs3qBwDAOhASjdocbjj8pDv14FF3g1ELavpYrDDhlWoWWcv1q5Ean9pHbn9Wv1x/i9W/ti1I7dtvy7ZUv9CWY43T2wAArBsh0ait7lZ3x4Nn3AOHbzVqQU2fslSYkO21gWPVYDL2WHL9rX6p/ilhnhrWeE/Wxt7XQk3f6vvWNgAA60ZINGoru+1kc5I/6W6yakFNnwqpMJELIBbdv0SOrRkn+1j3JTmmpn+K1b+2LdC1sK1vdV2T7db92nkAAFgXQqJRW9VNx5uQc/xOsxbU9KlREzJKgcPXc31K48coHVdoS9U03Uey6rVtQao2pl23pbZluzUPAADrREg0aiu58ah7oDnBZ7+MUtOnkg8TVrioDRxWfy1XC3yfktBPjgn3S7VUW07tHLl5dS1s61tdT8nVU3MCALAXCIlGbRW7+YUVzYcJK1Do9lToqOnj5WqB7pPalu25ea1arr/F969ljfdkbex92Zai+8lbAAD2EiHRqE3X/Umb/JdRavrkyYCRChSyvSZ05PpMGZ/alu25ea1arr+ldo6a49B9Uts1c6W2U20AAOwFQqJRm2yNX1gJckFD3+bk+tSOLwn95JhwX7NqYR5N9wusWm1boGthOzVmTHttGwAAe4GQaNSmWucXVoJc0EjdWqbWAt2ntJ1qC8b2t9TOMedxpGq+XdZy86bmAABgnQiJRm2S9ssoT7o7bjRqQU2fkXSgmBo+ptYC3ae0nWoLxvbXUn3nOI6cUn9fT/UJ7WP3CQDAbiAkGrUp1vmFFc8KFLlw4WuleqotNy4I8+fIvvLWYtVy/bVUX9ke7ufm9bWxrHk8Wdf9StsAAKwbIdGojbeeL6xoMkjUhIpcn1StNqyU+un62P6pNkttP29M3xqp4061y1st1Q4AwDoQEo3aaHvwhRUAAIDdREg0agAAANuOkGjUAAAAth0h0agBAABsO0KiUQMAANh2hESjBgAAsO0IiUYNAABg2xESjRoAAMC2IyQaNQAAgG1HSDRqu++YO/P2e+7S5aXzp+N+h56/POhz6aWnoz4b58Yj7l9PP+X+1Hv/VqPPF77p3hd9/vXOm40+u+Edd/cv/+K+s/Bnd/vdus9P3O0XZJ+/uLsf1n022HMn3Cu/+/7SlfvczVa/TdE+nsfcQyeMWs65a5z75Bp3yaoFX7no/vjEH9w7XzFqwo9/cNJ99NrSr4/Z/SLt/Ffci1ZtQ9z88mPD19PFQ2a/Oo+6d773sfvj4UeH7VXP0/Xugw+vcp+ds2oAUgiJRm23nXqpCXxvn3eHjNrC6beaYHjZnbnHqM2s6nhm0YW/Rei79dtNCHzE/epG2edm96vvNuHw6De77T5U2mFyTn34+9k7Rm3pqz9r+lx4z33JqM2r7nhmdeI+d7Y5kT/znFGbURQcgpUCRMKUkPjwte7zT0qB4qfuN08YgWXgJvfWPzTB8B/ucg+a9bIXj3/sPt3UoDg1oCe0z8X3LrpTqVrpeWqDP0ERGIOQaNR219PufGLlUGqD25pWDtcWEtvAJ0KhGQC7ILlsU8Fyt9z9njtmrhxK3UrjelYO1x8S2/C2hpXDLiSecEeM2uxGB5Xr3GdNkPj8wvVGLehWtD49/lOjJhy733302t+7t75u1KpV7msfOnJxvuB/6vAfCiGw7nk6e+Hq8goxgAVColHbVfecd28WQ2J/OfpAhsRlAHzmzkeMlURrtXENK4kPf5S4vCy0QfLghsT2pL7lIfHSlauc+/Bad9aoBeXA0nnwkb9vQuL97sdGbZT2curH7jcrhc2Sk+5rP3/f3f/KD43aFLe4h67MFBJrH39Vv+6ys7tynVEDoBESjdpUbdgSnyE0g+BcIbGfZ7G/VMhrL1sv+735/LG+1q1oypq07NeJPh856VJ4fyn59Lfd+0fTnzd8ta090vTxIVJcep6iD3aLzxCmLhXPFRLbecT+EiGvvWy96Cf2q49XGe47/nzkKpfCyyHxkHtmcIlYh68uGJx9+ZY+nNn9qkPiYA4vMUb1a/c/qPlxw2O3L6l3q4j5y5GJz8UZ2s8i/uAbRq27DP37R27qVxvD5xXTq47t5dTEpdbZ3Puqu+ufm6D481fdF636KPmQuFhlzLxOgjaUVz72quepvex8tfsg9Xv8xBtuZ2fH7bz+lF0Htggh0aiNZ4S6QRiMv6gy0Ae8OIhJIpQZn1e0VgPDfDKQHnr+rSjcFVcS5/x85OKLK992r1r1Vvjiil5lHMkIfsPPFOovqihtwDOCmCRC2Zee/XPT9pH7ar9trwaG+VS/n+lwZ40dmuXzkVEQG1qEqf7zijKAhc8WLgNXHwzasctAp8NnVUj0+xsEjH5uFWLjY/BtJ5ZhY/H4lgGkG2MEklJ48AqrVd3qYQh9se5LK99wv/b3f+ADYlhp7D+/aIbKxtevrOmziT90t/ug+M+/dV+716rnhZ+Hbfmct68J37b4edo/39GX26uep8I/BgiJwAIh0aiN1oaot6J/vbbhS68GrryS2NX0Sl83rwhy/X6ifoZSSOzCZvz4RusvHf/rd7sVwnAJuV05/O4R94zvE0Jk08ffhpXG7tJ0LlhqXcg69uxPhu2pzx6uvJKY+LxiO+8yEHZBsrCfVikklkPkWLmVRLumV4tyQW4ZClNBYrACaNDzWME10oZEFQgTX9BpP69WuNRcHda+fpf7/SIU2jV9KTq98tiYfMm5v4zcBr/Y7Y9aY77svvxKvl6mXxtD1usp+vm2ui8IVT9uLjkDsyIkGrWxsiuAOnytHBLzl4kX87bBtW71r7iSONjn1BXFfnWwv3QcLin7lcL2ftveX47uA2MXDLsw2d4PQbJKfpXQDnMrhMTsZeLlvPWrfxUhUF7aXnVFsZEOid0J3wpj7Yl9MSYfDAI7DMQWq00DYpwVALURIXHOzyNmv7TSh8T2cvOivVtdHLYJk0PidF/80W+7MDnpc4ozhcSxj5uQCMyKkGjUxhq10jZTSCyuEM4aEoPhZfP8Y1CibzKHQChXDONvMocw+a/yz+JU6UJitJKYMlNItFcZl2YNicEgoMrL2OPsp5DYBcRhuIvGzRwS51xJzH1pxazlVh69NvyU/ybjXDZ7JbH0PHUhMf8NdgAeIdGojTYikM11udmuCVX76dSHxKDyGCTrz91En0+0/tzN1M8njrwcO9Pl5lIojT+3mDLhcnJlUE1Jh8RUTQeBuUKiPU80LhH2BkaExDk+kxjkLh23Nf23E0t/LmfyZxLHXm4O/ad9JnFprpC4B59JBLBASDRq44UVtorVxJVDYqMNpeXVxDb8qfBqfXGlWwkdcxm5cjVzYPnN5uXnCkMAXAZDeRl6OK4x9lvO/eXYqtXElUNiCIClkNZfBh+sJjaBMPriSvgG9IiVwcxj6F4L+WCfC4ld2LK+uCID2FwhMT6WbkzTpsa1/aIVR/3FlcqQONvfSMxdOra/oNKuLmb+6PaLB/HbzVUhccQl/kbV81T77eZ3z7lvWXVgixASjdo0ISgORWFwjpDo9UFxwFgN1J+XTAW7RYgw+umartcTgU+sDnbBUAfFpcVnEv32xKA4YF3unSEkeiEoDkSrgf0q4aJPar+6n9y39ZnL1DzitTk1JHp9uDI/H9gaExLlPL3BOPXndvxxtYEvDhF6vsFl8VEhsf9cYuGPLXehJXNJM3vpuP9m86BW+Gbz2M/lTbLev5M4JiSGx1/8s0NVz1PF5xGPnHPv+pC48wv3whGjDmwRQqJRA7CtZlhNnOV/WglGXm49oMqriXXPU+3/uPL464REwCMkGjUAW6z/P36zQbFftYpCSfjzNqlVwZHay6eTPot40PQhMPFcVD1P/c+1+FnEsJLI30kECIlWDcCWawNFYcWpDYrdZWf5R7STf8ZmrHZ+AuJSFxSjy85Vz1N3mTkfEJ9yr7WXmXfcuy8cNerA9iEkGjUAAIBtR0g0agAAANuOkGjUAAAAth0h0agBAABsu60NiQAAAEgjJAIAACBCSAQAAECEkAgAAIDIdofE2z90f/2mc3/V+OvH/tHuAwAAsIVYSfT6sPg3f2fUAAAAthAhsfe3zzn3V8/9yqwBAABsG0Jij5AIAACwREjsERIBAACWCIk9QiIAAMASITH4u39zf/Xmv7trbzdqAAAAW4aQOPAr9zftn8T5N/e3Zh0AAGA7EBJ7/+GxfyccAgAA9AiJPT6TCAAAsERI7BVD4j3n3ZuX33OXLr/lTll1AACAA4SQ2CuvJD7tzrch8T335vPHjDoAAMDBQUjs1VxuPvT85TYknj9t1wEAAA4KQmKr+1bzXz/2j0Yt6FcS3z7vDpl1AACAg2O7Q+LtH7q/bv/kTX4V8dRL3WXmSy89bdYBAAAOGlYSAQAAECEkAgAAIEJIBAAAQISQCAAAgMhGhUQAAACsByERAAAAEUIiAAAAIoREAAAARDYyJL54/GP36RPeFfeiUe9c7z748Cr32TmrBgAAgJyNXklsw+L3LrpTRq117hrnPiEoAgAAjLXZl5u/ctH98Yk/uHe+YtR6Zy9c3QTFa9wlowYAAADbgQ+J4bKzu3KdUQMAAIBlC0Jio73sfLX74GGj5j3xhtvZ2XE7rz9l1wEAALbMdoTEL1znPst9NpGQCAAAMLDZIfELj7p3vvex+/T4T42axCVnAACAMTY8JHZOHf5D+ydx/nj4UbNOSAQAABhnw0PiT91vsuEw6ELi5xeuN2oAAADQ+EwiAAAAItsREmu/3fzuOfctqw4AALBltiAkVnwe8cg5964PiTu/cC8cMeoAAABb5sCHxNr/ceXx1wmJAAAAwUaHxO5bzVfci0atVft/N4eVRP5OIgAAQGsjQ+KLxz9u/+TNp9lVxO4ycz4gPuVeay8z77h3Xzhq1AEAALbTZl9uBgAAwK4gJAIAACBCSAQAAECEkAgAAIAIIREAAAARQiIAAAAihEQAAABECIkAAACIEBIBAAAQISQCAAAgQkgEAABAhJAIAACACCERAAAAEUIiAAAAIoREAAAARAiJAAAAiBASAQAAECEkAgAAIEJIBAAAQISQCAAAgAghEQAAABFCIgAAACKERAAAAEQIiQAAAIgQEgEAABAhJAIAACBCSAQAAECEkAgAAIAIIRF75tTjZ0a1b6pNeTyl45T1g/QzSj2Wg/QYAWAKQiKq+ZNmDWtsIOs193N8v1rW+MDqn2KND3L10lhN7lOOTbVrup/FGqPbJFkv9bWE/dawxgdWf4s1NpD1mvsAsI0IiZhN7Uk19NO3ul5i9attK5kyxps6TpPz1NyfQ2m+VfdtjaltG6N2fOinb3UdALbVAQmJd7ojzRv6kdus2tJNx8+4U8fvNGvz6Y7Fn2A6T7o7btR9bnV3PCj7lI99v/OPwWrPSY2Rz0uQ6je1rWTKGC+M87cleqwk6zX3Lb6ekupvtXu6JueyyL5yzNS2WlPG5o5Xs/oBwEF1IELiDYefdKcePOpuMGoLNx51D5iBbU59+CsE0Taslo53FnXHUyOcIPWJUp88U/1CW441Tm9LVq22rWTMmJq+Y49B9q+5b0nVp8xn9cv1t1j9a9uC1L79tmxL9QttOdY4vQ0A2+AAhMQuCD1w+FajtlQVJFdVFUTrVj3nMX9InHJfCzV9q+9b25Kv1bLG54wdU+q/ynw19y2p+tj5fLvVL9U/JcxTwxrvydrY+1qo6Vt939oGgG2w+SHxtpPNG/hJd5NVW1hTMGuPpRAS2yC52SFRbutbXddku3W/dh7PqtW2hfaprLl0m1Sqa7J/zX2Lr6fIPtZ9SY6p6Z9i9a9tC3QtbOtbXddku3W/dh4AOMg2PiRWfc6wKkjm9GGrOVF0EkFwrpDYziP2l3h87WNf9BP77fcxmEOYElD9uFXbdVtqW7Zb8wRWrbatZMoYLzWuZj7fZyprvhpyrDVPaEvVNN1Hsuq1bbn+Y9t1W2pbtlvzAMBBt9khsWpVbtXVtG4VcnA5exAG9RdVlHa/OmQq4jJ4e1l8EGit4w/zqX7H9eX0VR/7kj9Oa1vf6npKrp6aU7PqtW0lU8Z4cpy/nyPHabJec1/ztZLQT44J90u1VFtO7Ry5eXUtbOtbXU/J1VNzAsC22OiQuI4vrNj76MJX9DnIlVcSE5fF1UpoFyRrHtPuhMSx92Vbiu4nb1Pk+BJrfM7cY8bOJ/vX3Nd0LbU9db5UW47vX8sa78na2PuyLUX3k7cAsG02OCQaK3yGVb9JPLykq+jwtWpIzF4mXs5b/5jmD4nhVrfrbd0uleZItWm142rm0saM8X0Dq+6NPQbZv+a+pmup7anzpdpyaueoOQ7dJ7VdM1dqO9UGANtic0OiWl2zrf6FlVEhc6aQWDrevQyJejt1Eh3TXtumzTmXNveYsfPJ/jX3NV8rCf3kmHBfs2phHk33C6xabVuga2E7NWZMe20bAGyLjQ2JbVAqhZ+qIJkXf0YwY9WQWLk6Wn9MuxcSU21BqubbZS03b2qOIDe21FYy95ix88n+Nfc1XSttp9qCsf0ttXPMeRypmm+Xtdy8qTkA4KDbzJDYBq3SZ/ISnxscrf9iSs3K3cohMQTA0mqidUzN442+uBIul68WlL2xJ8pSf19P9QntuTlKY0ttJXOPGTuf7B/u6znG7K9m7Jj5Um0pqb5zHEdOqb+vp/qE9rH7BICDYiNDov1lEqUqSNbqQ9mAMfcMIdELQXEgWg3sVwkXfVL71f3Kl7Mtcnwtax5P1nW/0vaY9nA/1dcyZUwgx9bSc4Tx8n7YTt1awrgc2VfeWqxarr+W6ivbw/3cvL42ljWPJ+u6X2kbALbBBobEukuyoz5LiNlZJ1XflmqXt5puT/WzjOkbTBkzl7meg7H1KfOVxgS1/bwxfWukjjvVLm+1VDsAHFSbFxKrPmfYBckpK2YAAADY4C+uAAAAYPcQEgEAABAhJAIAACBCSAQAAECEkAgAAIAIIREAAAARQiIAAAAihEQAAABENjwknnRf+/n77v5/Xrr9UavffrI85v1/rLGbX37MvfK77y9dPBT3e+7EsM+V+9zNus9eePha9/knV7sPHjZqwo9/cNJ99NrSr4/Z/WLXuw8+vMp9ds6qTdXN6T5pfHitO2v2AQBgfhsdEr/8ShO2fv6q+6JRW78+/L3yQ6MmbXBIbMPfY+6hE0YtOHGfO9sEw2eeM2pzqzmehevcZ03Q+vzC9UYtuMm99Q9NMPyHu9yDZr3CuWvaQDdXULx0hXAIANgbGxwSf+hu31dBqzYkbq4jFxMrh0K70riulcPqkNivxl25zqgJx+53H7329+6trxu1Ec5euLoJite4S0ZtnC7YzrsyCQBAnc0Nife+6u4iJK7RLe6hK+WQ2AbJfRYSa0Pbg4/8fRMS73c/NmrjVIbSIkIiAGDvHNCQaAc2fXm63fZ9Hr0oPtf4W/e1e5djFgZ93nd3/ehk194fh6xJy+NbXmbuJPbT+OKPfiv6NazHUXvcFdpgJz5DaF8qnisk9vMs9pcIef1l60U/sV99vAPRvrvAlr/M3Gk/i/iDb+RrX7/L/b7m84rtZefy5x/zCIkAgL2zYSFRBy1lEQBHhERrnPqcYwhtMpB+8UcXVSiz92lqw50d6rpjuui+vGjrLqtPOe4yI/ipzxRGX1QZ6AOe/qKKsgydh9wzzfbZl29Z7s9aDezn0/2i8Fqzkth+WSUdtLrVw2Xo07oQ2H1W8fc/uL8JiMvL0W1wTH5+cY6AR0gEAOwdVhLNQChCWr+fxcph0gwhMfWYVP+q467RhqwT7ohqtz97uPpKov15xW7eZSDsgmRpP62akNiu6FV8PrBfIbRXBr/hft2GxuHnFduAmQyJM1xyrj12AAB2ASGxFLYyq35DM4TEtt0KesMv6cwVErOrhIkwt0pIzF4mDvOO+XZ0RUis/hJJ9ksrfUgcXIruvwmduDy9UkjsvyG9+mcaAQCYjpC49SExXkm0zRQSE7WFmUNi7Wpc9ksrZoDsguPvH7lJtEn1n4VMmuVzjQAATENILIWt7H6kGULinlxuLoSshZkuNxdDqfG5xZSa4y98JjHIfWnFDJDZy9Men0kEAGy2AxoSE4Gw6T86JDa6scNQF39xJfSrCGrJ1ck+aA7m6L+4IsJn7XGX9cGvajVx9ZC4+LxhYTUxXAYfrCY2gTBaXexXHfOBsuayb35V0PyCSru6mPlzObOsAhISAQB758CGxEW46vkvnrRBakJIXLYP55P1Tgh5S8vjGx7PgLXiKep6X/OFRC8ExaH4cu8cIdHrg+KAsRrYrhKKPqn96n7GvrvPJWYCW3ZVsP9mswqQ+W82z/CllRYhEQCwdzY3JALVCqFtpv9pJeB/XAEAHASERGyH/rOJUVAMfxw7+S3lkfpvJs8T7Ppwy//dDADYA4REbI82KHaXneUf0U5/Q3msLtTNu/LXrSa2fxKHsAgAWCNCIgAAACKERAAAAEQIiQAAAIgQEgEAABDZqJBI2AQAAFgPQiIAAAAihEQAAABECIkAAACIEBLX7pg78/Z77tLl99z501Z9ryyPK7CO79Dzlwd9Lr30dNTnYKt7ngAA2HSExBmdeqkJDW+fd4eM2tK6QuLT7rwIMkuX3Zl74v5Vx376reT4udU9l+u3X48LAIC5ERJntL8CRBcS33z+mFHTur6l0No+vjWtHO7PMFb3PAEAcBAQEme0sSHxnvPuzWL46VdAtzkkVj1PAAAcDITE9hJqE0gW3nKnKvotw1fqsm5n2U9/ls24bJu6nNuHk0Hg69sW80WBag9CYvGYeis/l3sk+zx1z48/xuHnNhOvpyfecDs7O27n9afiGgAA+8B2h0R/0h+Enj4IqXATTvoyHBx6/q0ozFWvfiU/29eHJBXEuv2LsGGMj/ddCok6tCr9XNEXVQbEMVQd0y48l7uu7nka9Fv8/OyfZ4uQCADY51hJVKJA1q8e1axirR4Sjf2H8LEIGt12dDztcco5U6tyxspWdoUs0McR14rHtBvPZdLN7lfffcr96bTt/VutMQXZ58l+fvZP2AUAYJytD4ntSXwRoIL8ql3KHCExCiI6aBUuyS4DTGklUciGnyAXEiuPaTeey3UiJAIAtshWh8QuIA5DS82l3ZRZQmKjnacPG+3xDOasDX/rD4nFfRESAQDYGFscEu2Teupycz5AdeYKiV3dH0N3jMN958KatM6QWHlMu/FcJnG5GQCAVbCSKE7gXUBs2tTn9tp+0Ypj/GWLbnzFSllxRa0LeOef96FkeCytdnwpAK4zJDaqjmkXnst1mjMkhi+uvHvOfUvXAADYB7b8M4ldkAqfnWtP5otVvGHfZYDspMJQF4KsfmpfkhG8wv6SoasPZQODMJLanxG85giJXvGYOqs/l3tkzpB45Jx714fEnV+4F46oGgAA+8DWf3EF2CuPv05IBADsX4REYC+ElUT+TiIAYJ8iJAJr9ZR7rb3MvOPefeGoUQcAYH8gJAIAACBCSAQAAECEkAgAAIAIIREAAAARQiIAAAAihEQAAABECIkAAACIEBIBAAAQISQGz51wr/zu+0tX7nM3W/0qvXj8Y/fp8Z+q9kfdO9/72P3m67INAABg/yEkeifuc2ebYPjMc0ZtglOH/+A+feKKe9GoXff1K02NoAgAAPY3QmLj5pcfW3nlcKENgX9w73zFqPWyIRIAAGAfICQ2jlxc/fJy56fuN0987P54+FGjJnWXnePL0QAAAPsDIbGRDYntZxVPuCNfOOSeEZ9ZPPvyLXHfdhWxcoWwtOL4xBtuZ2fH7bz+lF0HAADYRdsbEvUXVZTF5xMX/R5zD53o2trL02I7aL+s8r2L7pRoS+tWHZOfTSQkAgCAPcRKYqO8kqgCoflFl+4ScvlSc8AlZwAAsH8REhvzhMTazyMGhEQAALB/ERIbe7mSWN8fAABgfQiJjXlC4syfSQQAANhDhMTGXCGx5m8kLtR+u/ndc+5bVh0AAGAXERIbs4XEfnWw/DnDis8jHjnn3vUhcecX7oUjRh0AAGAXERLnNuP/uPL464REAACwNwiJu6D9bGIqKLYhsuKziGElkb+TCAAA9gAhcZe0QTG6nNxdZs4HxKfca+1l5h337gtHjToAAMDuIyQCAAAgQkgEAABAhJAIAACACCERAAAAkY0KiQAAAFgPQiIAAAAihEQAAABECIkAAACIbGRIvHTlKuc+8a5xl4w6AAAAVrPRK4ltWPzwWnfWqAEAAGC6zb7c/PC17vNPrnYfPGzUAAAAMBkhEQAAABFCIgAAACKERAAAAEQ2OyR+4Xr3wYdXOXflOqMGAACAqTY8JHbOXri6/ZM4n1+43qwDAABgnA0Pide5zwiHAAAAs+MziQAAAIgQEgEAABAhJAIAACBCSAQAAEBko0Ni963ma9wlowYAAIDpNjIkXrpyVfsnbxyriAAAALtisy83AwAAYFcQEgEAABAhJAIAACBCSAQAAECEkAgAAIAIIXGEU4+fGdWeM2XMKkr7k/V1H9tuSj2W/fz8j7Ubj2Wvnx+/nSL7pch+tWMAAEOExBFSJ5spJyF9EkuRY2r6B9YY3SbJeqmvJey3hjU+sPpbrLGBrNfcX4cxx1yi+5a2Lasej6+XWONSdP/U+Np5Zb+xxwIA6BASR1j1xBXsxUmrtE9Zn3J81pjatjFqx4d++lbX18HvS0r1sdotuq81tmY+a54U2U/StbAtx0qyr6Rrqb65OSTZr3YMAGDogITEO92R5kRw5DartnTT8eZEdfxOs1Zj1ROXN9cJy8+TkupvtXu6JueyyL5yzNS2WlPG5o5Xs/rNQc6t76eEPpqu5fqWjNlPSu54cjXN6psi+1l0Hz1ek30BAEsHIiTecPhJd+rBo+4Go7Zw41H3wONPujtuNGoZ1knFK9UsspbrVyM1PrWP3P6sfrn+Fqt/bVuQ2rfflm2pfqEtxxqnt+ck587tN9dP8rUxrDlq1I7V+5Pj5H1rO7Rpus9Yco5wf455AWDbHICQeKu748Ez7oHDtxq1paogWZA60VgnpZJVT1pjjyXX3+qX6p8S5qlhjfdkbex9LdT0rb5vbc/Nz6+FdtnHul8ypm+On6ckNS61natpepyUarPoerifGwMAsG1+SLztZHMCOOlusmoLdZejS1InGuuklKP7l8ixNeNkH+u+JMfU9E+x+te2BboWtvWtrmuy3bpfO89c9H6t40jdz6ntJ/kxktXHkuqr2+V2rqalxoX7qbrma2PHAABsGx8Sqz5nWBUky6yTj94unYx8PdenNH6M0nGFtlRN030kq17bFqRqY9p1W2pbtlvzzEnvs3QM8n6O75djjZGsPrIt3M/N5WuarOm+clsKtdQcVptm9ZU1TfcBAAxtdkhsP2dYWiHsLkev8oWVQJ9cwn2rzWL113K1wPcpCf3kmHC/VEu15dTOkZtX18K2vtX1lFw9Nedu8PvQUu2BnkMLfVJ9x8yRap8yR2q7NJevy75Sqk2SbaU6AKDORofE3fzCipY7Ocn21Mmopo+XqwW6T2pbtufmtWq5/hbfv5Y13pO1sfdlW4ruJ293k96Xte/U/ZRS/7Fz1GxbaudIzeXbA6vu5WoWq//YOQAAGx0Su88Zlr6w0l6OXuELK/IEljrRyPaak1Guz5TxqW3ZnpvXquX6W2rnqDkO3Se1XTNXajvVthv08a56LLpvaTuldBw18+j+kqyH2xTZr5aeI7Bquf4AANvmhsQ1fmElyJ189G1Ork/t+JLQT44J9zWrFubRdL/AqtW2BboWtlNjxrTXtmm+T02/nDCHZPWRtzmrjg9kX3+/RI+16uFW99VtWm6cv62ZI0jNZdH9AABLGxsS1/mFlcA6qYS21K1lai3QfUrbqbZgbH9L7RxzHkeq5ttlLTdvao5AzzWF3pc1n2zL7W9qzRL6W+NytSA3rtSm6T5yO9yvmcez+tWOBQAsbWZIrPqcYd3fTxxDn2hyJ6PcSWlqLdB9StuptmBsfy3Vd47jyCn19/VUn9Bes8+aPjl6X/62hpxDjreEWq6PVrufsXNa26U5ZD01h1WzWH1qxgEAhjYyJK7zCyteOMHUnqx8rVRPteXGBWH+HNlX3lqsWq6/luor28P93Ly+NpY1jyfrul9pW8rVaqX2N8d+fT9r/prxVp/UuJr5PNlPj8ntz98GqT5y2+oX1MwBACjbwJC4ni+saPIkU3PCGXsSy7VrpX66PrZ/qs1S288b07dG6rhT7fJWS7WvSs/rt1fdV5ijNM+YfZX6jplH3mpWe2nu2n0HU/YBAIhtXkjcgy+sAAAAbJuN/eIKAAAAdg8hEQAAABFCIgAAACKERAAAAEQIiQAAAIgQEgEAABAhJAIAACBCSAQAAEBkK0LizS8/5l753feXLh6K+z13Ytjnyn3uZt1nL5y7xrlPrnGXrFrwlYvuj0/8wb3zFdX+9Svu0+9ddKdk2wZ68fjH7tPjPzVr0ld/9hf3nQvvuS8ZNaTt7vP2jrv7l39xx579iVGby9Pu/OX33KXLl92Ze6w6NtLDH7nv/PLP7va7jVrCl579czOmeT3/7B2zvon8+98fDz9q1hb8eeLDa91Zqwas4OCHxDb8PeYeOmHUghP3ubNNMHzmOaM2syMXRwTQh691n39ylfvsnFFb+Kn7zROpN5FH3TvfawLWBgfFU4f/4D594op70ahp2xgS53jMhMR1Csea8tbu/K7ec9692cx//rRR26/2IiSu+3k6/VbzMy+8bttFgFJQvN598OFVBEXM7sCHxDaUWSuHQrvSuKaVw/qQeJ37rAmIn1+43qgFfQjMrrLlQuQ+51dCrRXSBELiNJsfEjfXqZeaYPjS02ZtVlsSEle2H0OiV/VeWHPOAMY54CHxFvfQlXJIHLW6t6LafV26Uv5XYfUq28iwNcm9r7q7/vl9d/ujRm2S8eGWkDgNIXHvEBIzCIkDL/qP3ZSuCrUfT7raffCwUQMm2NiQ2IYt8RlC+1LxXCGxn2exv8Tla/W5xrMv39LXDrlnRLu27Bd0/yLMX2buVhHrQlTNiuPqvvij37r7m6B4149OmvVR2mBbCMDtSaQJOJIOO7pPKgypfoNQc/d77ljTdvfgjXcYftrLXM3cXw2Xu/x++nHf+eVH7quLcY1Fe888Zj+m20d8TMN2bWwga0Oivzw3eA6sk7Per30Cb+cb9FPPkzXOfI5L9KVb41Jte9L3J+Fj7szbou8gmHW1N58/5g49f7liPjHP2+fdIVlvT/p+XG5/S6WQ2NbF/gbhpd1X066OIYzxfYePR9ulS9u1Sr+bxd8Dz/5dGPs7MO55Uj9bFfLC8+9fT8sx4bXazaV/rgP6NRX0l51/83WjttBfdr5ynVHzjroX3t1xOzu/cC8cserA0AaGRCP4qc8URl9UGegDnv6iirIMnV3AGwQ543OOYZ8yrN788okoTFatJNb8a7DqDWOpXXVcx2cTH73YBsX7f/6q+6JVr1T6V7MVNvSKWNznJ+72C/4kMgxt4XNMMqB86dmPluNqQ6I/Qfmw1fb/szt2YXmCW5y02hNf/riXJ89lv1S4mmMVcBHqxDzRvP1zIE++8fPWP7+D41GPP9rutHOt8Di6k3w+1C0CVh+uloFLnPQXga0/qcsA144zAoE8qfdze4uQkFmdasebIbE/Jlmz5un3t9hX9Nh6mWPYC/Hr2fjdNH4PrN+fIfv1Va34PHWvi0EATL0uRFu3bbw+jbFpdQsDZy9cnbkKRUjEOJsXEtuAdsIdUe1t+IpWDFdfSbQ/r9jNuwiOfUiNVwRjNSEx/0veq1lpkyZfcv6hu92HPtNv3dfuzY256L4c1WqU3gztE8Ew2CROFjrwGeEnUh0S+5PXYE7ZrzsR2sdUOBGaxzBjSNRzqGOy99Of2MOXBMwTePxzaOcaBPXEz2qEUkgcnvT1id4IZI1hAOz6DFeHGu384iRvhjQjWPSSIbGdJ348Vv/usftjSO9nlpB467fdn04/ZfvuEfeMNcZU+btpvp4Sv0MLK76WCs9T+1xHK33Wa6N/Tfm+uSA4KiRyyRnrt3EhMbtKmAhzq4TEtmbtywvz1nyDulcTEmf9PGKwjs8lDpx0X/t5FybHf06x8HlEHap6gyCT6BOdZIorEw0zoA1PRl1I7IPPoL/s193vVkdi2ZOjeQy7GBL7Y+32lz4xyxVAezXQOGnrx9I+3uHq7li7HxK7MWGVUFvMP/KknwqJ3eOJ99OKQko/T6LWmiMkzmXF38329Zr89rLxehuj8DwtnmdL9HNcvmbM4O4RErHPbWhIjFcSbTOFxEKomzsk7t5K4oj+K9nllcTESWZTQmLxBLYfQuJgfzOHxH6+cKL3+y8+JwXrConJk30wa0g0Ho+pP/42kCTGHJiQOHztxNYQElNBXOvnsgNkb0pILH22vA2Jhb+tC1Ta0MvNdYFstsvNpVA64u8sVoXOffWZxJGXm/tvOe/qZxLNwNSfPBYhJXGy0GMT4WvA7DOcvy4klk5wvf0QEtUx2PsZPp7BcxD0xx39HNr5fV///Ky2iujtfki0+0RmColj5mnnaB975hjnCIn74nJzYmx1vaDwPNWH934V0f8scnOOer3M8ZlEYJzNC4kh+FWtJq4eEhffTC4Eu3aO6Mss8RdXutBZCrlz/Y3EYEzf6eb/dnPq8rgOhP12c3KQQaYNNoOTjB6X6ucDj/jiSnTi6bb9/kJbXUhsttsTX+EkNiIkdvvVJ9JYFyTsABEHwP7xyTBrHHe0bx0I+2378S6fw1xoXlx2Laze7H5IbLQn9MJq4lwhcbE6WAgk/TEtHl//eONjFKFl0L43qn43jd+DblzuHxX6d3Uo93vQKT1Pfb3welwG9267e30ar4vkz8sw67ebd9xrT1h1YGgDQ6IXguLQM9FK3hwh0bP+hE0c9PTnJVNfZOkCZb5f+7nEwiWD7nOJFZ8zXMfnEXfp7ySmg60IGQ0fntrQogJgF2SW/VKBRPeLTjJ9SOr4E1d3Ugv9uvEVITGaq1c4OaZCotedOJfiE2QIHPbJL3qOzDkaIvR1jJP14LH5+vB5krr9qsepLE7q1km5P8G2dWVx0p0zJHp9KBuIguQcIdETPzchPJZFgFbjQ3sUPKLnq2ZFbPcUfzej11tD/X7HciEx/3uwUHye+qA4EH7my30MX3Oh3Xht6NdUIoC+ONPnER9/vQuJO68/ZdYBaUND4jbgf1xZ/5dtsE5tSCie9IExupBo/WNqo1W9F1b+jytHzrl3CYmoREjcz9p/FRZ+6ftLEHZQ7EPkpM8i7g/tv54JigePtVoKjOT/oSEDYbc6mbscvYH69/j8P/Tr/+/mbiWRv5OIOoTE/a7mm2rtm4gRpPy/Pjc4IAZtUNzlz1NiPZaXxgmImIP4PHLrgAXEhn//K14J8ueJQkD81gu/6C4z77zhHjfqgIWQCAAAgAghEQAAABFCIgAAACKERAAAAEQIiQAAAIgQEgEAABAhJAIAACBCSAQAAECEkAgAAIAIIREAAAARQiIAAAAihEQAAABECIkAAACIEBIBAAAQISQCAAAgQkgEAABAhJAIAACACCERAAAAEUIiAAAAIoREAAAARAiJAAAAiBASAQAAECEkAgAAIEJIBAAAQISQCAAAgAghEQAAABFCIgAAACKERAAAAEQIibvg1ONnRrVPUTuX1W8vjqNk1XnmfEyenK927lS/VccDALAXCIkz8yf6wKrptjHk3IHVT7L61IyrNddcc8yzm48rNbdsr7mfo/v57RzZFwCAuRESZ1B78h5zYtdzjhkr6XF6zkD2qe0r75ek5gg1uV2i56phzZOjx+TmCDV9q+slY8bVzgkAwFQHJCTe6Y40J80jt1m1pZuON4Hh+J1mbS7WyTu06ducOUJA7lhKbSmyr7+fIseEvvq+7G8J/bVcbS5T9pEaEx6PlOqX25ZyNQAA5nAgQuINh590px486m4wags3HnUPPP6ku+NGo1alC6KnCnNYJ+/QJmulk/wcIUDvV9/q+zWsOXTNYu2ztr+Wq9Xw46caM0/oo8fI7dCmpdolPQ8AAHM6ACHxVnfHg2fcA4dvNWpLVUEyoV2BfPyku8PPYYRE6wTuybq81e2WMEet1Hh936qPIedM1SyylpsjGFtL9c/NkzNmXOirb/V9a1sq9c2NBQBgbpsfEm872Zw8T7qbrNpC3eVoSxsu+0vU7f2RK4lye8xJf5VAEMbq23A/t10i++txuXlkTY/3t5Lur6X6WGNy8+TUjpP9rPt6nty8pb65sQAAzG3jQ2LV5wyrgmRZKST6k3juxD7mJD9HIAhz+NvAqss+si7bJVnTfeW2ZI3Tt6k2zeqv7+faAl/TZE32teg+qe3aeXV/f1sixwMAMKfNDont5wxLK4Td5eg5vrBSGxLDyVufxOW2rmmleo3ccdTOn+tnzSu3JVkL9/Vtqk2z+tfUUqx+tWODXP9QK83p67KP7l8aDwDAnDY6JFZ9znDlL6ws5UJiOIHrW0m2lU74cp4cPU4KdXmrx9TOkSLn1jVJ1vWYXM2ia9Z4fT/H6lcz1vdJ0f3krVYal9oGAGA3bXBI7D5nWPrCSns5euIXVrS5QmLNyb6mb2me0hyl8d6q+wh8XQpt8jbVpuma1Tc3Xkv1rZ1jruNJzeNvLbIvAABz29yQuMtfWLGkQqI8YdecvEt9auernUf389uyLTePNVZup9o0a3/yVtL9NV2z+ubGa6m+U/dT26al9jd1PgAAVrGxIXGdX1gJSp9J9Eon75qTu+yT61+7L3mrx4yZw+or67pWkhuTqtXsZ+yx+P6Srln3ZVtNn1RN0vXcuNJcAACsajNDYtXnDOv+fuIYq4bEmhO77rPKfKWxpfFerp9ur5lPyvWv3adWewy+n2T1CUI91y83T814T9ZT93NtAADMaSNDYhvW1vWFlf4b1P6kHDFWMn271Wa1a7mxKbq/ZNVrxkmpvmPbLVbf0JarhftjyHnkHFa7pTRPqOk+pW3ZJmv6viXUAQDYDRsYEtf/hZUx5Ml7jpN5bnxp7rmPJRiz35xUv7mOc276uPy2dayhLfU4cmP0fWs71QYAwJw2LyTuwRdWAAAAts3GfnEFAAAAu4eQCAAAgAghEQAAABFCIgAAACKERAAAAEQIiQAAAIgQEgEAABAhJAIAACBCSAQAAECEkDirQ+6Z333fvfK7x9xDJ6z6AXHuGuc+ucZdsmrBVy66Pz7xB/fOV1T716+4T7930Z2SbRvmxeMfu0+f8K64F406AAAHASHxxH3ubBPsnnnOqC1CX8oJd8Tsv1kh8cjF5piv3OduNmqRh691n39ylfvsnFFb+Kn7TROi/nj4UaP2qHvne03A2tCgeOrwHwiHAICtQEjMhsShNkxdPGTWNll9SLzOfdYExM8vXG/Ugj4EHv+pUQtyIXI/6x7b5h03AADjERIJidUh8dKVq5z78Fp31qgF1Stt/rKzdTl6Tve+6u765/fd7Y8atUkIiQCA7bGhIfEW99CVJtgsLvsmQs5zJ4Z9RMC7+eXHhrUBfRm5kw6J+rK0Ht8d79mXDy2O++zLtyyPQc+ZOe5kH/3427q67D0IxPlL6f74FuNa3Spi/jLzmBBVs+K4ui/+6Lfu/iYo3vWjk2Z9HEIiAGB7bGRIrFn56gKYDGt9sNSBa+aVxHi/3jLU+v20fa485s76uVSYqznuro8MgGF+Ma4YEpeqVhLbL6tc7T542KgF7ZdVPna/+bpRM7Srjuv4bOKjF9ugeP/PX3VftOrVCIkAgO2xgSExEfYGulWyKPi1wUkFuHWGxD6IDULeIMzVHHfXJ1rp049j5pB49sLVxUvN3SXkEV/qmHzJ+Yfudh/6TL91X7s3N+ai+3JUq5T6xjYAAAfQZl5ubgNQE2w8K9z0YWjRZ6AuOFlWDon92EEfGeZqjrvtox6D2MciPM4cEmf9PGKwjs8lDpx0X/t5FyZHfU6xXyHd9D/dAwDAGJsZEoNBqBLBbETwG9N3XSExeyxtn/WHxN1bSVzXn5OZayWx/nI6AACbbLNDYhCFn8QlWct+ColVx703l5v312cSR15u7r/lzGcSAQCodzBCohGIuiBWE/660FUKf97uh8S6426PY/B4+/ll0NOBsN+25u72qQJlZK6/kRjw7WYAAPazDQyJfagbsANOCFwDVsgTAaqjQ14nGRKj8Uvdil99SFzW1Vxqv1Ef47iGffz+uufOCqBd8FyyVjPbzyUW/ju+7nOJFZ8zXMfnEfk7iQAATHYwVhKxJvyPK4REAMC2ICRinPaziYWgGL4NbAbFPkRu6DeFXzzeHPvavmwDAMDeISRivDYo5i87J/+moL/MvNF/SqYPuT4EExYBAAcYIREAAAARQiIAAAAihEQAAABECIkAAACIbFRIJGwCAACsByERmOj//n/PZLdLfP8Sa9xUq8wXxtbOkeq36ngAwPoQEoEJfIgJZJu8LSn1q5lH719L9dVyNU/WU31TfWrGarqf386RfQEA8yAkApVKwUS2WXWt1KdmDi/00/1L21quLms1/fStrpeMGVc7JwBgHEJiycMfue/88s/u9ruNWsKXnv1zM+Yv7js/e8esHwSnXnrPXXr7vDtk1DbN6/+9C30f/Jdm+7882N7/v//9TrNvYAUT2VYTXNr9FFjjtNBP99ftpfly9dJYLdXft2upfrltyaqd+W9PtO3/+7/d4q777v3ufzf3/+8/3e/OqH4AgDRCYslGh8Rj7szbTZh76WmjJuqXY+dPW/2XDlJI7ALFE+6fvttsh0CxYkisUeqfq+f2X7ot8f1qjBkT+ugxcju0aal2Sc8Twn4b/L9wp/vA9yMkAsAohMSSCSFx/6gMicl62kEPie0KlOijQ8kYch4pV/PG1sN26XaK2rG5feo5cnOW+ubGtqyQWAj+AIAhQmIJIdF0YENiHyh0SNSskFIMLorvX2KNC3Q9bJduJd8m6XqQqwWyj3Vfz5Gbs9Q3N7Y1CIm3uH/6p+bxERIBYBRCYhsC/7J04T33paj+kfvqF95xd4t+x579iZhnWLP71OhC25vPH3OHnr8sLv++5U7pvqffEnUV2O45796UNWV5KXlESNT781RIHB6zMJi/3+eiftmduWc5x6awQsroIDOTsJ/a2xTZz6L7S7qe2pbtuTl1f39bIseP8a0XfuF2dnbcuy8cNesAsK22OiR2nx2Uq4Q/cbdf8AHPh8K+bREiRb/i6mIXGqeGxGGwetqdV0GrC2MyXIVxOkyWQmBdSIz3F68kxn3i4w5tPgQv2trwuXlBMYQSGU50ULGCi2+bSs8VhFrtbYquy+3SWCnXN9RK8/m67KP7l8aPQUgEANsWh8REkLv7PXesab/74X7bDIRdmEyHwBVDogptw0BmBC2vXz0cfuGkMiT6MDcQhz29Px0SrcvPZpBUfcIxRI8n65vu/dNPuT+ZHnG/utEaMy8dYkKbdb/WqmPC/dJtiq6XtiVfS9H95K1WGpfaBgDMb3tDYhsGrdVAFQATq4Zf/dlfMt9e3sWQ2IZBa+XNCluVITFZbyT2ZwbAQrhsxwzCqJA7hn3GCjE1NU33qx3nhf3IMeF+6TZF10vblpoxq8zjby2yLwBgHoTESSGxvyxNSFyuClqfWcw9jg0kA0kqmOj2XICx+lpkH82qp8bUzqVvdT3Fqte2aal9T50PADAel5t1kKu63FwKgRt2ubkYEhPzLo6p2y5dMu5WG40v4Yy2Py43p9pkLRdgdC3XNyU1hzVXaX5fl33Ctm6Tt1Kqr5QbL+l6blxpLgDANFv9xZX2kvEgAPYrhPIbzkZI7MaJL7dE8iFxcdk1Cmc1ITGMl6t7OrQtdX1TwawiJCYCYXv8ui07j9cFXOs4N00qxOjtVICx6qm+OXpMbr7S/KHub4NcH10LUmNDTd6myHrqfq5tjPDFlZ3XnzLrALCttjokeov/HSXQl5D7lcVBH/1nciK5kChC1sSQ6HWrcv085lyB2F8v+hM4ohb38fpwJ2rRl1D6FUc5R0cH1OFcHevy+f4UAom8TYWUVE23he3UPDlyTGr8lPlzfX0tt69Q031K27JN1vR9S6hP8sQbXUjcecM9btUBYEttfUjcHV1IXFyyPvASl8BDICyuMG6WMaFE902NDWEnxxoXrFofS8+XOsbQltp/boy+b22n2sY56l54l5AIABohcQZ+NVIGwm51Mnc5+oDpVxFTn5MsfVYR2FP9SiJ/JxEAhgiJs+g/y7i4JL1FATGwvt3cGF62BvaRI+fcu+1l5h332hNGHQC2HCERAAAAEUIiAAAAIoREAAAARDYqJAIAAGA9CIkAAACIEBIBAAAQISQCAAAgspEh8cXjH7tPn/CuuBeN+lY4d41zH17rzlo1AACAFW30SmIbFr93Uf3fwLvlv7r/8Z//j/v9f/5f7pX/aNW/7J79T74eJPp9419En//j/uXeJ+I+//F/un8RfX7/n/5r3OcL17sPPryKoAgAAHbFZl9u/spF98cn/uDe+YpRm1EX/v7FvXLv/2pu7fDX9jn9P923++1vW33bgCja+jA4CIp92//4Rr8dwqkZFK9zn31ylfv8wvVGDQAAYDpCYkEb9vqAZgY/T4e/1hPuldMy3HVhT68cdnP+i3vWHNMz5+/5y86fXO0+EP93NAAAwKoIiSOkQmLbLlYRW4tLxn0AbLcTQXKxctgFyeUqYidcxjYvTYfLzleuM2reUffCu/7/p/2Fe+GIVQcAAIgREkdIhcQ2xMnVv3blrwmHcgUwtC3GhUAoVhijINmFyH+597/aK4y9sxeuznw2kZAIAADG2+yQ+IVH3Tvf+9h9evynRm1+dkgcXiIerCqKkNiNtVYVRUgcXFaWq4qJy9ABl5wBAMDMNjwkdk4d/kP7J3H+ePhRsz6X0kpickVR3k+uKDb3Q3j8RmpF0brc3CAkAgCAmW14SPyp+80awmGQColdexzi4tXDJkQmPrsoP5M4DJHL9nxIvMZdsmoAAAAT8JnEEVIhcXiZONCXiO2gNwiSqcvK5vxL+c8kAgAAjHfgQ+Kpl95zly6/5958/phZHyMZEkO4K/ydxKitX0UcBMc2EMpvOPeri6nPI1Z/u3nHvfaEVQcAAIgd+JB46PnLbUi8dPmtaf8zS7hMbBkEtz4oLur6knGnC4rLfvrP3bT6oBgkLzN7FZ9HfPz1LiTuvP6UWQcAANC24HLz0+68D4lvn3eHzPomq/wfV46cc+8SEgEAwAgbHRK7bzVfcS8atSCsJJ4/bdc3V/3/3dytJPJ3EgEAQL2NDIkvHv+4/ZM3n+ZWEe85795sLzNfdmfuMeqbzl9mLgTEb73wi+4y884b7nGjDgAAkLLZl5sBAACwKwiJAAAAiBASAQAAECEkAgAAILKWkAgAAIDNQkgEAACA8mX3/wP0RJbs75GisAAAAABJRU5ErkJggg==;" parent="1" vertex="1">
                    <mxGeometry x="-650" y="160" width="649" height="645" as="geometry"/>
                </mxCell>
                <mxCell id="13" style="edgeStyle=orthogonalEdgeStyle;html=1;entryX=0.5;entryY=0;entryDx=0;entryDy=0;fontSize=24;fontColor=#FF3333;" parent="1" source="8" target="9" edge="1">
                    <mxGeometry relative="1" as="geometry"/>
                </mxCell>
                <mxCell id="25" style="edgeStyle=orthogonalEdgeStyle;html=1;entryX=0.5;entryY=0;entryDx=0;entryDy=0;fontSize=24;fontColor=#FF3333;" parent="1" source="8" target="14" edge="1">
                    <mxGeometry relative="1" as="geometry"/>
                </mxCell>
                <mxCell id="8" value="weakMap" style="whiteSpace=wrap;html=1;fontSize=24;fontColor=#000000;fillColor=#f0a30a;strokeColor=#BD7000;" parent="1" vertex="1">
                    <mxGeometry x="310" y="-240" width="120" height="60" as="geometry"/>
                </mxCell>
                <mxCell id="15" style="edgeStyle=orthogonalEdgeStyle;html=1;exitX=0.5;exitY=1;exitDx=0;exitDy=0;entryX=0.5;entryY=0;entryDx=0;entryDy=0;fontSize=24;fontColor=#FF3333;" parent="1" source="9" edge="1">
                    <mxGeometry relative="1" as="geometry">
                        <mxPoint x="200" as="targetPoint"/>
                    </mxGeometry>
                </mxCell>
                <mxCell id="9" value="key" style="whiteSpace=wrap;html=1;fontSize=24;fontColor=#000000;fillColor=#f0a30a;strokeColor=#BD7000;" parent="1" vertex="1">
                    <mxGeometry x="140" y="-120" width="120" height="60" as="geometry"/>
                </mxCell>
                <mxCell id="19" style="edgeStyle=orthogonalEdgeStyle;html=1;entryX=0.5;entryY=0;entryDx=0;entryDy=0;fontSize=24;fontColor=#FF3333;" parent="1" source="14" target="18" edge="1">
                    <mxGeometry relative="1" as="geometry"/>
                </mxCell>
                <mxCell id="14" value="value" style="whiteSpace=wrap;html=1;fontSize=24;fontColor=#000000;fillColor=#f0a30a;strokeColor=#BD7000;" parent="1" vertex="1">
                    <mxGeometry x="480" y="-120" width="120" height="60" as="geometry"/>
                </mxCell>
                <mxCell id="26" style="edgeStyle=orthogonalEdgeStyle;html=1;exitX=1;exitY=0.5;exitDx=0;exitDy=0;entryX=0;entryY=0.5;entryDx=0;entryDy=0;fontSize=24;fontColor=#FF3333;" parent="1" source="16" target="18" edge="1">
                    <mxGeometry relative="1" as="geometry"/>
                </mxCell>
                <mxCell id="16" value="&lt;span style=&quot;color: rgb(32, 33, 36); font-family: consolas, &amp;quot;lucida console&amp;quot;, &amp;quot;courier new&amp;quot;, monospace; font-size: 12px; text-align: left;&quot;&gt;{&lt;/span&gt;&lt;span style=&quot;box-sizing: border-box; min-width: 0px; min-height: 0px; color: var(--color-text-secondary); flex-shrink: 0; font-family: consolas, &amp;quot;lucida console&amp;quot;, &amp;quot;courier new&amp;quot;, monospace; font-size: 12px; text-align: left;&quot; class=&quot;name&quot;&gt;text&lt;/span&gt;&lt;span style=&quot;color: rgb(32, 33, 36); font-family: consolas, &amp;quot;lucida console&amp;quot;, &amp;quot;courier new&amp;quot;, monospace; font-size: 12px; text-align: left;&quot;&gt;:&amp;nbsp;&lt;/span&gt;&lt;span style=&quot;box-sizing: border-box; min-width: 0px; min-height: 0px; unicode-bidi: -webkit-isolate; color: var(--color-syntax-1); font-family: consolas, &amp;quot;lucida console&amp;quot;, &amp;quot;courier new&amp;quot;, monospace; font-size: 12px; text-align: left;&quot; class=&quot;object-value-string&quot;&gt;'hello world'&lt;/span&gt;&lt;span style=&quot;color: rgb(32, 33, 36); font-family: consolas, &amp;quot;lucida console&amp;quot;, &amp;quot;courier new&amp;quot;, monospace; font-size: 12px; text-align: left;&quot;&gt;,&amp;nbsp;&lt;/span&gt;&lt;span style=&quot;box-sizing: border-box; min-width: 0px; min-height: 0px; color: var(--color-text-secondary); flex-shrink: 0; font-family: consolas, &amp;quot;lucida console&amp;quot;, &amp;quot;courier new&amp;quot;, monospace; font-size: 12px; text-align: left;&quot; class=&quot;name&quot;&gt;notEdge&lt;/span&gt;&lt;span style=&quot;color: rgb(32, 33, 36); font-family: consolas, &amp;quot;lucida console&amp;quot;, &amp;quot;courier new&amp;quot;, monospace; font-size: 12px; text-align: left;&quot;&gt;:&amp;nbsp;&lt;/span&gt;&lt;span style=&quot;box-sizing: border-box; min-width: 0px; min-height: 0px; unicode-bidi: -webkit-isolate; color: var(--color-syntax-1); font-family: consolas, &amp;quot;lucida console&amp;quot;, &amp;quot;courier new&amp;quot;, monospace; font-size: 12px; text-align: left;&quot; class=&quot;object-value-string&quot;&gt;'我是测试数据'&lt;/span&gt;&lt;span style=&quot;color: rgb(32, 33, 36); font-family: consolas, &amp;quot;lucida console&amp;quot;, &amp;quot;courier new&amp;quot;, monospace; font-size: 12px; text-align: left;&quot;&gt;}&lt;/span&gt;" style="whiteSpace=wrap;html=1;fontSize=24;fillColor=#60a917;fontColor=#ffffff;strokeColor=#2D7600;" parent="1" vertex="1">
                    <mxGeometry x="40" width="300" height="50" as="geometry"/>
                </mxCell>
                <mxCell id="22" style="edgeStyle=orthogonalEdgeStyle;html=1;entryX=0.5;entryY=0;entryDx=0;entryDy=0;fontSize=24;fontColor=#FF3333;" parent="1" source="18" target="21" edge="1">
                    <mxGeometry relative="1" as="geometry"/>
                </mxCell>
                <mxCell id="18" value="&lt;div style=&quot;text-align: left;&quot;&gt;&lt;span style=&quot;background-color: initial; font-size: 12px;&quot;&gt;&lt;font face=&quot;consolas, lucida console, courier new, monospace&quot; color=&quot;#202124&quot;&gt;new Map（）&lt;/font&gt;&lt;/span&gt;&lt;/div&gt;" style="whiteSpace=wrap;html=1;fontSize=24;fillColor=#60a917;fontColor=#ffffff;strokeColor=#2D7600;" parent="1" vertex="1">
                    <mxGeometry x="480" width="120" height="50" as="geometry"/>
                </mxCell>
                <mxCell id="29" style="edgeStyle=orthogonalEdgeStyle;html=1;exitX=1;exitY=0.5;exitDx=0;exitDy=0;entryX=0;entryY=0.5;entryDx=0;entryDy=0;fontSize=14;fontColor=#FF8000;" parent="1" source="21" target="23" edge="1">
                    <mxGeometry relative="1" as="geometry"/>
                </mxCell>
                <mxCell id="21" value="text" style="whiteSpace=wrap;html=1;fontSize=24;" parent="1" vertex="1">
                    <mxGeometry x="480" y="100" width="120" height="40" as="geometry"/>
                </mxCell>
                <mxCell id="23" value="new Set" style="whiteSpace=wrap;html=1;fontSize=24;fontColor=#FF8000;" parent="1" vertex="1">
                    <mxGeometry x="680" y="100" width="120" height="40" as="geometry"/>
                </mxCell>
                <mxCell id="24" value="&lt;font style=&quot;font-size: 14px;&quot;&gt;副作用函数&lt;/font&gt;" style="whiteSpace=wrap;html=1;fontSize=24;fontColor=#FF8000;" parent="1" vertex="1">
                    <mxGeometry x="680" y="140" width="120" height="40" as="geometry"/>
                </mxCell>
                <mxCell id="27" value="&lt;font style=&quot;font-size: 14px;&quot;&gt;副作用函数&lt;/font&gt;" style="whiteSpace=wrap;html=1;fontSize=24;fontColor=#FF8000;" parent="1" vertex="1">
                    <mxGeometry x="680" y="180" width="120" height="40" as="geometry"/>
                </mxCell>
                <mxCell id="28" value="&lt;font style=&quot;font-size: 14px;&quot;&gt;副作用函数&lt;/font&gt;" style="whiteSpace=wrap;html=1;fontSize=24;fontColor=#FF8000;" parent="1" vertex="1">
                    <mxGeometry x="680" y="220" width="120" height="40" as="geometry"/>
                </mxCell>
                <mxCell id="30" value="&lt;div style=&quot;text-align: left;&quot;&gt;&lt;span style=&quot;font-size: 24px;&quot;&gt;&amp;nbsp; &amp;nbsp; 总结：weakMap建立了字段名与副作用函数的联系，使更改字段名触发相应的副作用函数执行，若不存在的字段名则不触发函数执行。&lt;/span&gt;&lt;/div&gt;&lt;font style=&quot;font-size: 24px;&quot;&gt;&lt;div style=&quot;text-align: left;&quot;&gt;&amp;nbsp; &amp;nbsp; 同时，weakMap也是性能优化的手段，它是弱引用，若是没有数据引用时，GC会自动回收。&lt;/div&gt;&lt;/font&gt;" style="text;strokeColor=none;align=center;fillColor=none;html=1;verticalAlign=middle;whiteSpace=wrap;rounded=0;fontSize=14;fontColor=#FF3333;labelBackgroundColor=#FFFF00;" parent="1" vertex="1">
                    <mxGeometry x="120" y="350" width="540" height="150" as="geometry"/>
                </mxCell>
            </root>
        </mxGraphModel>
    </diagram>
</mxfile>